<?xml version="1.0" encoding="utf-8"?>
<!-- Generator: Adobe Illustrator 16.0.0, SVG Export Plug-In . SVG Version: 6.00 Build 0)  -->
<!DOCTYPE svg PUBLIC "-//W3C//DTD SVG 1.1//EN" "http://www.w3.org/Graphics/SVG/1.1/DTD/svg11.dtd">
<svg version="1.1" id="Layer_1" xmlns="http://www.w3.org/2000/svg" xmlns:xlink="http://www.w3.org/1999/xlink" x="0px" y="0px"
	 width="50.003px" height="50px" viewBox="280.999 371 50.003 50" enable-background="new 280.999 371 50.003 50"
	 xml:space="preserve">
<circle fill="#32BA7C" cx="306" cy="396" r="25"/>
<path fill="#0AA06E" d="M299.612,407.277l12.855,12.855C323.114,417.293,331,407.593,331,396c0-0.237,0-0.473,0-0.71l-10.095-9.306
	L299.612,407.277z"/>
<g>
	<path fill="#FFFFFF" d="M306.631,401.6c1.104,1.104,1.104,2.997,0,4.101l-2.287,2.287c-1.104,1.104-2.997,1.104-4.101,0
		l-10.016-10.095c-1.104-1.104-1.104-2.997,0-4.101l2.287-2.287c1.104-1.104,2.997-1.104,4.101,0L306.631,401.6z"/>
	<path fill="#FFFFFF" d="M315.385,384.17c1.104-1.104,2.997-1.104,4.101,0l2.287,2.287c1.104,1.104,1.104,2.997,0,4.101
		l-17.35,17.271c-1.104,1.104-2.997,1.104-4.101,0l-2.287-2.287c-1.104-1.104-1.104-2.997,0-4.102L315.385,384.17z"/>
</g>
</svg>
