<?xml version="1.0" encoding="utf-8"?>
<!-- Generator: Adobe Illustrator 22.0.1, SVG Export Plug-In . SVG Version: 6.00 Build 0)  -->
<svg version="1.1" id="Capa_1" xmlns="http://www.w3.org/2000/svg" xmlns:xlink="http://www.w3.org/1999/xlink" x="0px" y="0px"
	 width="55px" height="55px" viewBox="0 0 55 55" style="enable-background:new 0 0 55 55;" xml:space="preserve">
<style type="text/css">
	.st0{fill:#45B5DA;}
</style>
<g>
	<g>
		<path class="st0" d="M27.5,0C12.3,0,0,12.3,0,27.5C0,42.7,12.3,55,27.5,55C42.7,55,55,42.7,55,27.5C55,12.3,42.7,0,27.5,0z
			 M27.5,51.4c-13.2,0-23.9-10.7-23.9-23.9c0-13.2,10.7-23.9,23.9-23.9c13.2,0,23.9,10.7,23.9,23.9C51.4,40.7,40.7,51.4,27.5,51.4z"
			/>
		<path class="st0" d="M27.5,12.6c-4.8,0-8.8,3.9-8.8,8.8c0,1,0.8,1.8,1.8,1.8c1,0,1.8-0.8,1.8-1.8c0-2.8,2.3-5.2,5.2-5.2
			c2.8,0,5.2,2.3,5.2,5.2c0,2.8-2.3,5.2-5.2,5.2c-1,0-1.8,0.8-1.8,1.8v6.3c0,1,0.8,1.8,1.8,1.8s1.8-0.8,1.8-1.8v-4.7
			c4-0.8,7-4.4,7-8.6C36.3,16.5,32.3,12.6,27.5,12.6z"/>
		<path class="st0" d="M27.5,37.6c-1.2,0-2.3,1-2.3,2.3c0,1.3,1,2.3,2.3,2.3c1.3,0,2.3-1,2.3-2.3C29.8,38.7,28.8,37.6,27.5,37.6z"/>
	</g>
</g>
</svg>
