<?xml version="1.0" encoding="utf-8"?>
<!-- Generator: Adobe Illustrator 16.0.0, SVG Export Plug-In . SVG Version: 6.00 Build 0)  -->
<!DOCTYPE svg PUBLIC "-//W3C//DTD SVG 1.1//EN" "http://www.w3.org/Graphics/SVG/1.1/DTD/svg11.dtd">
<svg version="1.1" id="Layer_1" xmlns="http://www.w3.org/2000/svg" xmlns:xlink="http://www.w3.org/1999/xlink" x="0px" y="0px"
	 width="50px" height="50px" viewBox="281 371 50 50" enable-background="new 281 371 50 50" xml:space="preserve">
<circle fill="#F15249" cx="306" cy="396" r="25"/>
<path fill="#AD0E0E" d="M295.511,407.277l13.486,13.486c11.356-1.341,20.347-10.253,21.767-21.609l-13.564-13.564L295.511,407.277z"
	/>
<path fill="#FFFFFF" d="M317.83,401.521c1.104,1.104,1.104,2.997,0,4.101l-2.209,2.209c-1.104,1.104-2.996,1.104-4.101,0
	l-17.35-17.351c-1.104-1.104-1.104-2.997,0-4.101l2.287-2.287c1.104-1.104,2.997-1.104,4.101,0L317.83,401.521z"/>
<path fill="#D6D6D6" d="M308.682,392.293l-6.388,6.388l9.227,9.148c1.104,1.104,2.997,1.104,4.101,0l2.287-2.287
	c1.104-1.104,1.104-2.997,0-4.102L308.682,392.293z"/>
<path fill="#FFFFFF" d="M311.521,384.17c1.104-1.104,2.997-1.104,4.101,0l2.287,2.287c1.104,1.104,1.104,2.997,0,4.101
	L300.48,407.83c-1.104,1.104-2.997,1.104-4.101,0l-2.208-2.209c-1.104-1.104-1.104-2.996,0-4.101L311.521,384.17z"/>
</svg>
