<?xml version="1.0" encoding="utf-8"?>
<!-- Generator: Adobe Illustrator 22.0.1, SVG Export Plug-In . SVG Version: 6.00 Build 0)  -->
<svg version="1.1" id="圖層_1" xmlns="http://www.w3.org/2000/svg" xmlns:xlink="http://www.w3.org/1999/xlink" x="0px" y="0px"
	 width="55px" height="55px" viewBox="0 0 55 55" style="enable-background:new 0 0 55 55;" xml:space="preserve">
<style type="text/css">
	.st0{fill:#45B5DA;}
</style>
<g>
	<path class="st0" d="M27.5,29.5L27.5,29.5c3.6,0,6.5-2.9,6.5-6.5c0-3.6-2.9-6.5-6.5-6.5S21,19.4,21,23C21,26.6,23.9,29.5,27.5,29.5
		z M24.1,23c0-1.9,1.5-3.4,3.4-3.4c1.9,0,3.4,1.5,3.4,3.4c0,1.9-1.5,3.4-3.4,3.4C25.6,26.4,24.1,24.9,24.1,23z"/>
	<path class="st0" d="M19.2,42.8h16.6c0.8,0,1.5-0.7,1.5-1.5c0-2.8-1-5.4-2.9-7.3c-1.8-1.9-4.3-2.9-6.9-2.9c0,0-0.1,0-0.1,0
		c-2.6,0-5.1,1.1-6.9,2.9c-1.9,1.9-2.9,4.5-2.9,7.3C17.7,42.1,18.4,42.8,19.2,42.8z M20.9,39.8c0.3-1.3,0.9-2.6,1.9-3.6
		c1.3-1.3,3-2,4.8-2c1.8,0,3.5,0.7,4.8,2c0.9,1,1.6,2.2,1.9,3.6H20.9z"/>
	<path class="st0" d="M41.9,0H13.1C9.7,0,6.8,2.8,6.8,6.3v42.3c0,3.5,2.8,6.3,6.3,6.3h28.7c3.5,0,6.3-2.8,6.3-6.3V6.3
		C48.2,2.8,45.3,0,41.9,0z M9.9,6.3c0-1.8,1.5-3.2,3.2-3.2h28.7c1.8,0,3.2,1.5,3.2,3.2v42.3c0,1.8-1.5,3.2-3.2,3.2H13.1
		c-1.8,0-3.2-1.5-3.2-3.2V6.3z"/>
	<path class="st0" d="M22.5,8.7h9.6c0.9,0,1.5-0.7,1.5-1.5s-0.7-1.5-1.5-1.5h-9.6c-0.9,0-1.5,0.7-1.5,1.5S21.7,8.7,22.5,8.7z"/>
</g>
</svg>
