<?xml version="1.0" encoding="utf-8"?>
<!-- Generator: Adobe Illustrator 22.0.1, SVG Export Plug-In . SVG Version: 6.00 Build 0)  -->
<svg version="1.1" id="圖層_1" xmlns="http://www.w3.org/2000/svg" xmlns:xlink="http://www.w3.org/1999/xlink" x="0px" y="0px"
	 width="80px" height="80px" viewBox="0 0 80 80" style="enable-background:new 0 0 80 80;" xml:space="preserve">
<style type="text/css">
	.st0{fill:url(#SVGID_1_);}
	.st1{fill:url(#SVGID_2_);}
	.st2{fill:url(#SVGID_3_);}
	.st3{fill:url(#SVGID_4_);}
</style>
<g>
	
		<linearGradient id="SVGID_1_" gradientUnits="userSpaceOnUse" x1="28.0649" y1="-706.3159" x2="28.0649" y2="-646.0182" gradientTransform="matrix(1 0 0 -1 0 -628)">
		<stop  offset="0" style="stop-color:#57ACF9"/>
		<stop  offset="1" style="stop-color:#298AE2"/>
	</linearGradient>
	<path class="st0" d="M51,63.1c-3.3-3-6.2-4.6-8-4.6c0,0,0,0-0.1,0c-0.7,0-1.1,0.1-2,0.7c-0.1,0.1-2,1.3-2.7,2.2l-1.1,1
		c-1.1,1.1-2.6,2.6-4.6,2.7c-3.4,0.3-6.6-2.2-8.4-3.9c-3.6-3.3-6.7-7.2-9.3-11.4c-1-1.6-3-5.2-1.9-8.7c0.7-1.7,2.2-3,3.4-3.7
		l0.7-0.4c0.8-0.4,1.6-1.3,2.2-1.6c1.1-0.8,2.3-2,2.5-3.3c0.1-1.7-0.8-4.6-2.7-8c-1-1.6-3.3-5.5-5.2-5.8c-0.7-0.1-1.3,0.1-2.2,0.8
		c-0.8,0.4-2.6,2-4,3.1L6.9,23C3,26.4,1,30.8,1,36.2c0.1,8.4,4,15.2,8.1,21.1c3.3,4.7,8.7,11.3,15.6,16c3.6,2.5,6.9,4.3,11.7,4.9
		c4.7,0.6,8.5-0.1,12.6-3c0,0,3.6-2.6,4.6-3.6c0.3-0.1,0.8-0.7,0.8-0.7c0.4-0.4,0.7-0.8,0.8-1.3C55.3,68.1,53.8,65.6,51,63.1z"/>
	
		<linearGradient id="SVGID_2_" gradientUnits="userSpaceOnUse" x1="34.8325" y1="-676.7905" x2="34.8325" y2="-650.1216" gradientTransform="matrix(1 0 0 -1 0 -628)">
		<stop  offset="0" style="stop-color:#57ACF9"/>
		<stop  offset="1" style="stop-color:#298AE2"/>
	</linearGradient>
	<path class="st1" d="M37.6,33.8c-0.4,0.7-1.1,1.3-2,2c-0.8,0.7-2,1.4-3,2.5c-1.3,1-2.5,2-3.3,2.7c-0.8,0.7-1.6,1.6-2,2.3
		c-1,1.4-1.4,3.4-1.4,5.7h18.1v-4.4H32.4c0.3-0.3,0.8-0.8,1.4-1.3c0.7-0.4,1.3-1.3,2.3-2c1.4-1.3,2.7-2.3,3.7-3.3c1-1,1.7-2,2.3-2.6
		c0.4-0.8,1-1.6,1.1-2.5c0.3-0.8,0.3-1.7,0.3-2.7c0-1.1-0.1-2.2-0.4-3.1c-0.3-1-1-1.7-1.6-2.5c-0.7-0.7-1.6-1.1-2.6-1.6
		c-1-0.3-2.3-0.7-3.6-0.7c-1.3,0-2.5,0.1-3.4,0.7c-1,0.4-2,1-2.7,1.7s-1.3,1.6-2,2.7c-0.4,1.1-0.8,2.3-0.8,3.6h4.9
		c0-0.8,0.1-1.4,0.4-2c0.1-0.7,0.4-1.1,0.8-1.4c0.3-0.3,0.7-0.7,1.1-0.8c0.4-0.1,1-0.3,1.4-0.3c1.1,0,2.2,0.3,2.7,1
		c0.7,0.7,1,1.4,1,2.6c0,0.7-0.1,1.3-0.3,2C38.5,32.5,38,33.1,37.6,33.8z"/>
	
		<linearGradient id="SVGID_3_" gradientUnits="userSpaceOnUse" x1="55.795" y1="-676.9716" x2="55.795" y2="-650.3059" gradientTransform="matrix(1 0 0 -1 0 -628)">
		<stop  offset="0" style="stop-color:#57ACF9"/>
		<stop  offset="1" style="stop-color:#298AE2"/>
	</linearGradient>
	<path class="st2" d="M61.8,49v-5.8h3.3v-4.4h-3.3V22.4H58l-11.6,17V43H57V49L61.8,49C61.8,49,61.8,49,61.8,49z M51.7,38.6l5.2-7.8
		v7.8H51.7z"/>
	
		<linearGradient id="SVGID_4_" gradientUnits="userSpaceOnUse" x1="48.4825" y1="-694.6209" x2="48.4825" y2="-629.6703" gradientTransform="matrix(1 0 0 -1 0 -628)">
		<stop  offset="0" style="stop-color:#57ACF9"/>
		<stop  offset="1" style="stop-color:#298AE2"/>
	</linearGradient>
	<path class="st3" d="M44.9,1.7C34,1.7,24.2,6.7,18,14.7c1.1,0.8,2.2,2,3,3c5.4-7.3,13.9-12,24-12c16.7,0,30,13.5,30,30
		c0,12-7.2,22.5-17.5,27.3c0.8,1.1,1.6,2.5,2.2,3.6C71.2,61.1,79,49.4,79,35.8C78.9,16.8,63.7,1.7,44.9,1.7z"/>
</g>
</svg>
