<?xml version="1.0" encoding="utf-8"?>
<!-- Generator: Adobe Illustrator 24.3.0, SVG Export Plug-In . SVG Version: 6.00 Build 0)  -->
<svg version="1.1" id="圖層_1" xmlns="http://www.w3.org/2000/svg" xmlns:xlink="http://www.w3.org/1999/xlink" x="0px" y="0px"
	 width="86px" height="22px" viewBox="0 0 86 22" style="enable-background:new 0 0 86 22;" xml:space="preserve">
<style type="text/css">
	.st0{display:none;}
	.st1{display:inline;}
	.st2{fill:#FFA71A;}
	.st3{fill:#399FD8;}
	.st4{fill:#6B95B2;}
	.st5{fill:#FFFFFF;}
</style>
<g class="st0">
	<g class="st1">
		<g>
			<g>
				<path class="st2" d="M40.3,0.7c-0.9,0-2,0-3.4,0c-0.1,0-0.1,0.8-0.2,2.3c-0.1,1.5-0.2,3.3-0.3,5.1c-0.2,2.2-0.3,3.7-0.3,4.2
					c-0.1,0.6-0.2,1.1-0.3,1.5c-0.2,0.4-0.3,0.8-0.5,1c-0.2,0.3-0.3,0.4-0.6,0.6c-0.3,0.2-0.5,0.3-0.9,0.4C33.4,16,32.9,16,32.5,16
					c-0.5,0-1-0.1-1.5-0.3s-0.9-0.4-1.2-0.8c-0.2-0.2-0.3-0.4-0.4-0.8c1.2,5.3,5.1,6.1,7.6,5.6c0.7-0.2,1.3-0.4,2-0.8
					c0.9-0.5,1.6-1,2.1-1.6c0.4-0.6,0.9-1.3,1-2.1c0.2-0.9,0.3-2.2,0.3-4.2c0-0.2,0-0.3,0-0.5l0.9-9.9L40.3,0.7L40.3,0.7z"/>
				<path class="st2" d="M29.1,16.4c-0.1-2,0-4.3,0-4.3c0-0.4,0-1.1,0.1-2.1s0.1-2.1,0.2-3.3l0.4-6.1c-1.3,0-2.3,0.1-3,0.1
					c-0.6,0-1.6,0-3.2-0.1l-0.3,5.7c-0.1,1.2-0.1,2.1-0.2,2.7l-0.2,2.3c-0.1,0.9-0.1,1.5-0.2,2c0,0.4-0.1,0.9-0.1,1
					c0,0.7,0.1,1.3,0.3,1.9c0.2,0.5,0.3,0.9,0.6,1.4c0.3,0.4,0.6,0.8,1.1,1.1c0.5,0.4,1.2,0.8,1.9,1c0.8,0.3,1.5,0.5,2.5,0.7
					c0.9,0.2,1.7,0.2,2.6,0.3C30.6,20.2,29.2,18.5,29.1,16.4z"/>
			</g>
			<g>
				<path class="st3" d="M20.7,1c-2.1,0-3.3,0.1-3.4,0.1c-0.6,0-1.9,0-3.6-0.1L13,2.2l-6.1,6L7.3,1C5.7,1,4.6,1.1,4.2,1.1
					c-0.6,0-1.7,0-3.3-0.1v1.2c0,1-0.1,2.8-0.2,5.3c-0.2,3.7-0.3,6.5-0.4,8.6C0.2,17.3,0.1,19.2,0,21c1.7-0.1,2.8-0.1,3.3-0.1
					L6.4,21l0.1-6L20.7,1z"/>
				<path class="st3" d="M13.8,10.1c0,0,0.4,0.7,1.1,1.7c3.6,5.8,7,8.7,8.4,9.1c-3.1,0-7.4,0.1-9.3-1.2c-2-1.3-3-3.9-4-5.5
					L13.8,10.1z"/>
			</g>
		</g>
	</g>
	<g class="st1">
		<g>
			<path class="st4" d="M84.4,20.6C83.3,20,82.3,19,82,17.7c0-0.2-0.4-1.3-0.4-1.8c0,0,0,0,0-0.1c0-0.6,0-1.3,0-1.9h1.8L84,5.3h-2
				l0.3-4.7h-2c-0.6,0-1.1,0-1.6,0.1c-0.2,0-0.5,0-0.6,0c-0.4,0-1.2,0-2.3-0.1l-1.9-0.1L73.5,7c-1.4-1.4-3.2-2.1-5.4-2.1
				c-2.3,0-5.2,0.8-6.9,2.4c-0.4,0.3-0.7,0.7-1,1C60,8,59.8,7.7,59.5,7.4c-1.5-1.6-3.4-2.5-5.6-2.5l0.3-4.3h-8.4l-0.9,12
				c-0.2,2.3,0.3,4.3,1.5,5.9c0.7,0.9,1.6,1.7,2.7,2.2c1.1,0.5,2.3,0.8,3.4,0.8c2.3,0,4.3-0.8,6-2.3c0.4-0.3,0.7-0.7,0.9-1
				c0.2,0.3,0.5,0.6,0.7,0.9c1,1.1,2.2,1.8,3.6,2.1c0.2,0.1,0.4,0.1,0.6,0.1h0.1c0.4,0.1,0.9,0.1,1.3,0.1c2.2,0,5-0.7,6.4-1.9
				c0.5-0.4,0.9-0.9,1.2-1.4c0.1,0.3,0.2,0.6,0.4,0.8c0.3,0.5,0.6,0.8,1,1.2c0.4,0.4,0.9,0.6,1.6,0.8c0.7,0.3,1.7,0.5,2.6,0.6
				c1,0.1,2.1,0.1,3.3,0.1c1.1,0,2.2-0.2,3.4-0.3C85.5,21.1,84.9,20.9,84.4,20.6z"/>
		</g>
		<g>
			<path class="st5" d="M52.2,2.2l-0.8,10.3C51.3,14.2,51.8,15,53,15c0.5,0,1-0.2,1.4-0.5c0.4-0.4,0.6-0.8,0.6-1.3s-0.1-0.9-0.4-1.3
				c-0.3-0.4-0.7-0.5-1.2-0.5c-0.3,0-0.8,0.2-1.2,0.5l0.4-5.2c0.6-0.1,1-0.1,1.3-0.1c1.8,0,3.3,0.6,4.4,1.9c1.2,1.3,1.7,2.8,1.6,4.6
				c-0.1,1.8-0.9,3.4-2.3,4.7c-1.4,1.3-3,1.9-4.9,1.9c-0.9,0-1.9-0.2-2.7-0.6c-0.9-0.4-1.6-1-2.1-1.7c-0.9-1.2-1.3-2.8-1.2-4.7
				l0.8-10.5C47.5,2.2,52.2,2.2,52.2,2.2z"/>
			<path class="st5" d="M72.1,8.4c-1.2-1.2-2.7-1.9-4.5-1.9c-1.9,0-3.5,0.6-4.9,1.9c-1.4,1.3-2.1,2.8-2.3,4.7s0.4,3.4,1.6,4.7
				c0.8,0.8,1.7,1.4,2.8,1.7c0.1,0,0.3,0.1,0.4,0.1c1.9,0.2,4,0,5.6-1.5c0.9-0.8,1.6-1.8,2.1-3.4c-0.2,0.3-0.3,0.5-0.5,0.7
				c-0.4,0.3-0.8,0.5-1.4,0.7c-0.5,0.1-1,0.2-1.6,0.2c-0.1,0-0.2,0-0.3,0c-0.5,0-1,0-1.5-0.2c-0.4-0.1-0.7-0.2-1-0.4
				c-0.3-0.1-0.5-0.3-0.6-0.5c-0.1-0.1-0.1-0.1-0.2-0.2c-0.1-0.1-0.2-0.2-0.3-0.3c-0.3-0.5-0.4-1.1-0.3-1.9c0.1-0.8,0.3-1.4,0.7-1.9
				c0.4-0.5,0.9-0.8,1.5-0.8c0.9,0,1.4,0.5,1.5,1.4h-2.4c-0.2,0.4-0.3,0.8-0.3,1.2c0,0.3,0,0.6,0.1,1h7.2c0.1-0.4,0.1-0.7,0.1-0.9
				C73.7,11.2,73.2,9.7,72.1,8.4z"/>
			<path class="st5" d="M79.5,16c-0.1-1.7,0-3.8,0-3.8c0-0.1,0-0.1,0-0.2h1.9l0.4-5h-2.1L80,2.1c-1,0-1.8,0.1-2.3,0.1
				s-1.3,0-2.5-0.1l-0.2,5c0,1.1,0,1.8-0.1,2.4l-0.1,2c-0.1,0.8-0.1,1.4-0.1,1.7c0,0.4-0.1,0.8-0.1,0.9c0,0.6,0.1,1.1,0.2,1.7
				c0.1,0.5,0.3,0.8,0.5,1.2c0.2,0.4,0.5,0.7,0.9,1c0.4,0.4,0.9,0.7,1.5,0.9c0.6,0.2,1.2,0.5,1.9,0.6c0.7,0.2,1.3,0.2,2,0.2
				C80.6,19.3,79.6,17.8,79.5,16z"/>
		</g>
	</g>
</g>
<g>
	<g>
		<path class="st4" d="M39.8,20.1l1.4-18.3H51c1.8,0,3.2,0.6,4.3,1.6c0.9,1,1.4,2.3,1.3,3.8c-0.1,1.2-0.6,2.2-1.3,3.1
			c0.2,0.2,0.5,0.5,0.6,0.7c0.7,0.9,0.9,2.1,0.8,3.3c-0.1,1-0.3,2-0.9,2.8s-1.3,1.5-2.1,2c-0.6,0.3-1.3,0.6-2.3,0.7
			c-1.5,0.2-2,0.2-2.2,0.2h-9.3V20.1z"/>
		<path class="st5" d="M42.6,3.3H51c1.4,0,2.4,0.3,3.1,1.2c0.7,0.7,1,1.6,0.9,2.8c-0.1,0.9-0.3,1.7-1,2.3c-0.3,0.5-0.9,0.8-1.6,1
			c1,0.2,1.7,0.7,2.2,1.4c0.5,0.7,0.6,1.5,0.6,2.4c-0.1,0.8-0.3,1.5-0.7,2.2c-0.3,0.7-0.9,1.2-1.6,1.5c-0.3,0.2-1,0.3-1.7,0.5
			c-1,0.1-1.7,0.2-2.1,0.2h-7.8L42.6,3.3z M46.6,9.3h2c0.7,0,1.2-0.1,1.5-0.3s0.5-0.6,0.5-1.2c0-0.5-0.1-0.8-0.3-1
			c-0.1-0.2-0.6-0.3-1.3-0.3h-2L46.6,9.3z M46.2,15.4h2.3c0.8,0,1.4-0.1,1.7-0.5c0.3-0.3,0.6-0.7,0.6-1.2c0-0.5-0.1-0.8-0.3-1.2
			c-0.3-0.2-0.8-0.5-1.6-0.5h-2.3L46.2,15.4z"/>
		<polygon class="st4" points="54.6,20.1 56.1,1.8 71,1.8 70.6,8 70,8 69.5,13.5 62.5,13.5 62.5,13.8 70.3,13.8 69.9,20.1 		"/>
		<path class="st5" d="M57.3,3.3h12.1l-0.2,3.3h-7.6l-0.1,2.3h7l-0.2,3.2h-7l-0.2,3h7.8l-0.2,3.5H56.2L57.3,3.3z"/>
		<polygon class="st4" points="72.6,20.1 73.6,8.5 69,8.5 69.4,1.8 86,1.8 85.5,8.5 80.9,8.5 80,20.1 		"/>
		<path class="st5" d="M70.8,3.3h13.7l-0.3,3.8h-4.6l-0.8,11.5h-4.6L75.1,7h-4.6L70.8,3.3z"/>
	</g>
	<g>
		<g>
			<path class="st2" d="M36.4,1.9c-0.8,0-1.7,0-3.1,0c-0.1,0-0.1,0.7-0.1,2.1C33,5.4,33,7,32.9,8.6c-0.1,2-0.2,3.3-0.3,3.8
				c-0.1,0.6-0.1,1-0.3,1.4c-0.1,0.3-0.3,0.7-0.5,0.9c-0.1,0.2-0.3,0.3-0.6,0.6c-0.2,0.2-0.5,0.3-0.8,0.3c-0.3,0.1-0.8,0.1-1.2,0.1
				c-0.5,0-0.9-0.1-1.4-0.2c-0.5-0.1-0.8-0.3-1-0.7c-0.1-0.1-0.2-0.3-0.3-0.7c1,4.8,4.6,5.5,6.9,5.1c0.6-0.1,1.2-0.3,1.7-0.7
				c0.8-0.5,1.5-0.9,1.8-1.5c0.3-0.6,0.8-1.2,0.9-2c0.1-0.8,0.3-2,0.3-3.8c0-0.1,0-0.2,0-0.5l0.8-9L36.4,1.9L36.4,1.9z"/>
			<path class="st2" d="M26.4,16.2c-0.1-1.7,0-3.9,0-3.9c0-0.3,0-1,0.1-1.8c0.1-0.9,0.1-1.8,0.1-3L26.9,2c-1.2,0-2.1,0.1-2.6,0.1
				c-0.6,0-1.5,0-2.9-0.1l-0.2,5.1c-0.1,1-0.1,1.8-0.1,2.4L21,11.6c-0.1,0.8-0.1,1.4-0.1,1.7c0,0.3-0.1,0.8-0.1,0.9
				c0,0.6,0.1,1.2,0.2,1.7c0.1,0.5,0.3,0.8,0.6,1.3c0.2,0.3,0.6,0.7,1,1c0.5,0.3,1,0.7,1.7,0.9c0.7,0.2,1.4,0.5,2.2,0.6
				c0.8,0.1,1.5,0.1,2.3,0.2C27.6,19.5,26.5,18,26.4,16.2z"/>
		</g>
		<g>
			<path class="st3" d="M18.8,2.1c-1.8,0-3,0.1-3.1,0.1c-0.6,0-1.7,0-3.2-0.1l-0.7,1L6.2,8.7l0.3-6.4c-1.5,0-2.4,0.1-2.8,0.1
				c-0.6,0-1.5,0-3-0.1v1c0,0.9-0.1,2.5-0.1,4.8c-0.1,3.3-0.2,5.9-0.3,7.7c-0.1,1-0.1,2.8-0.3,4.4c1.5-0.1,2.5-0.1,3-0.1l2.8,0.1
				l0.1-5.3L18.8,2.1z"/>
			<path class="st3" d="M12.5,10.4c0,0,0.3,0.6,1,1.5c3.2,5.3,6.3,7.8,7.6,8.2c-2.8,0-6.7,0.1-8.4-1s-2.6-3.6-3.7-5L12.5,10.4z"/>
		</g>
	</g>
</g>
</svg>
