<svg id="refresh" xmlns="http://www.w3.org/2000/svg" width="50" height="50" viewBox="0 0 50 50">
  <rect id="矩形_2" data-name="矩形 2" width="50" height="50" rx="5" opacity="0.5"/>
  <g id="refresh-2" data-name="refresh" transform="translate(7.143 7.143)">
    <path id="路径_1" data-name="路径 1" d="M4.289,19.5a14.13,14.13,0,0,1-.1-1.647A13.615,13.615,0,0,1,27.029,7.791L25.823,9.019a1.07,1.07,0,0,0-.272,1.046,1.1,1.1,0,0,0,.8.711c.211.042,7.13,2.272,6.689,2.183a1.058,1.058,0,0,0,1.235-1.235c-.043-.211-1.574-7.9-1.486-7.457a1.037,1.037,0,0,0-1.758-.523L30,4.75A17.869,17.869,0,0,0,0,17.857V17.9c0,.59.027,1.046.058,1.395a1.046,1.046,0,0,0,.837.932l2.15.43A1.047,1.047,0,0,0,4.289,19.5Zm0,0" transform="translate(0.001 0)" fill="#fff"/>
    <path id="路径_2" data-name="路径 2" d="M53.844,215.882l-2.156-.439a1.047,1.047,0,0,0-1.248,1.152,14.244,14.244,0,0,1,.108,1.657A13.6,13.6,0,0,1,27.7,228.3l1.207-1.207a1.07,1.07,0,0,0,.272-1.046,1.094,1.094,0,0,0-.8-.711c-.211-.043-7.13-2.272-6.689-2.183a1.025,1.025,0,0,0-.942.293,1.042,1.042,0,0,0-.293.942l1.486,7.387a1.048,1.048,0,0,0,.732.8,1,1,0,0,0,1.025-.272l1-1a17.83,17.83,0,0,0,30.022-13.037v-.063c0-.464-.017-.919-.056-1.372a1.046,1.046,0,0,0-.834-.935Zm0,0" transform="translate(-19.019 -200.395)" fill="#fff"/>
  </g>
</svg>
