<svg id="slide" xmlns="http://www.w3.org/2000/svg" width="50" height="38.636" viewBox="0 0 50 38.636">
  <g id="tap">
    <g id="组_2" data-name="组 2" transform="translate(5.876 3.512)">
      <g id="组_1" data-name="组 1">
        <path id="路径_3" data-name="路径 3" d="M96.028,96.96l-8.545-9.391a4.35,4.35,0,0,0-6.152.014,4.254,4.254,0,0,0-1.1,1.88,4.354,4.354,0,0,0-6.821,2.27,4.355,4.355,0,0,0-5.716.4A4.3,4.3,0,0,0,66.6,93.963l-4.027-4.027a4.35,4.35,0,0,0-6.152,6.152L71.9,111.56,62.719,113a5.091,5.091,0,0,0-4.35,5.016,3.413,3.413,0,0,0,3.409,3.409h21.43a12.417,12.417,0,0,0,8.839-3.661l3.575-3.575a12.484,12.484,0,0,0,.407-17.23Zm-2.014,15.623-3.575,3.575a10.16,10.16,0,0,1-7.232,3H61.778a1.137,1.137,0,0,1-1.136-1.136,2.812,2.812,0,0,1,2.416-2.768l11.4-1.791a1.135,1.135,0,0,0,.627-1.925L58.03,94.481a2.078,2.078,0,0,1,2.939-2.939l11.371,11.37a1.136,1.136,0,1,0,1.6-1.609L69.3,96.66a2.078,2.078,0,0,1,2.939-2.939l4.645,4.645a1.136,1.136,0,1,0,1.6-1.609l-2.37-2.37a2.078,2.078,0,0,1,2.939-2.939l2.382,2.382s0,0,0,0l0,0,0,0,0,0h0a0,0,0,0,1,0,0,1.136,1.136,0,0,0,1.584-1.63l-.1-.1a2.078,2.078,0,0,1,2.9-2.977l8.509,9.352a10.215,10.215,0,0,1-.334,14.093Z" transform="translate(-55.153 -86.302)"/>
      </g>
    </g>
    <g id="组_4" data-name="组 4">
      <g id="组_3" data-name="组 3">
        <path id="路径_4" data-name="路径 4" d="M19.536,59.363A10.217,10.217,0,1,0,6.03,72.872,1.137,1.137,0,1,0,6.966,70.8a7.945,7.945,0,1,1,10.5-10.5,1.136,1.136,0,1,0,2.07-.936Z" transform="translate(0 -53.333)"/>
      </g>
    </g>
  </g>
</svg>
