<?xml version="1.0" encoding="utf-8"?>
<!-- Generator: Adobe Illustrator 24.3.0, SVG Export Plug-In . SVG Version: 6.00 Build 0)  -->
<svg version="1.1" id="Layer_1" xmlns="http://www.w3.org/2000/svg" xmlns:xlink="http://www.w3.org/1999/xlink" x="0px" y="0px"
	 width="50px" height="50px" viewBox="0 0 50 50" style="enable-background:new 0 0 50 50;" xml:space="preserve">
<style type="text/css">
	.st0{fill:url(#SVGID_1_);}
	.st1{fill:#F9CE32;}
	.st2{fill:url(#SVGID_2_);}
	.st3{fill:#F9AC12;}
	.st4{fill:#C67013;}
	.st5{filter:url(#Adobe_OpacityMaskFilter);}
	.st6{filter:url(#Adobe_OpacityMaskFilter_1_);}
	.st7{mask:url(#SVGID_3_);fill:url(#SVGID_4_);}
	.st8{fill:url(#SVGID_5_);}
</style>
<g>
	<linearGradient id="SVGID_1_" gradientUnits="userSpaceOnUse" x1="24.8707" y1="0.1026" x2="25.129" y2="49.8433">
		<stop  offset="0" style="stop-color:#FFF77D"/>
		<stop  offset="0.2819" style="stop-color:#FFC971"/>
		<stop  offset="0.5251" style="stop-color:#FFAF3D"/>
		<stop  offset="1" style="stop-color:#C67013"/>
	</linearGradient>
	<circle class="st0" cx="25" cy="25" r="25"/>
	<circle class="st1" cx="25" cy="25" r="24.1"/>
	<linearGradient id="SVGID_2_" gradientUnits="userSpaceOnUse" x1="25" y1="42.5443" x2="25" y2="7.2806">
		<stop  offset="0" style="stop-color:#FFE2AE"/>
		<stop  offset="2.702700e-02" style="stop-color:#FFF77D"/>
		<stop  offset="0.5251" style="stop-color:#FFAF3D"/>
		<stop  offset="1" style="stop-color:#C65C00"/>
	</linearGradient>
	<circle class="st2" cx="25" cy="25" r="17.8"/>
	<circle class="st3" cx="25" cy="25" r="17"/>
	<g>
		<g>
			<path class="st4" d="M30.6,21.2c-0.4-0.3-0.9-0.5-1.4-0.8c-0.4-0.2-0.9-0.4-1.5-0.6c-0.5-0.2-1.1-0.3-1.7-0.4V22
				c0.2,0,0.4,0.1,0.6,0.2c0.2,0.1,0.4,0.1,0.6,0.2c1,0.3,1.8,0.6,2.6,1c0.8,0.4,1.5,0.8,2,1.3c0.6,0.5,1,1.1,1.3,1.8
				c0.3,0.7,0.4,1.5,0.4,2.5c0,1.2-0.2,2.2-0.6,3c-0.4,0.8-0.9,1.5-1.6,2c-0.7,0.5-1.4,0.9-2.3,1.2c-0.9,0.3-1.7,0.4-2.6,0.5v3.6
				h-2.4v-3.7c-1.4-0.1-2.7-0.4-4.1-0.8c-1.3-0.4-2.6-0.9-3.6-1.6l2.5-5.1c0.5,0.3,1.1,0.7,1.7,1c0.5,0.3,1.1,0.5,1.8,0.8
				c0.7,0.2,1.4,0.4,2.1,0.5v-2.6c-0.6-0.2-1.2-0.3-1.8-0.6c-0.9-0.3-1.7-0.7-2.4-1c-0.7-0.4-1.2-0.8-1.7-1.2c-0.4-0.5-0.8-1-1-1.6
				c-0.2-0.6-0.3-1.3-0.3-2.1c0-1.1,0.2-2,0.5-2.8c0.4-0.8,0.8-1.5,1.5-2.1c0.6-0.6,1.3-1.1,2.2-1.4c0.8-0.4,1.7-0.6,2.6-0.7v-3h2.4
				v3c0.7,0.1,1.3,0.2,1.9,0.4c0.6,0.2,1.2,0.3,1.8,0.6c0.6,0.2,1.1,0.4,1.6,0.7c0.5,0.2,1,0.4,1.4,0.6L30.6,21.2z M23.3,20.3
				c0,0.3,0.1,0.5,0.3,0.7c0.2,0.2,0.5,0.4,0.9,0.5v-2.3C23.7,19.4,23.3,19.7,23.3,20.3z M27.4,29.5c0-0.3-0.1-0.5-0.4-0.7
				c-0.2-0.2-0.6-0.4-1-0.6v2.2c0.5,0,0.8-0.1,1-0.3C27.3,30,27.4,29.8,27.4,29.5z"/>
		</g>
		<g>
			<defs>
				<filter id="Adobe_OpacityMaskFilter" filterUnits="userSpaceOnUse" x="16.4" y="10.8" width="17.2" height="28.1">
					<feFlood  style="flood-color:white;flood-opacity:1" result="back"/>
					<feBlend  in="SourceGraphic" in2="back" mode="normal"/>
				</filter>
			</defs>
			<mask maskUnits="userSpaceOnUse" x="16.4" y="10.8" width="17.2" height="28.1" id="SVGID_3_">
				<g class="st5">
					<defs>
						<filter id="Adobe_OpacityMaskFilter_1_" filterUnits="userSpaceOnUse" x="16.4" y="10.8" width="17.2" height="28.1">
							<feFlood  style="flood-color:white;flood-opacity:1" result="back"/>
							<feBlend  in="SourceGraphic" in2="back" mode="normal"/>
						</filter>
					</defs>
					<mask maskUnits="userSpaceOnUse" x="16.4" y="10.8" width="17.2" height="28.1" id="SVGID_3_">
						<g class="st6">
						</g>
					</mask>
					<linearGradient id="SVGID_4_" gradientUnits="userSpaceOnUse" x1="25" y1="38.8476" x2="25" y2="10.7718">
						<stop  offset="0" style="stop-color:#CCCCCC"/>
						<stop  offset="1" style="stop-color:#FFFFFF"/>
					</linearGradient>
					<path class="st7" d="M30.6,20.8c-0.4-0.3-0.9-0.5-1.4-0.8c-0.4-0.2-0.9-0.4-1.5-0.6c-0.5-0.2-1.1-0.3-1.7-0.4v2.7
						c0.2,0,0.4,0.1,0.6,0.2c0.2,0.1,0.4,0.1,0.6,0.2c1,0.3,1.8,0.6,2.6,1c0.8,0.4,1.5,0.8,2,1.3c0.6,0.5,1,1.1,1.3,1.8
						c0.3,0.7,0.4,1.5,0.4,2.5c0,1.2-0.2,2.2-0.6,3c-0.4,0.8-0.9,1.5-1.6,2c-0.7,0.5-1.4,0.9-2.3,1.2c-0.9,0.3-1.7,0.4-2.6,0.5v3.6
						h-2.4v-3.7c-1.4-0.1-2.7-0.4-4.1-0.8c-1.3-0.4-2.6-0.9-3.6-1.6l2.5-5.1c0.5,0.3,1.1,0.7,1.7,1c0.5,0.3,1.1,0.5,1.8,0.8
						c0.7,0.2,1.4,0.4,2.1,0.5v-2.6c-0.6-0.2-1.2-0.3-1.8-0.6c-0.9-0.3-1.7-0.7-2.4-1c-0.7-0.4-1.2-0.8-1.7-1.2
						c-0.4-0.5-0.8-1-1-1.6c-0.2-0.6-0.3-1.3-0.3-2.1c0-1.1,0.2-2,0.5-2.8c0.4-0.8,0.8-1.5,1.5-2.1c0.6-0.6,1.3-1.1,2.2-1.4
						c0.8-0.4,1.7-0.6,2.6-0.7v-3h2.4v3c0.7,0.1,1.3,0.2,1.9,0.4c0.6,0.2,1.2,0.3,1.8,0.6c0.6,0.2,1.1,0.4,1.6,0.7
						c0.5,0.2,1,0.4,1.4,0.6L30.6,20.8z M23.3,19.9c0,0.3,0.1,0.5,0.3,0.7c0.2,0.2,0.5,0.4,0.9,0.5v-2.3
						C23.7,19,23.3,19.3,23.3,19.9z M27.4,29.1c0-0.3-0.1-0.5-0.4-0.7c-0.2-0.2-0.6-0.4-1-0.6V30c0.5,0,0.8-0.1,1-0.3
						C27.3,29.6,27.4,29.4,27.4,29.1z"/>
				</g>
			</mask>
			<linearGradient id="SVGID_5_" gradientUnits="userSpaceOnUse" x1="25" y1="38.8476" x2="25" y2="10.7718">
				<stop  offset="0" style="stop-color:#F9E732"/>
				<stop  offset="0.1215" style="stop-color:#F9CE32"/>
				<stop  offset="0.5016" style="stop-color:#F9EF32"/>
				<stop  offset="1" style="stop-color:#FFED46"/>
			</linearGradient>
			<path class="st8" d="M30.6,20.8c-0.4-0.3-0.9-0.5-1.4-0.8c-0.4-0.2-0.9-0.4-1.5-0.6c-0.5-0.2-1.1-0.3-1.7-0.4v2.7
				c0.2,0,0.4,0.1,0.6,0.2c0.2,0.1,0.4,0.1,0.6,0.2c1,0.3,1.8,0.6,2.6,1c0.8,0.4,1.5,0.8,2,1.3c0.6,0.5,1,1.1,1.3,1.8
				c0.3,0.7,0.4,1.5,0.4,2.5c0,1.2-0.2,2.2-0.6,3c-0.4,0.8-0.9,1.5-1.6,2c-0.7,0.5-1.4,0.9-2.3,1.2c-0.9,0.3-1.7,0.4-2.6,0.5v3.6
				h-2.4v-3.7c-1.4-0.1-2.7-0.4-4.1-0.8c-1.3-0.4-2.6-0.9-3.6-1.6l2.5-5.1c0.5,0.3,1.1,0.7,1.7,1c0.5,0.3,1.1,0.5,1.8,0.8
				c0.7,0.2,1.4,0.4,2.1,0.5v-2.6c-0.6-0.2-1.2-0.3-1.8-0.6c-0.9-0.3-1.7-0.7-2.4-1c-0.7-0.4-1.2-0.8-1.7-1.2c-0.4-0.5-0.8-1-1-1.6
				c-0.2-0.6-0.3-1.3-0.3-2.1c0-1.1,0.2-2,0.5-2.8c0.4-0.8,0.8-1.5,1.5-2.1c0.6-0.6,1.3-1.1,2.2-1.4c0.8-0.4,1.7-0.6,2.6-0.7v-3h2.4
				v3c0.7,0.1,1.3,0.2,1.9,0.4c0.6,0.2,1.2,0.3,1.8,0.6c0.6,0.2,1.1,0.4,1.6,0.7c0.5,0.2,1,0.4,1.4,0.6L30.6,20.8z M23.3,19.9
				c0,0.3,0.1,0.5,0.3,0.7c0.2,0.2,0.5,0.4,0.9,0.5v-2.3C23.7,19,23.3,19.3,23.3,19.9z M27.4,29.1c0-0.3-0.1-0.5-0.4-0.7
				c-0.2-0.2-0.6-0.4-1-0.6V30c0.5,0,0.8-0.1,1-0.3C27.3,29.6,27.4,29.4,27.4,29.1z"/>
		</g>
	</g>
</g>
</svg>
