<?xml version="1.0" encoding="utf-8"?>
<!-- Generator: Adobe Illustrator 26.0.3, SVG Export Plug-In . SVG Version: 6.00 Build 0)  -->
<svg version="1.1" id="圖層_1" xmlns="http://www.w3.org/2000/svg" xmlns:xlink="http://www.w3.org/1999/xlink" x="0px" y="0px"
	 width="50px" height="50px" viewBox="0 0 50 50" style="enable-background:new 0 0 50 50;" xml:space="preserve">
<style type="text/css">
	.st0{fill:#FFFFFF;}
</style>
<g>
	<path class="st0" d="M25,0C11.2,0,0,11.2,0,25c0,13.8,11.2,25,25,25c6.6,0,13-2.6,17.7-7.3C47.4,38,50,31.6,50,25
		C50,11.2,38.8,0,25,0z M25,46.6C13.1,46.5,3.5,36.9,3.5,25C3.5,13.1,13.1,3.5,25,3.5c5.7,0,11.2,2.3,15.2,6.3c4,4,6.3,9.5,6.3,15.2
		C46.5,37,36.9,46.6,25,46.6z"/>
	<path class="st0" d="M28.2,25l6.8-6.8c0.8-0.9,0.8-2.2,0-3c-0.8-0.9-2.2-0.9-3.1-0.1L25,21.9l-6.8-6.8c-0.9-0.8-2.2-0.8-3,0
		c-0.9,0.8-0.9,2.2-0.1,3.1l6.8,6.8l-6.8,6.8c-0.9,0.9-0.9,2.3,0,3.1c0.4,0.4,1,0.7,1.6,0.7h0c0.6,0,1.2-0.2,1.6-0.7l6.8-6.8
		l6.8,6.8c0.4,0.4,1,0.7,1.6,0.7v0c0.6,0,1.2-0.2,1.6-0.7c0.9-0.9,0.9-2.3,0-3.1L28.2,25z"/>
</g>
</svg>
