<?xml version="1.0" encoding="utf-8"?>
<!-- Generator: Adobe Illustrator 24.3.0, SVG Export Plug-In . SVG Version: 6.00 Build 0)  -->
<svg version="1.1" id="圖層_1" xmlns="http://www.w3.org/2000/svg" xmlns:xlink="http://www.w3.org/1999/xlink" x="0px" y="0px"
	 width="50px" height="50px" viewBox="0 0 50 50" style="enable-background:new 0 0 50 50;" xml:space="preserve">
<style type="text/css">
	.st0{fill:#FFFFFF;}
</style>
<path class="st0" d="M24.9,0C12.3,0,1.9,9.2,0,21.1c0,0.3,0.2,0.6,0.2,0.6L0.7,22h17.9l0.6-0.3l0.3-0.5v-7.8c0,0,0,0,0-0.1
	s0-0.2,0-0.3v-0.1c0-0.1,0.1-0.2,0.1-0.3v-0.1c0-0.1,0.1-0.2,0.1-0.3c0,0,0-0.1,0.1-0.1c0,0,0-0.1,0.1-0.1l0,0l0.1-0.1
	c0,0,0,0,0.1-0.1s0.2-0.1,0.2-0.2c0,0,0,0,0.1-0.1s0.2-0.1,0.3-0.1h0.1c0.1,0,0.2-0.1,0.3-0.1h0.1c0.1,0,0.2,0,0.3,0h0.1
	c0,0,0,0,0.1,0s0.2,0,0.3,0h0.1c0.1,0,0.2,0,0.3,0.1c0,0,0.1,0,0.1,0.1c0.1,0,0.1,0.1,0.2,0.1l0.1,0.1c0,0,0.1,0,0.1,0.1l14.9,11.7
	c0.5,0.4,0.8,1,0.8,1.5c0,0.1,0,0.1,0,0.2s0,0.1,0,0.2c0,0.6-0.3,1.1-0.8,1.5l-15,11.6c0,0,0,0-0.1,0s-0.1,0.1-0.2,0.1
	s-0.1,0.1-0.2,0.1s-0.1,0-0.2,0.1c-0.1,0-0.1,0-0.2,0.1c-0.1,0-0.1,0-0.2,0s-0.1,0-0.2,0c0,0,0,0-0.1,0h-0.1c-0.1,0-0.2,0-0.2,0
	c-0.1,0-0.1,0-0.2,0s-0.2,0-0.2-0.1c0,0-0.1,0-0.1-0.1c-0.1,0-0.2-0.1-0.2-0.1s-0.1,0-0.1-0.1c-0.1-0.1-0.1-0.1-0.2-0.2L20,38.2
	l-0.1-0.1l0,0c0,0,0-0.1-0.1-0.1c0,0,0-0.1-0.1-0.1c0-0.1-0.1-0.2-0.1-0.2v-0.1c0-0.1-0.1-0.2-0.1-0.3v-0.1c0-0.1,0-0.2,0-0.3
	c0,0,0,0,0-0.1v-7.7l-0.3-0.7l-0.5-0.3h-18l-0.4,0.2C0,28.7,0,28.8,0,29.1C2,41,12.4,50,24.9,50C38.7,50,50,38.8,50,25
	S38.7,0,24.9,0z"/>
</svg>
