<?xml version="1.0" encoding="utf-8"?>
<!-- Generator: Adobe Illustrator 16.0.0, SVG Export Plug-In . SVG Version: 6.00 Build 0)  -->
<!DOCTYPE svg PUBLIC "-//W3C//DTD SVG 1.1//EN" "http://www.w3.org/Graphics/SVG/1.1/DTD/svg11.dtd" [
	<!ENTITY ns_flows "http://ns.adobe.com/Flows/1.0/">
	<!ENTITY ns_extend "http://ns.adobe.com/Extensibility/1.0/">
	<!ENTITY ns_ai "http://ns.adobe.com/AdobeIllustrator/10.0/">
	<!ENTITY ns_graphs "http://ns.adobe.com/Graphs/1.0/">
	<!ENTITY ns_vars "http://ns.adobe.com/Variables/1.0/">
	<!ENTITY ns_imrep "http://ns.adobe.com/ImageReplacement/1.0/">
	<!ENTITY ns_sfw "http://ns.adobe.com/SaveForWeb/1.0/">
	<!ENTITY ns_custom "http://ns.adobe.com/GenericCustomNamespace/1.0/">
	<!ENTITY ns_adobe_xpath "http://ns.adobe.com/XPath/1.0/">
]>
<svg version="1.1" id="圖層_1" xmlns:x="&ns_extend;" xmlns:i="&ns_ai;" xmlns:graph="&ns_graphs;"
	 xmlns="http://www.w3.org/2000/svg" xmlns:xlink="http://www.w3.org/1999/xlink" xmlns:a="http://ns.adobe.com/AdobeSVGViewerExtensions/3.0/"
	 x="0px" y="0px" width="20px" height="20px" viewBox="0 0 20 20" style="enable-background:new 0 0 20 20;" xml:space="preserve">
<style type="text/css">
<![CDATA[
	.st0{fill:#2B7AC0;}
]]>
</style>
<metadata>
	<sfw  xmlns="&ns_sfw;">
		<slices></slices>
		<sliceSourceBounds  height="8.6" width="5.7" y="21.2" x="21.7" bottomLeftOrigin="true"></sliceSourceBounds>
	</sfw>
</metadata>
<g>
	<path class="st0" d="M7.2,11.9l1.1-0.1c0.1,0.5,0.3,0.9,0.6,1.2s0.7,0.4,1.1,0.4c0.5,0,0.9-0.2,1.3-0.6s0.5-0.9,0.5-1.5
		c0-0.6-0.2-1.1-0.5-1.4s-0.8-0.5-1.3-0.5C9.6,9.4,9.2,9.5,9,9.6S8.5,10,8.3,10.2l-1-0.1l0.8-4.4h4.3v1H9L8.6,9
		c0.5-0.4,1.1-0.5,1.6-0.5c0.8,0,1.4,0.3,1.9,0.8s0.8,1.2,0.8,2c0,0.8-0.2,1.4-0.7,2c-0.6,0.7-1.3,1-2.3,1c-0.8,0-1.4-0.2-1.9-0.7
		S7.2,12.6,7.2,11.9z"/>
</g>
</svg>
