<?xml version="1.0" encoding="utf-8"?>
<!-- Generator: Adobe Illustrator 22.0.1, SVG Export Plug-In . SVG Version: 6.00 Build 0)  -->
<svg version="1.1" id="圖層_1" xmlns="http://www.w3.org/2000/svg" xmlns:xlink="http://www.w3.org/1999/xlink" x="0px" y="0px"
	 width="50px" height="50px" viewBox="0 0 50 50" style="enable-background:new 0 0 50 50;" xml:space="preserve">
<style type="text/css">
	.st0{fill:#FFFFFF;}
</style>
<path class="st0" d="M49.2,42c-0.1-4.2-3-7.8-7-8.9V21.7c-0.2-7.4-5-13.7-11.6-16l0,0C30.6,2.5,28,0,24.9,0s-5.7,2.5-5.7,5.7v0.1
	C12.7,8.1,7.9,14.3,7.8,21.7v11.5c-4.1,1-7,4.7-7,8.9v1.5H16c1.3,3.7,4.9,6.3,8.9,6.4H25c4.1,0,7.6-2.6,8.8-6.4H49L49.2,42z
	 M30.3,43.6c-1.1,1.9-3.1,3.2-5.4,3.2s-4.3-1.3-5.4-3.2H30.3z M13.7,36.1v-3.2h-2.9V21.7c0-7.8,6.3-14,14.1-14c7.7,0,14,6.3,14.1,14
	v11.2H17.9v3.2h23.4l0,0c2.1,0.6,3.8,2.3,4.4,4.4H4.1c0.6-2.3,2.4-4,4.7-4.5v0.1C8.8,36.1,13.7,36.1,13.7,36.1z M24.9,3.2
	C26,3.2,27,4,27.3,5c-0.7-0.1-1.4-0.2-2.1-0.2H25c-0.9,0-1.7,0.1-2.5,0.2C22.8,3.9,23.7,3.2,24.9,3.2z"/>
</svg>
