<?xml version="1.0" encoding="utf-8"?>
<!-- Generator: Adobe Illustrator 22.0.1, SVG Export Plug-In . SVG Version: 6.00 Build 0)  -->
<svg version="1.1" id="Capa_1" xmlns="http://www.w3.org/2000/svg" xmlns:xlink="http://www.w3.org/1999/xlink" x="0px" y="0px"
	 width="50px" height="50px" viewBox="0 0 50 50" style="enable-background:new 0 0 50 50;" xml:space="preserve">
<style type="text/css">
	.st0{fill:#FFFFFF;}
</style>
<g>
	<path class="st0" d="M48.1,30.2c-1.1,0-1.9,0.9-1.9,1.9v11.5c0,1.1-0.9,1.9-1.9,1.9H5.8c-1.1,0-1.9-0.9-1.9-1.9V32.1
		c0-1.1-0.9-1.9-1.9-1.9c-1.1,0-1.9,0.9-1.9,1.9v11.5c0,3.2,2.6,5.8,5.8,5.8h38.5c3.2,0,5.8-2.6,5.8-5.8V32.1
		C50,31.1,49.1,30.2,48.1,30.2z"/>
	<path class="st0" d="M23.6,41.2c0.8,0.8,2,0.8,2.7,0c0,0,0,0,0,0l9.6-9.6c0.7-0.8,0.7-2,0-2.7c-0.7-0.7-1.9-0.7-2.7,0l-6.3,6.3
		v-8.7V5.8V2.5c0-1.1-0.9-1.9-1.9-1.9c-1.1,0-1.9,0.9-1.9,1.9v3.3v20.6v8.7l-6.3-6.3c-0.8-0.7-2-0.7-2.7,0c-0.7,0.7-0.7,1.9,0,2.7
		L23.6,41.2z"/>
</g>
</svg>
