<?xml version="1.0" encoding="utf-8"?>
<!-- Generator: Adobe Illustrator 24.3.0, SVG Export Plug-In . SVG Version: 6.00 Build 0)  -->
<svg version="1.1" id="圖層_1" xmlns="http://www.w3.org/2000/svg" xmlns:xlink="http://www.w3.org/1999/xlink" x="0px" y="0px"
	 width="50px" height="50px" viewBox="0 0 50 50" style="enable-background:new 0 0 50 50;" xml:space="preserve">
<style type="text/css">
	.st0{fill:#FFFFFF;}
</style>
<path class="st0" d="M42.7,7.3c-9.8-9.8-25.6-9.8-35.4,0s-9.8,25.5,0,35.3s25.6,9.8,35.4,0C52.4,32.9,52.4,17.1,42.7,7.3z
	 M28.7,38.4c0,2-1.7,3.7-3.7,3.7s-3.7-1.7-3.7-3.7v-9.7h-9.7C9.6,28.7,8,27,8,25s1.7-3.7,3.7-3.7h9.7v-9.7C21.3,9.6,23,8,25,8
	s3.7,1.7,3.7,3.7v9.7h9.7c2,0,3.7,1.7,3.7,3.7s-1.7,3.7-3.7,3.7h-9.7V38.4z"/>
</svg>
