<?xml version="1.0" encoding="utf-8"?>
<!-- Generator: Adobe Illustrator 22.0.1, SVG Export Plug-In . SVG Version: 6.00 Build 0)  -->
<svg version="1.1" id="Capa_1" xmlns="http://www.w3.org/2000/svg" xmlns:xlink="http://www.w3.org/1999/xlink" x="0px" y="0px"
	 width="50px" height="50px" viewBox="0 0 50 50" style="enable-background:new 0 0 50 50;" xml:space="preserve">
<style type="text/css">
	.st0{fill:#FFFFFF;}
</style>
<g>
	<path class="st0" d="M0,45c0,0.7,0.4,1.2,0.9,1.4c0.1,0,0.2,0,0.3,0c0.4,0,0.9-0.3,1.1-0.7C8.7,32.6,20.7,32,28.6,31.9v9.5
		c0,0.6,0.3,1.1,0.7,1.3c0.4,0.2,1,0.2,1.3-0.2l18.9-18.2c0.3-0.3,0.4-0.7,0.4-1.1c0-0.4-0.2-0.8-0.5-1.1L30.6,3.9
		c-0.4-0.4-0.9-0.4-1.3-0.2c-0.4,0.2-0.7,0.8-0.7,1.3v9.5C16.5,15,9.7,21.1,6.1,26.3C1.6,32.6,0,40.1,0,45z M3.2,39.3
		c2-9,8.7-21.7,26.7-21.9c0.7,0,1.2-0.7,1.2-1.5V8.1l15.7,15.1L31.1,38.3v-7.8c0-0.4-0.1-0.8-0.4-1c-0.2-0.3-0.6-0.4-0.9-0.4l0,0
		C22.5,29,10.9,29,3.2,39.3z"/>
</g>
</svg>
