<?xml version="1.0" encoding="utf-8"?>
<!-- Generator: Adobe Illustrator 16.0.0, SVG Export Plug-In . SVG Version: 6.00 Build 0)  -->
<!DOCTYPE svg PUBLIC "-//W3C//DTD SVG 1.1//EN" "http://www.w3.org/Graphics/SVG/1.1/DTD/svg11.dtd" [
	<!ENTITY ns_flows "http://ns.adobe.com/Flows/1.0/">
	<!ENTITY ns_extend "http://ns.adobe.com/Extensibility/1.0/">
	<!ENTITY ns_ai "http://ns.adobe.com/AdobeIllustrator/10.0/">
	<!ENTITY ns_graphs "http://ns.adobe.com/Graphs/1.0/">
	<!ENTITY ns_vars "http://ns.adobe.com/Variables/1.0/">
	<!ENTITY ns_imrep "http://ns.adobe.com/ImageReplacement/1.0/">
	<!ENTITY ns_sfw "http://ns.adobe.com/SaveForWeb/1.0/">
	<!ENTITY ns_custom "http://ns.adobe.com/GenericCustomNamespace/1.0/">
	<!ENTITY ns_adobe_xpath "http://ns.adobe.com/XPath/1.0/">
]>
<svg version="1.1" id="圖層_1" xmlns:x="&ns_extend;" xmlns:i="&ns_ai;" xmlns:graph="&ns_graphs;"
	 xmlns="http://www.w3.org/2000/svg" xmlns:xlink="http://www.w3.org/1999/xlink" xmlns:a="http://ns.adobe.com/AdobeSVGViewerExtensions/3.0/"
	 x="0px" y="0px" width="20px" height="20px" viewBox="0 0 20 20" style="enable-background:new 0 0 20 20;" xml:space="preserve">
<style type="text/css">
<![CDATA[
	.st0{fill:#2B7AC0;}
]]>
</style>
<metadata>
	<sfw  xmlns="&ns_sfw;">
		<slices></slices>
		<sliceSourceBounds  height="8.8" width="5.6" y="21.1" x="21.7" bottomLeftOrigin="true"></sliceSourceBounds>
	</sfw>
</metadata>
<g>
	<path class="st0" d="M7.3,12.3l1-0.1c0.1,0.5,0.3,0.8,0.5,1s0.6,0.3,0.9,0.3c0.3,0,0.6-0.1,0.9-0.2s0.4-0.3,0.6-0.6s0.3-0.6,0.4-1
		s0.2-0.9,0.2-1.3c0,0,0-0.1,0-0.2c-0.2,0.3-0.5,0.6-0.9,0.8s-0.8,0.3-1.2,0.3c-0.7,0-1.3-0.3-1.8-0.8s-0.7-1.2-0.7-2
		c0-0.9,0.3-1.6,0.8-2.1s1.2-0.8,1.9-0.8c0.6,0,1.1,0.2,1.5,0.5s0.8,0.7,1.1,1.3s0.4,1.4,0.4,2.4c0,1.1-0.1,2-0.4,2.6
		s-0.6,1.1-1.1,1.5s-1,0.5-1.7,0.5c-0.7,0-1.2-0.2-1.6-0.6S7.4,12.9,7.3,12.3z M11.7,8.5c0-0.6-0.2-1.1-0.5-1.4S10.5,6.5,10,6.5
		c-0.5,0-0.9,0.2-1.2,0.6S8.3,7.9,8.3,8.5c0,0.5,0.2,1,0.5,1.3s0.7,0.5,1.2,0.5c0.5,0,0.9-0.2,1.2-0.5S11.7,9.1,11.7,8.5z"/>
</g>
</svg>
