<?xml version="1.0" encoding="utf-8"?>
<!-- Generator: Adobe Illustrator 26.0.3, SVG Export Plug-In . SVG Version: 6.00 Build 0)  -->
<svg version="1.1" id="圖層_1" xmlns="http://www.w3.org/2000/svg" xmlns:xlink="http://www.w3.org/1999/xlink" x="0px" y="0px"
	 width="175px" height="70px" viewBox="0 0 175 70" style="enable-background:new 0 0 175 70;" xml:space="preserve">
<style type="text/css">
	.st0{fill:#FFFFFF;}
	.st1{fill:#52A9F8;}
</style>
<path class="st0" d="M13.4,16.5l0.6-2.6c2.6-1.1,4.6-2.3,6-3.8h1.8l-3.2,14.8h-3l2.2-10.2c-0.6,0.4-1.3,0.7-2.1,1.1
	C14.8,16.1,14.1,16.3,13.4,16.5z"/>
<path class="st0" d="M51.4,14.8l-2.9-0.4c0.3-1.4,0.8-2.5,1.7-3.2c0.9-0.7,1.9-1.1,3.2-1.1c1.4,0,2.5,0.4,3.3,1.1
	c0.8,0.7,1.3,1.7,1.3,2.9c0,0.9-0.3,1.8-0.9,2.7c-0.5,0.7-1.4,1.6-2.8,2.9c-1.3,1.1-2.2,2-2.6,2.6h5.3l-0.6,2.6h-9.3
	c0.2-1.1,0.6-2.1,1.3-3.1c0.5-0.7,1.6-1.8,3.4-3.5c1.3-1.2,2.2-2,2.5-2.5c0.5-0.6,0.7-1.2,0.7-1.7s-0.2-0.9-0.5-1.2
	c-0.3-0.3-0.7-0.4-1.1-0.4C52.4,12.4,51.7,13.2,51.4,14.8z"/>
<path class="st0" d="M82.1,20.9l2.9-0.3c0.1,0.8,0.3,1.3,0.6,1.6c0.3,0.3,0.7,0.5,1.2,0.5c0.7,0,1.2-0.2,1.7-0.6
	c0.5-0.4,0.7-1,0.7-1.7c0-0.6-0.2-1.1-0.6-1.5c-0.4-0.3-0.9-0.5-1.5-0.5c-0.1,0-0.3,0-0.5,0l0.5-2.4l0.3,0c0.8,0,1.4-0.2,1.8-0.6
	c0.4-0.4,0.6-0.9,0.6-1.6c0-0.5-0.1-0.9-0.4-1.1c-0.3-0.3-0.7-0.4-1.1-0.4c-0.9,0-1.6,0.7-2,2l-2.7-0.5c0.4-1.2,0.9-2,1.6-2.6
	c0.9-0.8,2-1.2,3.3-1.2c1.3,0,2.3,0.3,3.1,1c0.8,0.7,1.2,1.6,1.2,2.8c0,0.8-0.2,1.5-0.7,2.1c-0.5,0.6-1.1,1-1.9,1.3
	c0.6,0.3,1.1,0.7,1.4,1.2c0.3,0.5,0.5,1.1,0.5,1.7c0,1.2-0.5,2.2-1.4,3.2c-1.1,1.1-2.4,1.7-4.1,1.7c-1.3,0-2.3-0.3-3.2-1
	C82.8,23.3,82.3,22.3,82.1,20.9z"/>
<path class="st0" d="M122.8,21.8h-6l0.5-2.4l8.3-9.3h2.6l-2,9.2h1.9l-0.5,2.4h-1.9l-0.7,3h-2.8L122.8,21.8z M123.4,19.4l1-4.6
	l-4,4.6H123.4z"/>
<path class="st0" d="M152,20.4l2.9-0.3l0,0.3c0,0.7,0.2,1.2,0.5,1.5c0.3,0.3,0.7,0.5,1.2,0.5c0.7,0,1.4-0.3,1.9-1
	c0.6-0.6,0.9-1.5,0.9-2.7c0-0.7-0.2-1.2-0.5-1.6c-0.3-0.3-0.8-0.5-1.3-0.5c-0.4,0-0.8,0.1-1.1,0.3c-0.4,0.2-0.7,0.4-1.1,0.8
	l-2.5-0.2l2.3-7.5h7.7l-0.6,2.6h-5.1l-0.7,2.3c0.3-0.1,0.6-0.2,0.9-0.3c0.3-0.1,0.6-0.1,0.9-0.1c1.1,0,2.1,0.4,2.8,1.1
	c0.8,0.7,1.1,1.8,1.1,3.1c0,1.1-0.3,2.2-0.9,3.1c-0.6,1-1.3,1.7-2.2,2.2c-0.9,0.5-1.8,0.7-2.8,0.7c-1.3,0-2.3-0.4-3.2-1.2
	C152.4,22.9,152,21.8,152,20.4z"/>
<path class="st1" d="M13.4,51.5l0.6-2.6c2.6-1.1,4.6-2.3,6-3.8h1.8l-3.2,14.8h-3l2.2-10.2c-0.6,0.4-1.3,0.7-2.1,1.1
	C14.8,51.1,14.1,51.3,13.4,51.5z"/>
<path class="st1" d="M51.4,49.8l-2.9-0.4c0.3-1.4,0.8-2.5,1.7-3.2c0.9-0.7,1.9-1.1,3.2-1.1c1.4,0,2.5,0.4,3.3,1.1
	c0.8,0.7,1.3,1.7,1.3,2.9c0,0.9-0.3,1.8-0.9,2.7c-0.5,0.7-1.4,1.6-2.8,2.9c-1.3,1.1-2.2,2-2.6,2.6h5.3l-0.6,2.6h-9.3
	c0.2-1.1,0.6-2.1,1.3-3.1c0.5-0.7,1.6-1.8,3.4-3.5c1.3-1.2,2.2-2,2.5-2.5c0.5-0.6,0.7-1.2,0.7-1.7c0-0.5-0.2-0.9-0.5-1.2
	c-0.3-0.3-0.7-0.4-1.1-0.4C52.4,47.4,51.7,48.2,51.4,49.8z"/>
<path class="st1" d="M82.1,55.9l2.9-0.3c0.1,0.8,0.3,1.3,0.6,1.6c0.3,0.3,0.7,0.5,1.2,0.5c0.7,0,1.2-0.2,1.7-0.6
	c0.5-0.4,0.7-1,0.7-1.7c0-0.6-0.2-1.1-0.6-1.5c-0.4-0.3-0.9-0.5-1.5-0.5c-0.1,0-0.3,0-0.5,0l0.5-2.4l0.3,0c0.8,0,1.4-0.2,1.8-0.6
	c0.4-0.4,0.6-0.9,0.6-1.6c0-0.5-0.1-0.9-0.4-1.1c-0.3-0.3-0.7-0.4-1.1-0.4c-0.9,0-1.6,0.7-2,2l-2.7-0.5c0.4-1.2,0.9-2,1.6-2.6
	c0.9-0.8,2-1.2,3.3-1.2c1.3,0,2.3,0.3,3.1,1c0.8,0.7,1.2,1.6,1.2,2.8c0,0.8-0.2,1.5-0.7,2.1c-0.5,0.6-1.1,1-1.9,1.3
	c0.6,0.3,1.1,0.7,1.4,1.2c0.3,0.5,0.5,1.1,0.5,1.7c0,1.2-0.5,2.2-1.4,3.2c-1.1,1.1-2.4,1.7-4.1,1.7c-1.3,0-2.3-0.3-3.2-1
	C82.8,58.3,82.3,57.3,82.1,55.9z"/>
<path class="st1" d="M122.8,56.8h-6l0.5-2.4l8.3-9.3h2.6l-2,9.2h1.9l-0.5,2.4h-1.9l-0.7,3h-2.8L122.8,56.8z M123.4,54.4l1-4.6
	l-4,4.6H123.4z"/>
<path class="st1" d="M152,55.4l2.9-0.3l0,0.3c0,0.7,0.2,1.2,0.5,1.5c0.3,0.3,0.7,0.5,1.2,0.5c0.7,0,1.4-0.3,1.9-1
	c0.6-0.6,0.9-1.5,0.9-2.7c0-0.7-0.2-1.2-0.5-1.6c-0.3-0.3-0.8-0.5-1.3-0.5c-0.4,0-0.8,0.1-1.1,0.3c-0.4,0.2-0.7,0.4-1.1,0.8
	l-2.5-0.2l2.3-7.5h7.7l-0.6,2.6h-5.1l-0.7,2.3c0.3-0.1,0.6-0.2,0.9-0.3c0.3-0.1,0.6-0.1,0.9-0.1c1.1,0,2.1,0.4,2.8,1.1
	c0.8,0.7,1.1,1.8,1.1,3.1c0,1.1-0.3,2.2-0.9,3.1c-0.6,1-1.3,1.7-2.2,2.2c-0.9,0.5-1.8,0.7-2.8,0.7c-1.3,0-2.3-0.4-3.2-1.2
	C152.4,57.9,152,56.8,152,55.4z"/>
</svg>
