<?xml version="1.0" encoding="utf-8"?>
<!-- Generator: Adobe Illustrator 22.0.1, SVG Export Plug-In . SVG Version: 6.00 Build 0)  -->
<svg version="1.1" id="Layer_1" xmlns="http://www.w3.org/2000/svg" xmlns:xlink="http://www.w3.org/1999/xlink" x="0px" y="0px"
	 width="50px" height="50px" viewBox="0 0 50 50" style="enable-background:new 0 0 50 50;" xml:space="preserve">
<style type="text/css">
	.st0{fill:#FFFFFF;}
</style>
<g>
	<path class="st0" d="M22,36.8l-6.5,6.5c-1.2,1.2-2.7,1.8-4.4,1.8c-1.7,0-3.2-0.7-4.4-1.8c-2.4-2.4-2.4-6.4,0-8.8l11.1-11.1
		c1.2-1.2,2.7-1.8,4.4-1.8s3.2,0.6,4.4,1.8c0.5,0.4,1.1,0.7,1.7,0.7s1.3-0.2,1.7-0.7c0.4-0.4,0.7-1,0.7-1.5c0.1-0.7-0.2-1.4-0.7-1.9
		c-0.6-0.6-1.2-1.1-1.9-1.5c-1.8-1.1-3.9-1.8-6-1.8h0c-1.5,0-2.9,0.3-4.2,0.8c-1.4,0.6-2.6,1.4-3.6,2.4l-11,11c-1,1-1.8,2.2-2.4,3.6
		C0.3,36,0,37.4,0,38.9c0,3,1.2,5.8,3.3,7.9c2.1,2.1,4.9,3.3,7.9,3.3h0c1.5,0,2.9-0.3,4.2-0.8c1.4-0.6,2.6-1.4,3.6-2.4l8.8-8.8h0
		C25.8,37.9,23.8,37.5,22,36.8z"/>
	<path class="st0" d="M46.7,3.3C44.6,1.2,41.8,0,38.9,0c-3,0-5.8,1.2-7.9,3.3l-8.8,8.8h0c2,0,4,0.4,5.8,1.1l6.5-6.5
		c1.2-1.2,2.7-1.8,4.4-1.8c1.7,0,3.2,0.6,4.4,1.8c2.4,2.4,2.4,6.4,0,8.8l-8.1,8.1l-0.1,0.1l0,0l0,0l-2.8,2.8
		c-1.2,1.2-2.7,1.8-4.4,1.8c-1.7,0-3.2-0.6-4.4-1.8c-0.5-0.4-1.1-0.7-1.7-0.7c-0.6,0-1.3,0.2-1.7,0.7c-0.4,0.4-0.7,1-0.7,1.6
		c0,0.7,0.2,1.4,0.7,1.9c0.9,0.9,2,1.7,3.2,2.2c0.1,0.1,0.2,0.1,0.3,0.1c0.1,0,0.1,0.1,0.2,0.1c0.1,0,0.2,0.1,0.3,0.1
		c0.1,0,0.1,0.1,0.2,0.1c0.1,0.1,0.3,0.1,0.5,0.2l0.5,0.1c0.3,0.1,0.6,0.1,1,0.2c0.4,0.1,0.8,0.1,1.1,0.1h0.6l0.5-0.1h0h0
		c0,0,0.1,0,0.2,0c0.1,0,0.3,0,0.5,0h0.2l0.5-0.1L30,33l0.5-0.1l0.1,0h0.1c1.9-0.5,3.6-1.5,5-2.9l11-11c2.1-2.1,3.3-4.9,3.3-7.9
		S48.8,5.4,46.7,3.3z"/>
</g>
</svg>
