<?xml version="1.0" encoding="utf-8"?>
<!-- Generator: Adobe Illustrator 26.0.3, SVG Export Plug-In . SVG Version: 6.00 Build 0)  -->
<svg version="1.1" id="圖層_1" xmlns="http://www.w3.org/2000/svg" xmlns:xlink="http://www.w3.org/1999/xlink" x="0px" y="0px"
	 width="50px" height="50px" viewBox="0 0 50 50" style="enable-background:new 0 0 50 50;" xml:space="preserve">
<style type="text/css">
	.st0{fill:#FFFFFF;}
</style>
<g>
	<path class="st0" d="M22.2,36.7v-2.5c1.8-0.1,3.2-0.7,4.3-1.9c1.2-1.2,1.7-2.7,1.7-4.4c0-0.9-0.1-1.6-0.4-2.3s-0.7-1.3-1.2-1.8
		s-1.1-0.9-1.9-1.3c-0.3-0.2-1.2-0.3-2.5-0.7v-7.4c0.9,0.2,1.5,0.6,2,1.1s0.7,1.3,0.9,2.3l2.6-0.4c-0.2-1.6-0.9-2.9-2-3.8
		c-0.9-0.8-2.1-1.1-3.5-1.3v-1.2h-1.5v1.2c-1.6,0.2-3,0.7-3.8,1.4c-1.3,1.2-1.9,2.6-1.9,4.4c0,1,0.1,2,0.6,2.8s1.1,1.4,1.9,1.9
		c1.1,0.6,2.1,1,3.2,1.2v8.1c-1-0.1-1.8-0.6-2.5-1.5c-0.6-0.7-0.9-1.6-1.1-3l-2.5,0.5c0.1,1.3,0.4,2.4,1,3.3c0.7,0.9,1.3,1.5,2.1,2
		c0.8,0.4,1.8,0.6,3.1,0.8v2.5H22.2z M22.3,24.3c1.4,0.4,2.2,1,2.7,1.5c0.4,0.7,0.7,1.4,0.7,2.3c0,1.1-0.4,2-1,2.7
		c-0.6,0.8-1.4,1.2-2.4,1.3C22.3,32.1,22.3,24.3,22.3,24.3z M18.4,20.3c-0.4-0.6-0.7-1.3-0.7-2.2c0-1,0.3-1.7,0.8-2.3
		c0.5-0.7,1.3-1,2.3-1.2v7.1C19.7,21.4,18.9,20.8,18.4,20.3z"/>
	<path class="st0" d="M2.4,24c0-10.5,8.6-19,19-19c10,0,18.2,7.8,18.9,17.6h2.4c-0.4-5.2-2.5-10-6.2-13.6c-4-4.1-9.3-6.4-15.1-6.4
		c-5.7,0-11.1,2.3-15.1,6.3C2.3,13,0,18.3,0,24s2.3,11.1,6.3,15.1c4.1,4.1,9.4,6.3,15.1,6.3c3.3,0,6.5-0.8,9.4-2.2v-2.6
		c-2.8,1.6-6,2.5-9.4,2.5C10.9,43.1,2.4,34.5,2.4,24z"/>
	<polygon class="st0" points="48.1,37.2 42.8,42.4 42.8,25.1 40.1,25.1 40.1,42 35.3,37.2 33.3,39.1 41.7,47.4 50,39.1 	"/>
</g>
</svg>
