<?xml version="1.0" encoding="utf-8"?>
<!-- Generator: Adobe Illustrator 22.0.1, SVG Export Plug-In . SVG Version: 6.00 Build 0)  -->
<svg version="1.1" id="Capa_1" xmlns="http://www.w3.org/2000/svg" xmlns:xlink="http://www.w3.org/1999/xlink" x="0px" y="0px"
	 width="50px" height="50px" viewBox="0 0 50 50" style="enable-background:new 0 0 50 50;" xml:space="preserve">
<style type="text/css">
	.st0{fill:#FF9000;}
</style>
<g>
	<g>
		<path class="st0" d="M48.8,11.2L48.8,11.2c-2.3-5.1-7.4-8.5-13-8.5C33,2.7,30.3,3.5,28,5c-1.9,1.2-3.5,2.9-4.6,4.8
			c-2.5-2.1-5.7-3.3-9.1-3.3c-5.6,0-10.8,3.3-13,8.5l0,0C0.4,16.8,0,18.8,0,20.8c0,2,0.4,4,1.2,5.8c0,0,0,0,0,0
			c2,4.6,6.3,7.7,11.2,8.4c0.7,2.8,2.2,5.4,4.3,7.5c2.5,2.5,5.8,4.2,9.4,4.7c0.7,0.1,1.5,0.2,2.2,0.2c2.7,0,5.4-0.7,7.8-2
			c0.5-0.3,0.7-0.8,0.4-1.3c-0.3-0.5-0.8-0.7-1.3-0.4c-5.6,3-12.6,2-17.1-2.5c-2.7-2.7-4.2-6.4-4.2-10.2s1.5-7.5,4.2-10.2
			c5.7-5.7,14.8-5.7,20.5,0c4.5,4.5,5.5,11.6,2.5,17.2c-0.3,0.5-0.1,1.1,0.4,1.3c0.5,0.3,1.1,0.1,1.3-0.4c1.7-3.1,2.3-6.6,1.8-10.1
			c0-0.1,0-0.3-0.1-0.4c1.8-1.4,3.3-3.3,4.2-5.4C49.6,21,50,19,50,17C50,15,49.6,13,48.8,11.2L48.8,11.2z M14.3,8.5
			c4.3,0,8.3,2.3,10.5,5.9H3.7C5.9,10.8,9.9,8.5,14.3,8.5z M3.7,27.2h8.6c-0.3,1.2-0.4,2.4-0.4,3.7c0,0.7,0,1.4,0.1,2.1
			C8.6,32.3,5.6,30.2,3.7,27.2L3.7,27.2z M16.7,19.2c-1.7,1.7-3,3.8-3.8,6H2.8C2.2,23.8,2,22.3,2,20.8s0.3-3,0.8-4.4h17.8
			C19.2,17.1,17.9,18.1,16.7,19.2L16.7,19.2z M47,22c-0.7,1.5-1.7,2.9-2.9,4.1c-0.8-2.6-2.2-4.9-4.1-6.8c-3.1-3.1-7.2-4.8-11.6-4.8
			c-0.4,0-0.8,0-1.2,0c-0.6-1.2-1.3-2.3-2.2-3.3c2.1-4,6.3-6.5,10.9-6.5C40.6,4.7,45,7.5,47,12c0,0,0,0,0,0c0.7,1.6,1.1,3.3,1.1,5
			C48,18.7,47.7,20.4,47,22L47,22z"/>
		<g>
			<path class="st0" d="M39.2,42.8c-0.4,0-0.8-0.3-0.9-0.7c-0.1-0.4,0-0.8,0.3-1.1c0.3-0.2,0.8-0.3,1.1-0.1s0.5,0.6,0.5,1
				C40.1,42.5,39.7,42.8,39.2,42.8z"/>
		</g>
		<path class="st0" d="M30.5,30.1c0.3-0.4,0.5-1,0.5-1.5c0-1.5-1.2-2.7-2.7-2.7s-2.7,1.2-2.7,2.7c0,0.6,0.2,1.1,0.5,1.5
			c-0.7,0.6-1.1,1.5-1.1,2.5c0,1.8,1.5,3.3,3.3,3.3c1.8,0,3.3-1.5,3.3-3.3C31.6,31.6,31.2,30.7,30.5,30.1L30.5,30.1z M27.6,28.5
			c0-0.4,0.3-0.7,0.7-0.7c0.4,0,0.7,0.3,0.7,0.7c0,0.4-0.3,0.7-0.7,0.7C27.9,29.3,27.6,28.9,27.6,28.5z M28.3,33.9
			c-0.7,0-1.3-0.6-1.3-1.3c0-0.7,0.6-1.3,1.3-1.3s1.3,0.6,1.3,1.3C29.7,33.3,29.1,33.9,28.3,33.9z"/>
		<g>
			<path class="st0" d="M28.3,40c-5,0-9.1-4.1-9.1-9.1s4.1-9.1,9.1-9.1s9.1,4.1,9.1,9.1S33.3,40,28.3,40z M28.3,23.7
				c-3.9,0-7.1,3.2-7.1,7.1s3.2,7.1,7.1,7.1s7.1-3.2,7.1-7.1S32.3,23.7,28.3,23.7L28.3,23.7z"/>
		</g>
	</g>
</g>
</svg>
