<?xml version="1.0" encoding="utf-8"?>
<!-- Generator: Adobe Illustrator 22.0.1, SVG Export Plug-In . SVG Version: 6.00 Build 0)  -->
<svg version="1.1" id="Layer_1" xmlns="http://www.w3.org/2000/svg" xmlns:xlink="http://www.w3.org/1999/xlink" x="0px" y="0px"
	 width="50px" height="50px" viewBox="0 0 50 50" style="enable-background:new 0 0 50 50;" xml:space="preserve">
<style type="text/css">
	.st0{fill:#648FB2;}
</style>
<path class="st0" d="M47.5,4.4L45,2.1c0,0-1.4-1.2-3-0.1c-1.6,1.1-6.3,3.9-8.9,3.6c-2.6-0.3-4.4-1.1-8.1-2.7
	c-3.8-1.6-7.4-3.4-13.3,0.5c0,0-0.8,0.1-1.2-1.6C10.1,0,8.1,0,8.1,0H4.5c0,0-2.3,0.3-2.3,2.3s0,18.1,0,18.1s0.3,2,2.3,2.1
	s3.6,0.3,3.6,0.3s1.9-0.3,2.3-1.9s1.5-5,6.6-2.9s7.4,1.3,7.4,1.3s-11.8,9.6-15,16.1S5.3,49.4,9.6,50h23.6c0,0,3.6-0.3,2.3-3.6
	S32.7,35.5,35.8,28s9.4-18.6,11-20.1C48.4,6.4,47.5,4.4,47.5,4.4z M6.1,16.8c0,0.5-0.5,1-1,1s-1-0.5-1-1V2.6c0-0.6,0.5-1,1-1
	s1,0.4,1,1V16.8z M27.3,21.6C9.9,35,11.6,42.9,9.9,43.9c-1.7,1-1.6-0.8-1.6-0.8c0.6-9.8,17.4-23,17.4-23
	C27.7,19.8,27.3,21.6,27.3,21.6z M42.8,6.1c-1.1,0.8-3.4,2.3-5.4,2.7c-2.8,0.5-7.3,0.5-8.9,0C27,8.2,19.8,4,17.7,4.9
	c-2.2,0.8-3.8,1.8-3.8,1.8s-2.3,0.3-1.3-2c0,0,3.7-2.5,6.2-2.1c2.5,0.4,4,0.9,6.2,2.1c2.2,1.2,5.5,2.8,8.7,2.3
	c3.2-0.5,5.4-0.7,7.9-2.8c0.2-0.2,0.5-0.4,0.9-0.4c0.6,0,1.2,0.5,1.2,1.2C43.7,5.5,43.3,5.9,42.8,6.1z"/>
</svg>
