<?xml version="1.0" encoding="utf-8"?>
<!-- Generator: Adobe Illustrator 22.0.1, SVG Export Plug-In . SVG Version: 6.00 Build 0)  -->
<svg version="1.1" id="圖層_1" xmlns="http://www.w3.org/2000/svg" xmlns:xlink="http://www.w3.org/1999/xlink" x="0px" y="0px"
	 width="52px" height="104px" viewBox="0 0 52 104" style="enable-background:new 0 0 52 104;" xml:space="preserve">
<style type="text/css">
	.st0{display:none;}
	.st1{display:inline;}
	.st2{fill:#0C5D91;}
</style>
<g class="st0">
	<g id="圓角矩形_2_2_" class="st1">
		<path d="M42.9,4.7c1.3,0,2.4,1.1,2.4,2.4v37.8c0,1.3-1.1,2.4-2.4,2.4H9.1c-1.3,0-2.4-1.1-2.4-2.4V7.1c0-1.3,1.1-2.4,2.4-2.4H42.9
			 M42.9,2.7H9.1c-2.5,0-4.4,2-4.4,4.4v37.8c0,2.5,2,4.4,4.4,4.4h33.8c2.5,0,4.4-2,4.4-4.4V7.1C47.3,4.6,45.4,2.7,42.9,2.7L42.9,2.7
			z"/>
	</g>
	<g id="矩形_1_3_" class="st1">
		<g>
			<rect x="14.9" y="15.1" width="22.5" height="2.2"/>
		</g>
	</g>
	<g id="矩形_1_拷貝_3_" class="st1">
		<g>
			<rect x="14.9" y="24.9" width="22.5" height="2.2"/>
		</g>
	</g>
	<g id="矩形_1_拷貝_2_3_" class="st1">
		<g>
			<rect x="14.9" y="34.7" width="13.3" height="2.2"/>
		</g>
	</g>
</g>
<g>
	<path d="M42.7,2.7H9.3c-2.6,0-4.6,2-4.6,4.6v37.4c0,2.6,2,4.6,4.6,4.6h33.4c2.6,0,4.6-2,4.6-4.6V7.3C47.3,4.7,45.3,2.7,42.7,2.7z
		 M44.8,44.7c0,1.2-1,2.1-2.1,2.1H9.3c-1.2,0-2.1-1-2.1-2.1V7.3c0-1.2,1-2.1,2.1-2.1h33.4c1.2,0,2.1,1,2.1,2.1V44.7z"/>
	<rect x="14.8" y="15" width="22.8" height="2.7"/>
	<rect x="14.8" y="24.7" width="22.8" height="2.7"/>
	<rect x="14.8" y="34.4" width="13.7" height="2.7"/>
</g>
<path class="st2" d="M42.9,54.7H9.1c-2.5,0-4.4,2-4.4,4.4v37.8c0,2.5,2,4.4,4.4,4.4h33.8c2.5,0,4.4-2,4.4-4.4V59.1
	C47.3,56.6,45.4,54.7,42.9,54.7z M28.4,89H14.8v-2.7h13.7V89z M37.5,79.3H14.8v-2.7h22.8V79.3z M37.5,69.6H14.8V67h22.8V69.6z"/>
</svg>
