<?xml version="1.0" encoding="utf-8"?>
<!-- Generator: Adobe Illustrator 22.0.1, SVG Export Plug-In . SVG Version: 6.00 Build 0)  -->
<svg version="1.1" id="圖層_1" xmlns="http://www.w3.org/2000/svg" xmlns:xlink="http://www.w3.org/1999/xlink" x="0px" y="0px"
	 width="50px" height="100px" viewBox="0 0 50 100" style="enable-background:new 0 0 50 100;" xml:space="preserve">
<style type="text/css">
	.st0{fill:#2782D7;}
	.st1{fill:#FFFFFF;}
</style>
<g>
	<path class="st0" d="M46.6,20l-3.4-0.6c-0.4-1.2-0.8-2.2-1.3-3.3l2-2.8c0.9-1.2,0.7-2.8-0.3-3.8l-3-3C40,6,39.3,5.7,38.5,5.7
		c-0.6,0-1.3,0.2-1.7,0.6l-2.8,2c-1.2-0.7-2.2-1.2-3.5-1.5L30,3.4c-0.3-1.4-1.4-2.5-2.9-2.5h-4.2c-1.4,0-2.7,1.1-3,2.5l-0.6,3.5
		c-1.2,0.4-2.2,0.8-3.3,1.3l-2.8-2c-0.5-0.4-1.1-0.6-1.7-0.6c-0.8,0-1.5,0.3-2.1,0.9L6.5,9.6c-1.1,1.1-1.2,2.6-0.3,3.8l2,2.8
		c-0.6,1.1-1,2.1-1.3,3.3L3.5,20C2.1,20.3,1,21.6,1,23v4.2c0,1.4,1.1,2.7,2.5,2.9l3.4,0.7C7.3,32,7.6,33,8.2,34.1l-2,2.8
		c-0.9,1.2-0.7,2.8,0.3,3.8l3.2,2.9c0.6,0.6,1.3,0.9,2.1,0.9c0.6,0,1.3-0.2,1.7-0.6l2.8-2c1.1,0.6,2.1,1,3.2,1.3l0.6,3.4
		c0.3,1.4,1.4,2.5,2.9,2.5h4.2c1.4,0,2.7-1.1,2.9-2.5l0.6-3.4c1.2-0.4,2.2-0.8,3.3-1.3l2.8,2c0.5,0.4,1.1,0.6,1.7,0.6
		c0.8,0,1.5-0.3,2.1-0.9l3-3c1.1-1.1,1.2-2.6,0.3-3.8l-2-2.8c0.6-1.1,1.1-2.1,1.3-3.3l3.4-0.6c1.4-0.3,2.5-1.4,2.5-2.9V23
		C49.1,21.5,48,20.2,46.6,20z M46.4,27.2L46.4,27.2c0,0.1-0.1,0.3-0.2,0.3L42,28.1c-0.6,0.1-1,0.5-1.1,1c-0.4,1.4-1,2.9-1.7,4.2
		c-0.3,0.5-0.3,1.1,0.1,1.4l2.5,3.5c0.1,0.1,0.1,0.3,0,0.4l-3,3c-0.1,0.1-0.1,0.1-0.2,0.1c-0.1,0-0.1,0-0.2-0.1L35,39.1
		c-0.5-0.3-1.1-0.3-1.4-0.1c-1.3,0.8-2.7,1.3-4.2,1.7c-0.5,0.1-1,0.6-1,1.1l-0.9,4.4c0,0.1-0.1,0.2-0.3,0.2H23
		c-0.1,0-0.3-0.1-0.3-0.2L22,42c-0.1-0.6-0.5-1-1-1.1c-1.4-0.4-2.8-1-4.1-1.7c-0.2-0.1-0.5-0.2-0.7-0.2c-0.3,0-0.6,0.1-0.8,0.3
		l-3.6,2.5c-0.1,0-0.1,0.1-0.2,0.1c0,0-0.1,0-0.2-0.1l-3-3c-0.1-0.1-0.1-0.2,0-0.4L11,35c0.3-0.5,0.3-1.1,0.1-1.4
		c-0.8-1.3-1.3-2.7-1.7-4.2c-0.1-0.5-0.6-0.9-1.1-1l-4.4-0.8c-0.1,0-0.2-0.1-0.2-0.3V23c0-0.1,0.1-0.3,0.2-0.3L8.1,22
		c0.6-0.1,1-0.5,1.1-1c0.4-1.4,1-2.9,1.7-4.2c0.3-0.5,0.3-1.1-0.1-1.4l-2.5-3.6c-0.1-0.1-0.1-0.3,0-0.4l3-3c0.1-0.1,0.1-0.1,0.2-0.1
		c0.1,0,0.1,0,0.2,0.1l3.5,2.5c0.5,0.3,1.1,0.3,1.4,0.1c1.3-0.8,2.7-1.3,4.2-1.7c0.5-0.1,0.9-0.6,1-1.1l0.9-4.4
		c0-0.1,0.1-0.2,0.3-0.2h4.2c0.1,0,0.3,0.1,0.3,0.2L28.2,8c0.1,0.6,0.5,1,1,1.1c1.5,0.4,3,1,4.3,1.7c0.5,0.3,1.1,0.3,1.4-0.1
		l3.5-2.5c0.1,0,0.1-0.1,0.2-0.1c0,0,0.1,0,0.2,0.1l3,3c0.1,0.1,0.1,0.2,0,0.4l-2.5,3.5c-0.3,0.4-0.3,1.1-0.1,1.4
		c0.8,1.3,1.3,2.7,1.7,4.2c0.1,0.5,0.6,0.9,1.1,1l4.2,0.7c0.1,0,0.2,0.1,0.2,0.3V27.2L46.4,27.2z"/>
	<path class="st0" d="M25,14.7c-5.8,0-10.4,4.6-10.4,10.4S19.4,35.4,25,35.4c5.8,0,10.4-4.6,10.4-10.4S30.8,14.7,25,14.7z M25,32.7
		c-4.2,0-7.7-3.5-7.7-7.7s3.5-7.7,7.7-7.7s7.7,3.5,7.7,7.7S29.3,32.7,25,32.7z"/>
</g>
<g>
	<path class="st1" d="M46.6,70l-3.4-0.6c-0.4-1.2-0.8-2.2-1.3-3.3l2-2.8c0.9-1.2,0.7-2.8-0.3-3.8l-3-3c-0.6-0.5-1.3-0.8-2.1-0.8
		c-0.6,0-1.3,0.2-1.7,0.6l-2.8,2c-1.2-0.7-2.2-1.2-3.5-1.5L30,53.4c-0.3-1.4-1.4-2.5-2.9-2.5h-4.2c-1.4,0-2.7,1.1-3,2.5l-0.6,3.5
		c-1.2,0.4-2.2,0.8-3.3,1.3l-2.8-2c-0.5-0.4-1.1-0.6-1.7-0.6c-0.8,0-1.5,0.3-2.1,0.9l-2.9,3.1c-1.1,1.1-1.2,2.6-0.3,3.8l2,2.8
		c-0.6,1.1-1,2.1-1.3,3.3L3.5,70C2.1,70.3,1,71.6,1,73v4.2c0,1.4,1.1,2.7,2.5,2.9l3.4,0.7C7.3,82,7.6,83,8.2,84.1l-2,2.8
		c-0.9,1.2-0.7,2.8,0.3,3.8l3.2,2.9c0.6,0.6,1.3,0.9,2.1,0.9c0.6,0,1.3-0.2,1.7-0.6l2.8-2c1.1,0.6,2.1,1,3.2,1.3l0.6,3.4
		c0.3,1.4,1.4,2.5,2.9,2.5h4.2c1.4,0,2.7-1.1,2.9-2.5l0.6-3.4c1.2-0.4,2.2-0.8,3.3-1.3l2.8,2c0.5,0.4,1.1,0.6,1.7,0.6
		c0.8,0,1.5-0.3,2.1-0.9l3-3c1.1-1.1,1.2-2.6,0.3-3.8l-2-2.8c0.6-1.1,1.1-2.1,1.3-3.3l3.4-0.6c1.4-0.3,2.5-1.4,2.5-2.9V73
		C49.1,71.5,48,70.2,46.6,70z M46.4,77.2L46.4,77.2c0,0.1-0.1,0.3-0.2,0.3L42,78.1c-0.6,0.1-1,0.5-1.1,1c-0.4,1.4-1,2.9-1.7,4.2
		c-0.3,0.5-0.3,1.1,0.1,1.4l2.5,3.5c0.1,0.1,0.1,0.3,0,0.4l-3,3c-0.1,0.1-0.1,0.1-0.2,0.1c-0.1,0-0.1,0-0.2-0.1L35,89.1
		c-0.5-0.3-1.1-0.3-1.4-0.1c-1.3,0.8-2.7,1.3-4.2,1.7c-0.5,0.1-1,0.6-1,1.1l-0.9,4.4c0,0.1-0.1,0.2-0.3,0.2H23
		c-0.1,0-0.3-0.1-0.3-0.2L22,92c-0.1-0.6-0.5-1-1-1.1c-1.4-0.4-2.8-1-4.1-1.7c-0.2-0.1-0.5-0.2-0.7-0.2c-0.3,0-0.6,0.1-0.8,0.3
		l-3.6,2.5c-0.1,0-0.1,0.1-0.2,0.1c0,0-0.1,0-0.2-0.1l-3-3c-0.1-0.1-0.1-0.2,0-0.4L11,85c0.3-0.5,0.3-1.1,0.1-1.4
		c-0.8-1.3-1.3-2.7-1.7-4.2c-0.1-0.5-0.6-0.9-1.1-1l-4.4-0.8c-0.1,0-0.2-0.1-0.2-0.3V73c0-0.1,0.1-0.3,0.2-0.3L8.1,72
		c0.6-0.1,1-0.5,1.1-1c0.4-1.4,1-2.9,1.7-4.2c0.3-0.5,0.3-1.1-0.1-1.4l-2.5-3.6c-0.1-0.1-0.1-0.3,0-0.4l3-3c0.1-0.1,0.1-0.1,0.2-0.1
		c0.1,0,0.1,0,0.2,0.1l3.5,2.5c0.5,0.3,1.1,0.3,1.4,0.1c1.3-0.8,2.7-1.3,4.2-1.7c0.5-0.1,0.9-0.6,1-1.1l0.9-4.4
		c0-0.1,0.1-0.2,0.3-0.2h4.2c0.1,0,0.3,0.1,0.3,0.2l0.7,4.2c0.1,0.6,0.5,1,1,1.1c1.5,0.4,3,1,4.3,1.7c0.5,0.3,1.1,0.3,1.4-0.1
		l3.5-2.5c0.1,0,0.1-0.1,0.2-0.1c0,0,0.1,0,0.2,0.1l3,3c0.1,0.1,0.1,0.2,0,0.4l-2.5,3.5c-0.3,0.4-0.3,1.1-0.1,1.4
		c0.8,1.3,1.3,2.7,1.7,4.2c0.1,0.5,0.6,0.9,1.1,1l4.2,0.7c0.1,0,0.2,0.1,0.2,0.3V77.2L46.4,77.2z"/>
	<path class="st1" d="M25,64.7c-5.8,0-10.4,4.6-10.4,10.4c0,5.8,4.8,10.3,10.4,10.3c5.8,0,10.4-4.6,10.4-10.4
		C35.4,69.2,30.8,64.7,25,64.7z M25,82.7c-4.2,0-7.7-3.5-7.7-7.7c0-4.2,3.5-7.7,7.7-7.7s7.7,3.5,7.7,7.7
		C32.7,79.2,29.3,82.7,25,82.7z"/>
</g>
</svg>
