<?xml version="1.0" encoding="utf-8"?>
<!-- Generator: Adobe Illustrator 22.0.1, SVG Export Plug-In . SVG Version: 6.00 Build 0)  -->
<svg version="1.1" id="Capa_1" xmlns="http://www.w3.org/2000/svg" xmlns:xlink="http://www.w3.org/1999/xlink" x="0px" y="0px"
	 width="50px" height="50px" viewBox="0 0 50 50" style="enable-background:new 0 0 50 50;" xml:space="preserve">
<style type="text/css">
	.st0{fill:#74AB63;}
</style>
<g id="XMLID_1727_">
	<g id="XMLID_1101_">
		<path id="XMLID_1121_" class="st0" d="M9.1,10c-0.2-0.3-0.7-0.5-1-0.4c-0.4,0.1-0.7,0.4-0.7,0.8l-0.6,5.8c-0.1,0.5,0.3,1,0.9,1.1
			c0,0,0.1,0,0.1,0c0.5,0,0.9-0.4,1-0.9L9,13.2l2,2.7c0.3,0.4,0.9,0.5,1.4,0.2c0.4-0.3,0.5-0.9,0.2-1.4L9.1,10z"/>
		<path id="XMLID_1254_" class="st0" d="M47.1,7.4H30.6l-1.4-5.3c-0.2-0.8-0.7-1.4-1.4-1.8c-0.7-0.4-1.5-0.5-2.2-0.3L2.2,6.4
			C1.4,6.6,0.8,7.1,0.4,7.7C0,8.4-0.1,9.2,0.1,10l9.5,35.5c0.2,0.8,0.7,1.4,1.4,1.8c0.4,0.3,1,0.4,1.5,0.4c0.3,0,0.5,0,0.8-0.1
			l6.7-1.8v1.4c0,1.6,1.3,2.9,2.9,2.9h24.2c1.6,0,2.9-1.3,2.9-2.9v-14c0-0.5-0.4-1-1-1c-0.5,0-1,0.4-1,1v14c0,0.5-0.4,1-1,1H22.9
			c-0.5,0-1-0.4-1-1V10.4c0-0.5,0.4-1,1-1h24.2c0.5,0,1,0.4,1,1v14c0,0.5,0.4,1,1,1c0.5,0,1-0.4,1-1v-14C50,8.7,48.7,7.4,47.1,7.4z
			 M19.9,27.7c-0.9,1-2.5,1.2-3.7,0.5c-1.4-0.8-1.9-2.7-1.1-4.1l3.2-5.5l1.6,0.9L19.9,27.7L19.9,27.7z M19.9,10.4v6.9l-1.5-0.8
			c-0.5-0.3-1.1-0.1-1.3,0.4l-3.7,6.4c-0.7,1.2-0.8,2.5-0.5,3.8s1.2,2.4,2.3,3c0.8,0.5,1.7,0.7,2.5,0.7c0.7,0,1.5-0.2,2.1-0.5v13.6
			l-7.2,1.9c-0.3,0.1-0.5,0-0.7-0.1c-0.2-0.1-0.4-0.3-0.5-0.6L2,9.5C1.9,8.9,2.2,8.4,2.7,8.3L26.1,2c0.3-0.1,0.5,0,0.7,0.1
			c0.2,0.1,0.4,0.3,0.5,0.6l1.3,4.7h-5.7C21.2,7.4,19.9,8.7,19.9,10.4L19.9,10.4z"/>
		<path id="XMLID_1258_" class="st0" d="M30.2,19.5c0.5-0.2,0.8-0.8,0.6-1.3l-2.1-5.5c-0.1-0.4-0.5-0.6-0.9-0.6
			c-0.4,0-0.8,0.2-0.9,0.6l-2.1,5.5c-0.2,0.5,0.1,1.1,0.6,1.3c0.1,0,0.2,0.1,0.4,0.1c0.4,0,0.8-0.2,0.9-0.6l1.2-3.1l1.2,3.1
			C29.1,19.4,29.7,19.7,30.2,19.5L30.2,19.5z"/>
		<path id="XMLID_1259_" class="st0" d="M41.3,44.7c0.1,0.4,0.5,0.6,0.9,0.6s0.8-0.2,0.9-0.6l2.1-5.5c0.2-0.5-0.1-1.1-0.6-1.3
			c-0.5-0.2-1.1,0.1-1.3,0.6l-1.2,3.1L41,38.5c-0.2-0.5-0.8-0.8-1.3-0.6c-0.5,0.2-0.8,0.8-0.6,1.3L41.3,44.7z"/>
		<path id="XMLID_1324_" class="st0" d="M34.3,36.1c0.2,0.2,0.4,0.3,0.7,0.3c0.3,0,0.5-0.1,0.7-0.3l5.2-5.2c1.9-1.9,1.9-5.1,0-7l0,0
			c-1.6-1.6-4-1.9-5.9-0.9c-1.9-1-4.3-0.7-5.9,0.9c-1.9,1.9-1.9,5.1,0,7L34.3,36.1z M30.5,25.3c0.6-0.6,1.4-0.9,2.1-0.9
			c0.6,0,1.2,0.2,1.8,0.6c0.3,0.3,0.8,0.3,1.2,0c1.2-0.9,2.9-0.7,3.9,0.3c1.2,1.2,1.2,3.1,0,4.3L35,34.1l-4.5-4.5
			C29.3,28.4,29.3,26.5,30.5,25.3L30.5,25.3z"/>
		<path id="XMLID_1325_" class="st0" d="M49,27.7c-0.3,0-0.5,0.1-0.7,0.3S48,28.4,48,28.7c0,0.3,0.1,0.5,0.3,0.7
			c0.2,0.2,0.4,0.3,0.7,0.3c0.3,0,0.5-0.1,0.7-0.3c0.2-0.2,0.3-0.4,0.3-0.7c0-0.3-0.1-0.5-0.3-0.7C49.5,27.8,49.3,27.7,49,27.7z"/>
	</g>
</g>
</svg>
