<?xml version="1.0" encoding="utf-8"?>
<!-- Generator: Adobe Illustrator 24.3.0, SVG Export Plug-In . SVG Version: 6.00 Build 0)  -->
<svg version="1.1" id="圖層_1" xmlns="http://www.w3.org/2000/svg" xmlns:xlink="http://www.w3.org/1999/xlink" x="0px" y="0px"
	 width="50px" height="50px" viewBox="0 0 50 50" style="enable-background:new 0 0 50 50;" xml:space="preserve">
<style type="text/css">
	.st0{fill:#E5AC48;}
	.st1{display:none;}
	.st2{display:inline;fill:#FFFFFF;}
	.st3{fill:#FFFFFF;}
</style>
<g>
	<circle class="st0" cx="25" cy="25" r="25"/>
	<g>
		<g class="st1">
			<path class="st2" d="M22.9,13.1L16.7,30c-0.2,0.6-0.4,1.2-0.6,1.9c0,0.1-0.1,0.3-0.1,0.4c-0.3-0.8-0.5-1.5-0.7-2.3l-6-16.8H4.8
				L14,36.9h3.7L27,13.1H22.9z"/>
			<path class="st2" d="M37.3,36.4V17.6c-1.1,0.8-3.4,1.6-4.6,1.8v-2.7c1.8-0.5,4-1.7,5.6-3.2h2.5v23L37.3,36.4L37.3,36.4z"/>
		</g>
		<g>
			<path class="st3" d="M22.9,13.1L16.7,30c-0.2,0.6-0.4,1.2-0.6,1.9c0,0.1-0.1,0.3-0.1,0.4c-0.3-0.8-0.5-1.5-0.7-2.3l-6-16.8H4.8
				L14,36.9h3.7L27,13.1H22.9z"/>
			<path class="st3" d="M28.8,36.4v-0.2c0-3.4,2.1-6.8,6.9-10.4c3.6-2.7,4.6-3.6,4.6-6c0-2.2-1.2-3.9-3.8-3.9
				c-2.7,0-3.9,1.4-4.3,4.1h-3.3c0.4-3.9,2.9-6.9,7.7-6.9c5.3,0,7.3,3.3,7.3,6.6c0,3.4-1.5,4.8-5.7,8c-3.1,2.4-4.7,4.1-5.2,5.7h11.8
				l-0.5,3H28.8z"/>
		</g>
		<g class="st1">
			<path class="st2" d="M22.9,13.1L16.7,30c-0.2,0.6-0.4,1.2-0.6,1.9c0,0.1-0.1,0.3-0.1,0.4c-0.3-0.8-0.5-1.5-0.7-2.3l-6-16.8H4.8
				L14,36.9h3.7L27,13.1H22.9z"/>
			<path class="st2" d="M29.4,19.1c0.4-2.8,2.4-5.9,7.4-5.9c4.9,0,7,2.9,7,6c0,2.8-1.6,4.2-3,4.7V24c1.9,0.6,4,2.3,4,5.7
				c0,3.6-2.2,7.2-8.1,7.2c-5.4,0-7.6-3.4-7.9-6.4h3.4c0.4,1.9,1.9,3.6,4.7,3.6c3.1,0,4.4-2,4.4-4.4c0-2.9-1.7-4.2-4.7-4.2h-1.7
				v-2.8h1.5c2.9,0,4.1-1.1,4.1-3.4c0-2-1.3-3.3-3.7-3.3c-2.7,0-3.6,1.4-4,3.1C32.8,19.1,29.4,19.1,29.4,19.1z"/>
		</g>
		<g class="st1">
			<path class="st2" d="M22.9,13.1L16.7,30c-0.2,0.6-0.4,1.2-0.6,1.9c0,0.1-0.1,0.3-0.1,0.4c-0.3-0.8-0.5-1.5-0.7-2.3l-6-16.8H4.8
				L14,36.9h3.7L27,13.1H22.9z"/>
			<path class="st2" d="M39,36.4v-5.7H28.3v-3.1l10.2-14.1h3.7v14.2h2.9l-0.4,2.9h-2.6v5.7H39V36.4z M39,22.4c0-1.9,0-4,0.1-5.5
				c-0.9,1.8-5.1,7.6-7.5,10.9H39V22.4z"/>
		</g>
		<g class="st1">
			<path class="st2" d="M22.9,13.1L16.7,30c-0.2,0.6-0.4,1.2-0.6,1.9c0,0.1-0.1,0.3-0.1,0.4c-0.3-0.8-0.5-1.5-0.7-2.3l-6-16.8H4.8
				L14,36.9h3.7L27,13.1H22.9z"/>
			<path class="st2" d="M43.5,16.5H34c-0.2,1.7-0.7,4.9-0.9,6.1c0.9-1,2.4-1.7,4.7-1.7c4.2,0,6.9,3,6.9,7.6c0,4.5-2.4,8.4-8,8.4
				c-4.2,0-7.2-2.3-7.8-6.2h3.5c0.5,2,1.9,3.4,4.4,3.4c3,0,4.4-2.1,4.4-5.3c0-2.8-1.2-5-4.2-5c-2.6,0-3.7,1.1-4.5,2.9l-3.2-0.5
				c0.7-3,1.6-9.6,1.9-12.5H44L43.5,16.5z"/>
		</g>
	</g>
</g>
</svg>
