<?xml version="1.0" encoding="utf-8"?>
<!-- Generator: Adobe Illustrator 26.0.3, SVG Export Plug-In . SVG Version: 6.00 Build 0)  -->
<svg version="1.1" id="圖層_1" xmlns="http://www.w3.org/2000/svg" xmlns:xlink="http://www.w3.org/1999/xlink" x="0px" y="0px"
	 width="50px" height="50px" viewBox="0 0 50 50" style="enable-background:new 0 0 50 50;" xml:space="preserve">
<style type="text/css">
	.st0{fill:url(#路径_2_00000069385266908936553220000015177695712751883144_);}
</style>
<g id="globalnav_apple_image__b5er5ngrzxqq_large" transform="translate(-0.514 -12.089)">
	
		<linearGradient id="路径_2_00000038387832172624651960000006767181630091142065_" gradientUnits="userSpaceOnUse" x1="-522.8968" y1="22.0913" x2="-522.8968" y2="23.213" gradientTransform="matrix(29.028 0 0 35.661 15204.2979 -773.6968)">
		<stop  offset="0" style="stop-color:#54A9F7"/>
		<stop  offset="1" style="stop-color:#157EDE"/>
	</linearGradient>
	<path id="路径_2" style="fill:url(#路径_2_00000038387832172624651960000006767181630091142065_);" d="M40.8,27.7
		c-2.7,1.6-4.3,4.5-4.3,7.6c0,3.5,2.1,6.7,5.4,8.1c-0.6,2-1.6,3.9-2.7,5.7C37.5,51.6,35.7,54,33,54s-3.4-1.6-6.6-1.6
		c-3.1,0-4.2,1.6-6.6,1.6s-4.2-2.3-6.2-5.1C11,45,9.5,40.4,9.4,35.7c0-7.8,5.1-11.9,10-11.9c2.6,0,4.8,1.7,6.5,1.7
		c1.6,0,4-1.8,7.1-1.8C36,23.7,38.9,25.2,40.8,27.7L40.8,27.7z M31.4,20.5c1.3-1.6,2.1-3.5,2.1-5.6c0-0.3,0-0.5-0.1-0.8
		c-2.3,0.2-4.4,1.3-5.9,3c-1.3,1.5-2.1,3.4-2.2,5.4c0,0.2,0,0.5,0.1,0.7c0.2,0,0.4,0.1,0.5,0.1C28.1,23.1,30.1,22.1,31.4,20.5
		L31.4,20.5z"/>
</g>
</svg>
