<?xml version="1.0" encoding="utf-8"?>
<!-- Generator: Adobe Illustrator 22.0.1, SVG Export Plug-In . SVG Version: 6.00 Build 0)  -->
<svg version="1.1" id="圖層_1" xmlns="http://www.w3.org/2000/svg" xmlns:xlink="http://www.w3.org/1999/xlink" x="0px" y="0px"
	 width="52px" height="104px" viewBox="0 0 52 104" style="enable-background:new 0 0 52 104;" xml:space="preserve">
<style type="text/css">
	.st0{fill:#0C5D91;}
	.st1{fill:#FFFFFF;}
</style>
<g>
	<g>
		<path d="M26,50.2c-13.1,0-23.8-10.7-23.8-23.8S12.9,2.7,26,2.7s23.8,10.7,23.8,23.8S39.1,50.2,26,50.2z M26,5.2
			c-11.7,0-21.3,9.5-21.3,21.3S14.3,47.7,26,47.7c11.7,0,21.3-9.5,21.3-21.3S37.7,5.2,26,5.2z"/>
	</g>
	<g>
		<g>
			<path d="M32.4,29.5l2.8,0.7c-0.6,2.3-1.6,4-3.1,5.2s-3.3,1.8-5.5,1.8c-2.2,0-4.1-0.5-5.5-1.4c-1.4-0.9-2.5-2.2-3.2-4
				c-0.7-1.7-1.1-3.6-1.1-5.6c0-2.2,0.4-4.1,1.2-5.7s2-2.8,3.5-3.7c1.5-0.8,3.2-1.3,5-1.3c2.1,0,3.8,0.5,5.2,1.6
				c1.4,1.1,2.4,2.5,3,4.5L32,22.2c-0.5-1.5-1.2-2.6-2.1-3.3c-0.9-0.7-2.1-1-3.5-1c-1.6,0-2.9,0.4-4,1.1c-1.1,0.8-1.8,1.8-2.3,3.1
				c-0.4,1.3-0.7,2.6-0.7,4c0,1.8,0.3,3.3,0.8,4.6s1.3,2.3,2.4,3s2.3,1,3.5,1c1.5,0,2.8-0.4,3.9-1.3C31.3,32.6,32,31.3,32.4,29.5z"
				/>
		</g>
	</g>
	<g>
		<g>
			<path class="st0" d="M26,102.1c-13.1,0-23.8-10.7-23.8-23.8S12.9,54.5,26,54.5s23.8,10.7,23.8,23.8S39.1,102.1,26,102.1z
				 M47.3,78.3"/>
		</g>
		<g>
			<g>
				<path class="st1" d="M32.4,81.4l2.8,0.7c-0.6,2.3-1.6,4-3.1,5.2s-3.3,1.8-5.5,1.8s-4.1-0.5-5.5-1.4c-1.4-0.9-2.5-2.2-3.2-4
					c-0.7-1.7-1.1-3.6-1.1-5.6c0-2.2,0.4-4.1,1.2-5.7c0.8-1.6,2-2.8,3.5-3.7c1.5-0.8,3.2-1.3,5-1.3c2.1,0,3.8,0.5,5.2,1.6
					c1.4,1.1,2.4,2.5,3,4.5L32,74.1c-0.5-1.5-1.2-2.6-2.1-3.3c-0.9-0.7-2.1-1-3.5-1c-1.6,0-2.9,0.4-4,1.1c-1.1,0.8-1.8,1.8-2.3,3.1
					c-0.4,1.3-0.7,2.6-0.7,4c0,1.8,0.3,3.3,0.8,4.6s1.3,2.3,2.4,3s2.3,1,3.5,1c1.5,0,2.8-0.4,3.9-1.3C31.3,84.5,32.1,83.2,32.4,81.4
					z"/>
			</g>
		</g>
	</g>
</g>
</svg>
