<?xml version="1.0" encoding="utf-8"?>
<!-- Generator: Adobe Illustrator 22.0.1, SVG Export Plug-In . SVG Version: 6.00 Build 0)  -->
<svg version="1.1" id="圖層_1" xmlns="http://www.w3.org/2000/svg" xmlns:xlink="http://www.w3.org/1999/xlink" x="0px" y="0px"
	 width="50px" height="100px" viewBox="0 0 50 100" style="enable-background:new 0 0 50 100;" xml:space="preserve">
<style type="text/css">
	.st0{fill:#FFFFFF;}
	.st1{fill:#2782D7;}
</style>
<g>
	<path class="st0" d="M9.8,52.5h22.1v8.4h8.4v9.5h2.5V51.7c0-1-0.7-1.7-1.6-1.7H8.9c-0.9,0-1.7,0.8-1.7,1.7V97c0,1,0.7,1.7,1.6,1.7
		h23.6v-2.5H9.8V52.5z"/>
	<rect x="12.5" y="67.1" class="st0" width="25.5" height="2.8"/>
	<rect x="12.5" y="74.6" class="st0" width="19.3" height="2.8"/>
	<rect x="12.5" y="82.1" class="st0" width="16.9" height="2.8"/>
	<path class="st0" d="M47.8,87.2c-0.6-0.9-1.4-1.5-2.5-1.9c-0.9-0.4-2.6-0.8-4.8-1.3c-1-0.2-1.5-0.4-1.8-0.6
		c-0.2-0.2-0.3-0.5-0.3-0.7c0-0.8,0.6-1.2,1.9-1.2c1.5,0,2.6,0.6,3.1,1.9l4.8-1.5c-1-2.8-3.2-4.4-6.6-4.7v-2.6h-3v2.7
		c-2,0.3-3.6,1-4.6,2.3c-1,1.2-1.5,2.6-1.5,4.1c0,1.4,0.4,2.7,1.3,3.7c0.9,1,3.1,1.9,6.4,2.7c0.8,0.2,1.4,0.4,1.8,0.6
		c0.3,0.2,0.5,0.6,0.5,1c0,0.8-0.7,1.2-2.2,1.2c-1.8,0-3.1-0.8-3.5-2.4l-5.4,1c0.9,3.5,3.3,5.4,7.1,5.9v2.6h3v-2.7
		c2.2-0.2,3.9-0.9,5.2-2.1c1.2-1.2,1.8-2.7,1.8-4.4C48.9,89.1,48.6,88.1,47.8,87.2z"/>
</g>
<g>
	<path class="st1" d="M9.8,2.5h22.1v8.4h8.4v9.5h2.5V1.7c0-1-0.7-1.7-1.6-1.7H8.9C8,0,7.2,0.8,7.2,1.7V47c0,1,0.7,1.7,1.6,1.7h23.6
		v-2.5H9.8V2.5z"/>
	<rect x="12.5" y="17.1" class="st1" width="25.5" height="2.8"/>
	<rect x="12.5" y="24.6" class="st1" width="19.3" height="2.8"/>
	<rect x="12.5" y="32.1" class="st1" width="16.9" height="2.8"/>
	<path class="st1" d="M47.8,37.2c-0.6-0.9-1.4-1.5-2.5-1.9c-0.9-0.4-2.6-0.8-4.8-1.3c-1-0.2-1.5-0.4-1.8-0.6
		c-0.2-0.2-0.3-0.5-0.3-0.7c0-0.8,0.6-1.2,1.9-1.2c1.5,0,2.6,0.6,3.1,1.9l4.8-1.5c-1-2.8-3.2-4.4-6.6-4.7v-2.6h-3v2.7
		c-2,0.3-3.6,1-4.6,2.3c-1,1.2-1.5,2.6-1.5,4.1c0,1.4,0.4,2.7,1.3,3.7c0.9,1,3.1,1.9,6.4,2.7c0.8,0.2,1.4,0.4,1.8,0.6
		c0.3,0.2,0.5,0.6,0.5,1c0,0.8-0.7,1.2-2.2,1.2c-1.8,0-3.1-0.8-3.5-2.4l-5.4,1c0.9,3.5,3.3,5.4,7.1,5.9V50h3v-2.7
		c2.2-0.2,3.9-0.9,5.2-2.1c1.2-1.2,1.8-2.7,1.8-4.4C48.9,39.1,48.6,38.1,47.8,37.2z"/>
</g>
</svg>
