<?xml version="1.0" encoding="utf-8"?>
<!-- Generator: Adobe Illustrator 26.0.3, SVG Export Plug-In . SVG Version: 6.00 Build 0)  -->
<svg version="1.1" id="圖層_1" xmlns="http://www.w3.org/2000/svg" xmlns:xlink="http://www.w3.org/1999/xlink" x="0px" y="0px"
	 width="50px" height="50px" viewBox="0 0 50 50" style="enable-background:new 0 0 50 50;" xml:space="preserve">
<style type="text/css">
	.st0{fill:#FFFFFF;}
</style>
<g id="android1" transform="translate(-56.1 -17.77)">
	<path id="路径_11" class="st0" d="M70,36.8v16.5c0,0.9,0.7,1.6,1.6,1.6h3v5.6c0,1.3,1.1,2.4,2.5,2.3c1.3,0,2.3-1.1,2.3-2.3v-5.6
		h3.5v5.6c0,1.3,1.1,2.4,2.5,2.3c1.3,0,2.3-1.1,2.3-2.3v-5.6h3c0.9,0,1.6-0.7,1.6-1.6V36.8C86.6,36.8,74.9,36.8,70,36.8z"/>
	<path id="路径_12" class="st0" d="M95.6,35.9c-1.3,0-2.3,1-2.3,2.3l0,0v10.2c0,1.3,1,2.3,2.3,2.3c1.3,0,2.3-1,2.3-2.3V38.3
		C97.9,37,96.8,35.9,95.6,35.9C95.6,35.9,95.6,35.9,95.6,35.9z"/>
	<path id="路径_13" class="st0" d="M66.6,35.9c-1.3,0-2.3,1-2.3,2.3c0,0,0,0,0,0v10.2c0,1.3,1,2.3,2.3,2.3s2.3-1,2.3-2.3V38.3
		C69,37,67.9,35.9,66.6,35.9z"/>
	<path id="路径_14" class="st0" d="M86.5,26.5l1.9-3.2c0.1-0.2,0-0.4-0.1-0.5c0,0,0,0,0,0c-0.2-0.1-0.4,0-0.5,0.1l-1.9,3.2
		c-1.5-0.7-3.1-1-4.7-1l0,0c-1.7,0-3.3,0.4-4.8,1.1L74.6,23c-0.1-0.2-0.3-0.3-0.5-0.2c0,0,0,0,0,0c-0.2,0.1-0.3,0.3-0.2,0.5
		c0,0,0,0,0,0l1.7,3.2c-3.2,1.7-5.3,4.9-5.8,8.4h22.5C91.9,31.4,89.7,28.2,86.5,26.5z M76,31.1L76,31.1c-0.5,0-0.9-0.4-0.9-0.9
		c0-0.5,0.4-0.9,0.9-0.9c0.5,0,0.9,0.4,0.9,0.9C77,30.7,76.5,31.1,76,31.1z M86.2,31.1c-0.5,0-0.9-0.4-0.9-0.9
		c0-0.5,0.4-0.9,0.9-0.9c0.5,0,0.9,0.4,0.9,0.9C87.1,30.7,86.7,31.1,86.2,31.1C86.2,31.1,86.2,31.1,86.2,31.1L86.2,31.1z"/>
</g>
</svg>
