<?xml version="1.0" encoding="utf-8"?>
<!-- Generator: Adobe Illustrator 22.0.1, SVG Export Plug-In . SVG Version: 6.00 Build 0)  -->
<svg version="1.1" id="Layer_1" xmlns="http://www.w3.org/2000/svg" xmlns:xlink="http://www.w3.org/1999/xlink" x="0px" y="0px"
	 width="50px" height="50px" viewBox="0 0 50 50" style="enable-background:new 0 0 50 50;" xml:space="preserve">
<style type="text/css">
	.st0{fill:url(#SVGID_1_);}
</style>
<linearGradient id="SVGID_1_" gradientUnits="userSpaceOnUse" x1="25" y1="2" x2="25" y2="52" gradientTransform="matrix(1 0 0 -1 0 52)">
	<stop  offset="0" style="stop-color:#EACB00"/>
	<stop  offset="0.2929" style="stop-color:#EE8100"/>
	<stop  offset="0.3367" style="stop-color:#EE7300"/>
	<stop  offset="0.378" style="stop-color:#EC6400"/>
	<stop  offset="0.453" style="stop-color:#E94C07"/>
	<stop  offset="0.5376" style="stop-color:#E6350D"/>
	<stop  offset="0.636" style="stop-color:#E51E10"/>
	<stop  offset="0.7608" style="stop-color:#E40711"/>
	<stop  offset="1" style="stop-color:#E40011"/>
</linearGradient>
<path class="st0" d="M38,17.7c1.6,3.9,0.9,8.7-1.7,12C39,18.6,32.3,6.6,19.8,0c7.4,15.9-13.7,16.7-8.6,35.1c-2.3-1.9-3-6.7-2.9-9.4
	C3,35.3,7.8,46.6,17.8,50c-3.7-3.6-2.3-10.9,2.1-14.1c-0.4,2.7,1.3,6.6,3.7,7.9c-3.4-6.4-0.9-17.1,3.9-19.7
	c-3.3,10.4,9,13.3,6.3,22.4c-0.4,1.4-1.3,2.6-2.3,3.6C46.8,45,46.5,28,38,17.7z"/>
</svg>
