<?xml version="1.0" encoding="utf-8"?>
<!-- Generator: Adobe Illustrator 22.0.1, SVG Export Plug-In . SVG Version: 6.00 Build 0)  -->
<svg version="1.1" id="Layer_1" xmlns="http://www.w3.org/2000/svg" xmlns:xlink="http://www.w3.org/1999/xlink" x="0px" y="0px"
	 width="50px" height="50px" viewBox="0 0 50 50" style="enable-background:new 0 0 50 50;" xml:space="preserve">
<style type="text/css">
	.st0{fill:#CA9B32;}
</style>
<g>
	<path class="st0" d="M21.5,13.5l-1.4,1.1c0,0-2.9-2.3-1.6-6.7s5.3-4.8,6.7-4.8c1.4,0,6.5,0.5,7,6.2c0.3,3.9-1.8,5.3-1.8,5.3
		l-1.5-1.2c0,0,1.7-1.8,1.3-4.1S27.8,5,25,5.2C22.3,5.3,18,8.1,21.5,13.5z"/>
	<path class="st0" d="M24.2,21v1.8h-1.1c0,0-1.7,0.4-1.7,2.2s0,2.8,0.4,3.3s0.8,0.9,1.6,1.1c0.8,0.2,3.6,0.7,3.6,0.7v2.8h-3.2
		c0,0-0.6-0.1-0.4-1.3l-2-0.1c0,0-0.7,3,2.8,3.2v2h2v-1.9c0,0,2.4,0.1,2.7-1.9v-2.7c0,0,0.3-1.3-1.9-1.9c-2.2-0.7-2.8-0.6-2.8-0.6
		s-0.7,0-0.8-0.5c-0.1-0.5,0-2.1,0-2.1s0.2-0.2,0.4-0.3c0.2-0.1,2.7,0,2.7,0s0.5-0.1,0.6,0.3s0,1.7,0,1.7l1.8,0.1v-2
		c0,0,0-1.5-2-1.9h-0.8v-2H24.2z"/>
	<rect x="11.2" y="27.9" class="st0" width="2.1" height="2"/>
	<path class="st0" d="M47.4,27.3l-0.9,0.7c-1.7-2.7-3.8-0.8-3.8-0.8c-2.4-11.1-15.2-11.9-19.8-12s-8.4,2.3-8.4,2.3s-5.3-3.3-7.1-1.7
		s-0.1,7.1-0.1,7.1c-1.3,1.8-1.9,4.6-1.9,4.6s-0.3,0.3-2.6,0.8s-1.3,4.4,0,7.4s9.4,4.3,9.4,4.3v6.7h4.6l1.8-3.8
		c6.9,1.8,12.9,0.1,12.9,0.1l2,3.6h4.3l1.4-8.3c4.3-4,3.6-9,3.6-9l1.6-0.9c1.6,3.1,4.3,0.5,4.3,0.5L47.4,27.3z M37.5,37.7l-1.1,7.1
		h-1.8l-2-3.9c-2.5,0.9-5.4,1.1-8.2,0.9c-2.6-0.2-6.6-1.3-6.6-1.3l-2.1,4.3h-1.5l-0.1-6.4c0,0-5.6-1.4-8.3-2.6s-2.6-5.9-2.6-5.9
		c1.5,0.1,3.9-1.5,3.9-1.5c-0.2-1.9,2.3-5.3,2.3-5.3c-1.3-1.3-0.8-5.9-0.8-5.9c5.3,0.8,6.6,3.3,6.6,3.3l1.6-1.1l-0.6-0.9
		c5.6-2.2,11.5-1.7,15.6-0.3s9.1,4.9,9.4,10.7C41.5,34.7,37.5,37.7,37.5,37.7z"/>
</g>
</svg>
