<?xml version="1.0" encoding="utf-8"?>
<!-- Generator: Adobe Illustrator 22.0.1, SVG Export Plug-In . SVG Version: 6.00 Build 0)  -->
<svg version="1.1" id="圖層_1" xmlns="http://www.w3.org/2000/svg" xmlns:xlink="http://www.w3.org/1999/xlink" x="0px" y="0px"
	 width="50px" height="100px" viewBox="0 0 50 100" style="enable-background:new 0 0 50 100;" xml:space="preserve">
<style type="text/css">
	.st0{fill:url(#SVGID_1_);}
	.st1{fill:#FFFFFF;}
	.st2{fill:url(#SVGID_2_);}
</style>
<g>
	
		<linearGradient id="SVGID_1_" gradientUnits="userSpaceOnUse" x1="42.6777" y1="1324.6776" x2="7.3223" y2="1289.3224" gradientTransform="matrix(1 0 0 1 0 -1282)">
		<stop  offset="0" style="stop-color:#F37A3F"/>
		<stop  offset="1" style="stop-color:#FFA23E"/>
	</linearGradient>
	<circle class="st0" cx="25" cy="25" r="25"/>
	<path class="st1" d="M23.9,15.8v1.5c0,0-4-0.3-4.6,3.4s2.9,4.9,4.5,5.5s2.7,0.9,2.7,2S22,29,19.2,27.4V31c0,0,2.3,1.3,4.7,1.2v2.1
		h2.3V32c0,0,4.6-0.2,4.6-4.2S26,23.1,26,23.1s-2.9-0.9-2.7-1.8c0.4-1.6,4.6-0.7,5.9,0.2l1.4-3.1c0,0-3.2-1.2-4.4-1v-1.5h-2.3V15.8z
		"/>
	<g>
		<path class="st1" d="M23.3,10.9c6.6-0.8,12.7,3.3,14.8,9.2h-2.3L39,27l3.2-6.9h-1.9C38.3,13,31,8.2,23.2,9
			c-6.5,0.7-11.9,5.2-13.5,11.6l1.9,0.5C12.9,15.6,17.6,11.5,23.3,10.9z"/>
		<path class="st1" d="M26.7,39.1c-5.9,0.7-11.4-2.5-14-7.4l2-0.5l-4.4-5.6l-1.8,7.3l2.2-0.6c2.9,5.9,9.4,9.5,16.2,8.8
			c4-0.5,7.6-2.4,10.1-5.3c1.1-1.2,2-2.7,2.7-4.3l-1.8-0.7C36,35.3,31.7,38.5,26.7,39.1z"/>
	</g>
</g>
<g>
	
		<linearGradient id="SVGID_2_" gradientUnits="userSpaceOnUse" x1="42.6777" y1="1374.6776" x2="7.3223" y2="1339.3224" gradientTransform="matrix(1 0 0 1 0 -1282)">
		<stop  offset="0" style="stop-color:#F37A3F"/>
		<stop  offset="1" style="stop-color:#FFA23E"/>
	</linearGradient>
	<circle class="st2" cx="25" cy="75" r="25"/>
	<g>
		<path class="st1" d="M37.8,77.5c0.1-0.2,0.1-0.4,0.4-0.4c0.6-0.1,1.1-0.1,1.7-0.2v-3.8C39.3,73,38.6,73,38,72.8
			c-0.1,0-0.2-0.1-0.2-0.2c-0.2-0.7-0.4-1.4-0.6-2.2c0-0.1,0.1-0.2,0.1-0.3c0.5-0.4,1-0.7,1.4-1.1c-0.6-1.1-1.3-2.2-1.9-3.2
			c-0.7,0.2-1.3,0.5-1.8,0.7c-0.5-0.5-1.1-1.2-1.8-1.8c0.2-0.5,0.5-1.1,0.7-1.8c-1.1-0.6-2.2-1.3-3.2-1.9c-0.4,0.5-0.7,0.9-1,1.4
			c-0.1,0.2-0.3,0.2-0.5,0.2c-0.6-0.2-1.3-0.4-1.9-0.5c-0.2-0.1-0.3-0.1-0.3-0.4C27,61.2,27,60.6,26.9,60h-3.7
			c-0.1,0.6-0.2,1.2-0.2,1.8c0,0.2-0.1,0.3-0.3,0.4c-0.7,0.2-1.3,0.4-2,0.5c-0.2,0.1-0.3,0.1-0.4-0.1c-0.4-0.5-0.7-1-1.1-1.4
			c-1.1,0.7-2.2,1.3-3.2,1.9c0.3,0.7,0.5,1.3,0.7,1.8c-0.7,0.7-1.2,1.3-1.9,1.9c-0.5-0.2-1.1-0.5-1.8-0.7c-0.7,1.1-1.3,2.2-1.9,3.2
			c0.5,0.4,1,0.8,1.4,1.1c0.1,0.1,0.2,0.2,0.1,0.4c-0.2,0.7-0.4,1.4-0.5,2.1c-0.1,0.2-0.1,0.2-0.2,0.2c-0.6,0.1-1.2,0.2-1.8,0.2v3.7
			c0.7,0.1,1.3,0.2,2,0.2c0.2,0.7,0.4,1.4,0.6,2.1c0.1,0.3,0.1,0.5-0.2,0.7c-0.4,0.3-0.8,0.7-1.3,1c0.3,0.5,0.6,1.1,1,1.6
			c0.1-0.1,0.1-0.2,0.2-0.3c1.1-1.1,2.3-2.3,3.5-3.5c0.2-0.2,0.2-0.3,0.1-0.5c-0.6-1.7-0.7-3.3-0.4-5.1c1.1-5.1,5.9-8.5,11.2-7.6
			c5.5,0.9,9.1,6.5,7.6,11.9c-1.4,5.5-7.2,8.5-12.5,6.7c-0.2-0.1-0.3-0.1-0.5,0.1c-1.2,1.2-2.3,2.3-3.5,3.5
			c-0.1,0.1-0.1,0.1-0.2,0.2c0.5,0.3,1.1,0.6,1.6,0.9c0.4-0.5,0.7-1,1.1-1.4c0.1-0.1,0.1-0.2,0.3-0.1c0.7,0.2,1.4,0.4,2.2,0.6
			c0.1,0,0.2,0.1,0.2,0.2c0.1,0.6,0.2,1.3,0.2,1.9h3.7c0.1-0.6,0.2-1.2,0.2-1.9c0-0.2,0.1-0.2,0.2-0.2c0.7-0.2,1.4-0.4,2.1-0.5
			c0.2-0.1,0.2,0,0.4,0.1c0.4,0.5,0.7,1,1.1,1.4c1.1-0.6,2.2-1.3,3.2-1.9c-0.2-0.7-0.5-1.3-0.7-1.8c0.7-0.7,1.3-1.3,1.9-1.9
			c0.5,0.2,1.1,0.5,1.8,0.7c0.6-1.1,1.3-2.2,1.9-3.2c-0.5-0.4-0.9-0.7-1.4-1c-0.2-0.1-0.2-0.3-0.2-0.5C37.5,78.7,37.7,78,37.8,77.5z
			"/>
		<path class="st1" d="M23.4,80c2.8,0.9,5.7-0.7,6.6-3.5c0.4-1.3,0.3-2.6-0.3-3.8c-0.1,0.1-0.2,0.1-0.2,0.2c-1,1-2,2-2.9,2.9
			c-0.3,0.3-0.5,0.7-0.8,0.8c-0.4,0.1-0.8,0.1-1.2,0.1c-0.1,0-0.3-0.1-0.4-0.2c-0.3-0.3-0.7-0.5-0.8-0.9c-0.1-0.4-0.1-0.8-0.1-1.2
			c0-0.1,0.1-0.3,0.2-0.4c1.2-1.2,2.4-2.4,3.6-3.6c0.1-0.1,0.1-0.2,0.2-0.2c-0.1-0.1-0.2-0.1-0.2-0.1c-2-0.8-3.9-0.5-5.6,1
			c-1.6,1.5-2.1,3.3-1.5,5.4c0.1,0.2,0.1,0.4-0.1,0.6c-2.7,2.7-5.4,5.4-8.1,8.1c-0.1,0.1-0.2,0.2-0.3,0.4c-0.7,0.9-0.6,2.2,0.3,2.9
			c0.9,0.7,2.2,0.7,3-0.2c2.7-2.7,5.4-5.4,8.2-8.2C23,80,23.1,80,23.4,80z"/>
	</g>
</g>
</svg>
