<?xml version="1.0" encoding="utf-8"?>
<!-- Generator: Adobe Illustrator 22.0.1, SVG Export Plug-In . SVG Version: 6.00 Build 0)  -->
<svg version="1.1" id="圖層_1" xmlns="http://www.w3.org/2000/svg" xmlns:xlink="http://www.w3.org/1999/xlink" x="0px" y="0px"
	 width="55px" height="55px" viewBox="0 0 55 55" style="enable-background:new 0 0 55 55;" xml:space="preserve">
<style type="text/css">
	.st0{fill:#FF3B30;}
</style>
<g>
	<path class="st0" d="M23.5,44c0,2.2,1.8,4,4,4c2.2,0,4-1.8,4-4v-4.7c1.1-1,1.7-2.5,1.7-4.1c0-3.1-2.6-5.7-5.7-5.7
		c-3.1,0-5.7,2.6-5.7,5.7c0,1.5,0.6,2.9,1.7,4.1V44z M29.2,36.9c-0.6,0.6-0.9,1.3-0.9,2.1v5c0,0.5-0.4,0.8-0.8,0.8
		c-0.5,0-0.8-0.4-0.8-0.8v-5c0-0.8-0.3-1.5-0.9-2.1c-0.5-0.4-0.8-1.1-0.8-1.8c0-1.4,1.1-2.5,2.5-2.5c1.3,0,2.5,1.2,2.5,2.5
		C30,35.9,29.7,36.5,29.2,36.9L29.2,36.9z"/>
	<path class="st0" d="M43.4,22.3h-3.7V12.1C39.6,5.4,34.2,0,27.5,0S15.4,5.4,15.4,12.1v10.2h-3.7c-2.3,0-4.2,1.9-4.2,4.2v24.3
		c0,2.3,1.9,4.2,4.2,4.2h31.7c2.3,0,4.2-1.9,4.2-4.2V26.5C47.6,24.2,45.7,22.3,43.4,22.3z M27.5,3.1c5,0,9.1,4.1,9.1,9.1v10.2H18.4
		V12.1C18.4,7.1,22.5,3.1,27.5,3.1z M10.6,26.5c0-0.6,0.5-1,1-1h31.7c0.6,0,1,0.5,1,1v24.3c0,0.6-0.5,1-1,1H11.6c-0.6,0-1-0.5-1-1
		V26.5z"/>
</g>
</svg>
