<?xml version="1.0" encoding="utf-8"?>
<!-- Generator: Adobe Illustrator 22.0.1, SVG Export Plug-In . SVG Version: 6.00 Build 0)  -->
<svg version="1.1" id="圖層_1" xmlns="http://www.w3.org/2000/svg" xmlns:xlink="http://www.w3.org/1999/xlink" x="0px" y="0px"
	 width="50px" height="100px" viewBox="0 0 50 100" style="enable-background:new 0 0 50 100;" xml:space="preserve">
<style type="text/css">
	.st0{fill:#FFFFFF;}
	.st1{fill:#2782D7;}
</style>
<g>
	<path class="st0" d="M43.6,70.4c0.1-0.5,0.1-1.1,0.1-1.6c0-6.9-5.6-12.5-12.5-12.5c-4,0-7.7,1.9-10,5c-0.8-0.2-1.7-0.3-2.5-0.3
		c-6,0-10.9,4.9-10.9,10.9c0,0.2,0,0.3,0,0.5C3.3,73.7,0,77.9,0,82.8c0,6,4.9,10.9,10.9,10.9h26.6c6.9,0,12.5-5.6,12.5-12.5
		C50,76.7,47.5,72.6,43.6,70.4z M37.5,90.6H10.9c-4.3,0-7.8-3.5-7.8-7.8c0-4.3,3.5-7.8,7.8-7.8c0.2,0,0.5,0,0.7,0.1
		c-0.4-1-0.7-2.1-0.7-3.2c0-4.3,3.5-7.8,7.8-7.8c1.4,0,2.7,0.4,3.9,1.1c1.4-3.4,4.8-5.7,8.6-5.7c5.2,0,9.4,4.2,9.4,9.4
		c0,1.2-0.3,2.4-0.7,3.5c4,1.1,6.9,4.7,6.9,9C46.9,86.4,42.7,90.6,37.5,90.6z"/>
	<polygon class="st0" points="28.1,68.8 21.9,68.8 21.9,78.1 15.6,78.1 25,87.5 34.4,78.1 28.1,78.1 	"/>
</g>
<g>
	<path class="st1" d="M43.6,20.4c0.1-0.5,0.1-1.1,0.1-1.6c0-6.9-5.6-12.5-12.5-12.5c-4,0-7.7,1.9-10,5c-0.8-0.2-1.7-0.3-2.5-0.3
		c-6,0-10.9,4.9-10.9,10.9c0,0.2,0,0.3,0,0.5C3.3,23.7,0,27.9,0,32.8c0,6,4.9,10.9,10.9,10.9h26.6c6.9,0,12.5-5.6,12.5-12.5
		C50,26.7,47.5,22.6,43.6,20.4z M37.5,40.6H10.9c-4.3,0-7.8-3.5-7.8-7.8c0-4.3,3.5-7.8,7.8-7.8c0.2,0,0.5,0,0.7,0.1
		c-0.4-1-0.7-2.1-0.7-3.2c0-4.3,3.5-7.8,7.8-7.8c1.4,0,2.7,0.4,3.9,1.1c1.4-3.4,4.8-5.7,8.6-5.7c5.2,0,9.4,4.2,9.4,9.4
		c0,1.2-0.3,2.4-0.7,3.5c4,1.1,6.9,4.7,6.9,9C46.9,36.4,42.7,40.6,37.5,40.6z"/>
	<polygon class="st1" points="28.1,18.8 21.9,18.8 21.9,28.1 15.6,28.1 25,37.5 34.4,28.1 28.1,28.1 	"/>
</g>
</svg>
