<?xml version="1.0" encoding="utf-8"?>
<!-- Generator: Adobe Illustrator 22.0.1, SVG Export Plug-In . SVG Version: 6.00 Build 0)  -->
<svg version="1.1" id="Capa_1" xmlns="http://www.w3.org/2000/svg" xmlns:xlink="http://www.w3.org/1999/xlink" x="0px" y="0px"
	 width="50px" height="50px" viewBox="0 0 50 50" style="enable-background:new 0 0 50 50;" xml:space="preserve">
<style type="text/css">
	.st0{fill:#C6C6CA;}
</style>
<path class="st0" d="M48.4,45.5L36.5,33.2c3.1-3.6,4.7-8.2,4.7-13C41.2,9.1,32.2,0,21.1,0S0.9,9.1,0.9,20.2
	c0,11.1,9.1,20.2,20.2,20.2c4.2,0,8.2-1.3,11.6-3.7l12,12.5c0.5,0.5,1.2,0.8,1.9,0.8c0.7,0,1.3-0.3,1.8-0.7
	C49.4,48.3,49.4,46.6,48.4,45.5z M21.1,5.3C29.3,5.3,36,12,36,20.2c0,8.2-6.7,14.9-14.9,14.9S6.1,28.4,6.1,20.2S12.8,5.3,21.1,5.3z"
	/>
</svg>
