<?xml version="1.0" encoding="utf-8"?>
<!-- Generator: Adobe Illustrator 22.0.1, SVG Export Plug-In . SVG Version: 6.00 Build 0)  -->
<svg version="1.1" id="圖層_1" xmlns="http://www.w3.org/2000/svg" xmlns:xlink="http://www.w3.org/1999/xlink" x="0px" y="0px"
	 width="50px" height="50px" viewBox="0 0 50 50" style="enable-background:new 0 0 50 50;" xml:space="preserve">
<style type="text/css">
	.st0{fill:#FFFFFF;}
</style>
<g>
	<path class="st0" d="M46.4,29.1c0.1-0.4,0.2-0.6,0.6-0.6c1-0.1,1.9-0.2,2.9-0.4v-6.3c-1-0.1-2.1-0.2-3.1-0.4
		c-0.1,0-0.3-0.2-0.4-0.3c-0.3-1.2-0.7-2.4-1-3.6c0-0.1,0.1-0.4,0.2-0.5c0.8-0.6,1.6-1.2,2.4-1.9c-1-1.8-2.1-3.6-3.1-5.4
		c-1.1,0.4-2.1,0.9-3,1.2C41,10,40,8.9,38.9,7.9c0.4-0.8,0.8-1.9,1.2-3c-1.8-1-3.6-2.1-5.4-3.1c-0.6,0.8-1.2,1.5-1.7,2.3
		c-0.2,0.4-0.5,0.4-0.9,0.3C31.1,4,30,3.8,29,3.5c-0.3-0.1-0.5-0.2-0.5-0.6c-0.1-1-0.2-2-0.4-3h-6.2c-0.1,1-0.3,2-0.4,3
		c0,0.4-0.2,0.5-0.5,0.6c-1.1,0.3-2.2,0.6-3.3,0.9c-0.3,0.1-0.5,0.1-0.7-0.2c-0.6-0.8-1.2-1.6-1.8-2.4c-1.8,1.1-3.6,2.1-5.4,3.1
		C10.3,6,10.7,7,11,7.9C9.9,9,9,10,7.9,11C7,10.7,6,10.2,4.9,9.8c-1.1,1.8-2.1,3.6-3.1,5.4c0.8,0.6,1.6,1.3,2.4,1.9
		c0.2,0.2,0.3,0.3,0.2,0.6c-0.3,1.2-0.6,2.3-0.9,3.5c-0.1,0.3-0.1,0.4-0.4,0.4c-1,0.1-2,0.3-3,0.4v6.2c1.1,0.1,2.2,0.3,3.3,0.4
		c0.3,1.2,0.6,2.4,1,3.5c0.2,0.5,0.1,0.8-0.4,1.1c-0.7,0.5-1.4,1.1-2.2,1.6c0.5,0.9,1,1.8,1.6,2.7c0.2-0.2,0.2-0.4,0.3-0.5
		c1.9-1.9,3.9-3.9,5.8-5.8c0.3-0.3,0.3-0.5,0.2-0.9c-1-2.8-1.2-5.6-0.6-8.5C10.9,13.2,19,7.6,27.8,9.1C37,10.6,43,20,40.6,29
		c-2.4,9.2-12,14.3-21,11.2c-0.3-0.1-0.5-0.1-0.8,0.2c-2,2-3.9,3.9-5.9,5.9c-0.1,0.1-0.2,0.2-0.3,0.4c0.9,0.5,1.8,1,2.6,1.5
		c0.6-0.8,1.2-1.6,1.8-2.4c0.1-0.2,0.2-0.3,0.5-0.2c1.2,0.3,2.4,0.6,3.6,1c0.1,0,0.3,0.2,0.3,0.4c0.2,1,0.3,2.1,0.4,3.1h6.2
		c0.1-1,0.3-2,0.4-3.1c0-0.3,0.2-0.4,0.4-0.4c1.2-0.3,2.3-0.6,3.5-0.9c0.3-0.1,0.4,0,0.6,0.2c0.6,0.8,1.2,1.6,1.8,2.4
		c1.8-1,3.6-2.1,5.4-3.1c-0.4-1.1-0.9-2.1-1.2-3C40,41,41,40,42.1,39c0.8,0.4,1.9,0.8,3,1.2c1-1.8,2.1-3.6,3.1-5.4
		c-0.8-0.6-1.5-1.2-2.3-1.7c-0.4-0.2-0.4-0.5-0.3-0.9C45.9,31.2,46.2,30.1,46.4,29.1z"/>
	<path class="st0" d="M22.3,33.4c4.7,1.5,9.6-1.1,11.1-5.8c0.7-2.2,0.5-4.3-0.5-6.4c-0.2,0.1-0.3,0.2-0.4,0.4
		c-1.6,1.6-3.3,3.3-4.9,4.9c-0.5,0.5-0.9,1.1-1.4,1.4c-0.6,0.2-1.3,0.1-2,0.1c-0.2,0-0.5-0.1-0.7-0.3c-0.5-0.5-1.1-0.9-1.4-1.5
		c-0.2-0.6-0.1-1.3-0.1-2c0-0.2,0.1-0.5,0.3-0.7c2-2,4-4,6-6.1c0.1-0.1,0.2-0.3,0.4-0.4c-0.2-0.1-0.3-0.2-0.4-0.2
		c-3.4-1.3-6.6-0.8-9.3,1.7c-2.7,2.5-3.5,5.6-2.5,9.1c0.1,0.4,0.1,0.7-0.2,1c-4.5,4.5-9,9-13.5,13.6c-0.2,0.2-0.4,0.4-0.5,0.6
		c-1.2,1.5-1,3.7,0.5,4.9c1.5,1.2,3.6,1.1,5-0.3c4.6-4.6,9.1-9.1,13.7-13.7C21.7,33.4,21.9,33.3,22.3,33.4z"/>
</g>
</svg>
