<?xml version="1.0" encoding="utf-8"?>
<!-- Generator: Adobe Illustrator 22.0.1, SVG Export Plug-In . SVG Version: 6.00 Build 0)  -->
<svg version="1.1" id="Capa_1" xmlns="http://www.w3.org/2000/svg" xmlns:xlink="http://www.w3.org/1999/xlink" x="0px" y="0px"
	 width="50px" height="50px" viewBox="0 0 50 50" style="enable-background:new 0 0 50 50;" xml:space="preserve">
<style type="text/css">
	.st0{fill:#F54B6F;}
</style>
<g>
	<path class="st0" d="M25,0C11.2,0,0,11.2,0,25s11.2,25,25,25s25-11.2,25-25S38.8,0,25,0z M25,46.7C13,46.7,3.3,37,3.3,25
		S13,3.3,25,3.3S46.7,13,46.7,25S37,46.7,25,46.7z"/>
	<path class="st0" d="M25,11.5c-4.4,0-8,3.5-8,8c0,0.9,0.7,1.6,1.6,1.6c0.9,0,1.6-0.7,1.6-1.6c0-2.5,2.1-4.7,4.7-4.7
		c2.5,0,4.7,2.1,4.7,4.7c0,2.5-2.1,4.7-4.7,4.7c-0.9,0-1.6,0.7-1.6,1.6v5.7c0,0.9,0.7,1.6,1.6,1.6s1.6-0.7,1.6-1.6v-4.3
		c3.6-0.7,6.4-4,6.4-7.8C33,15,29.4,11.5,25,11.5z"/>
	<path class="st0" d="M25,34.2c-1.1,0-2.1,0.9-2.1,2.1c0,1.2,0.9,2.1,2.1,2.1s2.1-0.9,2.1-2.1C27.1,35.2,26.2,34.2,25,34.2z"/>
</g>
</svg>
