<?xml version="1.0" encoding="utf-8"?>
<!-- Generator: Adobe Illustrator 26.0.3, SVG Export Plug-In . SVG Version: 6.00 Build 0)  -->
<svg version="1.1" id="Livello_1" xmlns="http://www.w3.org/2000/svg" xmlns:xlink="http://www.w3.org/1999/xlink" x="0px" y="0px"
	 width="80px" height="80px" viewBox="0 0 80 80" style="enable-background:new 0 0 80 80;" xml:space="preserve">
<style type="text/css">
	.st0{fill-rule:evenodd;clip-rule:evenodd;fill:url(#Oval_00000170984149095485627700000014860549955995416235_);}
	.st1{fill-rule:evenodd;clip-rule:evenodd;fill:#FFFFFF;}
</style>
<g id="Artboard">
	
		<linearGradient id="Oval_00000167376541407906178700000005839486341260354464_" gradientUnits="userSpaceOnUse" x1="-1341.667" y1="649.879" x2="-1341.667" y2="649.7997" gradientTransform="matrix(1000 0 0 -1000 1341707 649878.9375)">
		<stop  offset="0" style="stop-color:#2AABEE"/>
		<stop  offset="1" style="stop-color:#229ED9"/>
	</linearGradient>
	
		<circle id="Oval" style="fill-rule:evenodd;clip-rule:evenodd;fill:url(#Oval_00000167376541407906178700000005839486341260354464_);" cx="40" cy="40" r="40"/>
	<path id="Path-3" class="st1" d="M18.1,39.6c11.6-5,19.4-8.5,23.3-10c11.1-4.7,13.5-5.5,15-5.5c0.4,0,1.1,0.1,1.6,0.4
		c0.4,0.4,0.5,0.8,0.5,1.1s0.2,1.1,0.1,1.6c-0.6,6.3-3.2,21.7-4.5,28.7c-0.5,3-1.7,4-2.7,4.1c-2.3,0.2-4.1-1.5-6.3-3
		c-3.5-2.3-5.5-3.7-8.9-6c-4-2.6-1.4-4.1,0.9-6.3c0.6-0.6,10.8-10,11-10.7c0-0.1,0-0.5-0.2-0.7C47.6,33,47.3,33,47,33.1
		c-0.4,0.1-6,3.8-16.8,11.2c-1.6,1.1-3,1.7-4.3,1.6c-1.4,0-4.1-0.8-6.3-1.5c-2.5-0.8-4.5-1.2-4.3-2.6C15.2,41.1,16.3,40.4,18.1,39.6
		z"/>
</g>
</svg>
