<?xml version="1.0" encoding="utf-8"?>
<!-- Generator: Adobe Illustrator 16.0.0, SVG Export Plug-In . SVG Version: 6.00 Build 0)  -->
<!DOCTYPE svg PUBLIC "-//W3C//DTD SVG 1.1//EN" "http://www.w3.org/Graphics/SVG/1.1/DTD/svg11.dtd">
<svg version="1.1" id="圖層_1" xmlns="http://www.w3.org/2000/svg" xmlns:xlink="http://www.w3.org/1999/xlink" x="0px" y="0px"
	 width="31px" height="28px" viewBox="0 0 31 28" enable-background="new 0 0 31 28" xml:space="preserve">
<path fill="#FFAE00" d="M30.3,20.6L19.7,2.5c-1.9-3.3-6.6-3.3-8.5,0L0.7,20.6C-1.2,23.9,1.1,28,4.9,28H26
	C29.9,28,32.2,23.9,30.3,20.6z"/>
<path fill="#FFFFFF" d="M15.5,7"/>
<path fill="#FFFFFF" d="M15.5,17.8c0.6,0,1-0.399,1.1-1.1L17.7,7.3c0.1-0.7-0.3-1.3-1-1.3h-2.4c-0.7,0-1.1,0.6-1,1.3l1.1,9.4
	C14.4,17.4,14.9,17.8,15.5,17.8z"/>
<path fill="#FFFFFF" d="M15.5,19.6c-1.2,0-2.1,0.9-2.1,2.101s0.9,2.1,2.1,2.1s2.1-0.899,2.1-2.1C17.6,20.4,16.7,19.5,15.5,19.6z"/>
<path fill="#FFFFFF" d="M15.5,23.8c-1.2,0-2.1-0.899-2.1-2.1s0.9-2.101,2.1-2.101c1.2-0.1,2.1,0.801,2.1,2.101
	C17.6,22.9,16.7,23.8,15.5,23.8z"/>
<path fill="#FFFFFF" d="M14.3,6h2.4c0.7,0,1.1,0.6,1,1.3L16.6,16.7c-0.1,0.7-0.5,1.1-1.1,1.1c-0.6,0-1.1-0.399-1.1-1.1l-1.1-9.4
	C13.2,6.6,13.6,6,14.3,6z"/>
</svg>
