<?xml version="1.0" encoding="utf-8"?>
<!-- Generator: Adobe Illustrator 22.0.1, SVG Export Plug-In . SVG Version: 6.00 Build 0)  -->
<svg version="1.1" id="Layer_1" xmlns="http://www.w3.org/2000/svg" xmlns:xlink="http://www.w3.org/1999/xlink" x="0px" y="0px"
	 width="50px" height="50px" viewBox="0 0 50 50" style="enable-background:new 0 0 50 50;" xml:space="preserve">
<style type="text/css">
	.st0{fill:#D44351;}
</style>
<g>
	<g>
		<path class="st0" d="M44.5,2.4l-2.1-2.1C42.2,0.1,41.9,0,41.6,0c-0.3,0-0.6,0.2-0.8,0.4c0,0-3,3.8-7.5,3.8c-2.2,0-3.9-0.9-5.6-1.9
			C25.9,1.2,23.8,0,20.8,0c-3.8,0-7.3,2.3-9.4,3.9V1c0-0.6-0.5-1-1-1H6.3c-0.6,0-1,0.5-1,1v20.8c0,0.6,0.5,1,1,1h4.2
			c0.6,0,1-0.5,1-1v-4.2c0-2.2,1-3.1,3.1-3.1c0.6,0,1.5,0.3,2.5,0.6c1.8,0.6,4.4,1.5,7.9,1.5c2.3,0,4-0.2,5.2-0.4
			c-1.6,2.7-4.6,7.2-7.7,8.8c-5.3,2.8-11,12-11,23.8c0,0.6,0.5,1,1,1h20.8c0.3,0,0.7-0.2,0.9-0.5c0.2-0.3,0.2-0.7,0.1-1
			c0,0-2-5-2-10c0-5.2,9.2-31.5,12.2-34.7C44.9,3.4,44.9,2.8,44.5,2.4z M30.2,38.5c0,3.8,1,7.4,1.6,9.4H13.6
			c0.3-10.5,5.2-18.6,9.8-20.9c5.3-2.7,9.6-11.6,9.8-11.9c0.2-0.4,0.1-0.9-0.2-1.2c-0.3-0.3-0.8-0.4-1.2-0.2c0,0-1.8,0.9-6.8,0.9
			c-3.2,0-5.5-0.8-7.3-1.3c-1.2-0.4-2.2-0.7-3.2-0.7c-3.3,0-5.2,1.9-5.2,5.2v3.1H7.3V2.1h2.1v4.2c0,0.4,0.3,0.8,0.7,1
			c0.4,0.2,0.8,0.1,1.1-0.2c0,0,4.8-4.9,9.7-4.9c2.4,0,4.1,1,5.9,2c1.9,1.1,3.8,2.2,6.6,2.2c4.1,0,7-2.4,8.4-3.7l0.7,0.7
			C38.6,8.9,30.2,33,30.2,38.5z"/>
	</g>
</g>
</svg>
