<?xml version="1.0" encoding="utf-8"?>
<!-- Generator: Adobe Illustrator 24.3.0, SVG Export Plug-In . SVG Version: 6.00 Build 0)  -->
<svg version="1.1" id="圖層_1" xmlns="http://www.w3.org/2000/svg" xmlns:xlink="http://www.w3.org/1999/xlink" x="0px" y="0px"
	 width="50px" height="50px" viewBox="0 0 50 50" style="enable-background:new 0 0 50 50;" xml:space="preserve">
<style type="text/css">
	.st0{fill:#836634;}
	.st1{fill:#FFFFFF;}
</style>
<g>
	<circle class="st0" cx="25" cy="25" r="25"/>
	<g>
		<path class="st1" d="M22.9,13.1L16.7,30c-0.2,0.6-0.4,1.2-0.6,1.9c0,0.1-0.1,0.3-0.1,0.4c-0.3-0.8-0.5-1.5-0.7-2.3l-6-16.8H4.8
			L14,36.9h3.7L27,13.1H22.9z"/>
		<path class="st1" d="M37.3,36.4V17.6c-1.1,0.8-3.4,1.6-4.6,1.8v-2.7c1.8-0.5,4-1.7,5.6-3.2h2.5v23L37.3,36.4L37.3,36.4z"/>
	</g>
</g>
</svg>
