<?xml version="1.0" encoding="utf-8"?>
<!-- Generator: Adobe Illustrator 22.0.1, SVG Export Plug-In . SVG Version: 6.00 Build 0)  -->
<svg version="1.1" id="Layer_1" xmlns="http://www.w3.org/2000/svg" xmlns:xlink="http://www.w3.org/1999/xlink" x="0px" y="0px"
	 width="50px" height="50px" viewBox="0 0 50 50" style="enable-background:new 0 0 50 50;" xml:space="preserve">
<style type="text/css">
	.st0{fill:#648FB2;}
</style>
<g>
	<path class="st0" d="M47.5,42.8L44.6,6.7c-0.2-2.8-2.7-4.8-5.4-4.6L36,2.3c0.1,0.2,0.1,0.4,0.2,0.6L45,37.3
		c0.8,3.2-1.1,6.5-4.3,7.4L19.7,50c0.2,0,0.4,0,0.6,0l22.5-1.8C45.6,48,47.7,45.5,47.5,42.8z"/>
	<polygon class="st0" points="24.4,30.2 24.4,30.2 24.4,30.2 	"/>
	<path class="st0" d="M43,37.7L34.1,3c-0.5-2.1-2.8-3.4-4.9-2.9L5.6,6.2c-2.1,0.5-3.4,2.8-2.9,4.9l8.9,34.7c0.5,2.1,2.8,3.4,4.9,2.9
		l23.7-6.1C42.3,42.1,43.6,39.9,43,37.7z M32,29.5c-1.8,2.9-6.3,2.5-6.3,2.5c0.3,3.2,2.6,4.1,2.6,4.1v0.3l-2.2,0.5l-2.7,0.6h-0.2
		c2-1.5,0.8-4.9,0.8-4.9c-9.1,3.9-12.3-4.1-8-10.4c4.1-5.9,4.1-8.9,4.1-8.9c1.4,2.7,5.9,4.7,9.6,7.5C33.3,23.6,33.8,26.6,32,29.5z"
		/>
</g>
</svg>
