<?xml version="1.0" encoding="utf-8"?>
<!-- Generator: Adobe Illustrator 21.0.0, SVG Export Plug-In . SVG Version: 6.00 Build 0)  -->
<svg version="1.1" id="圖層_1" xmlns="http://www.w3.org/2000/svg" xmlns:xlink="http://www.w3.org/1999/xlink" x="0px" y="0px" width="31px" height="28px"
	 viewBox="0 0 31 28" style="enable-background:new 0 0 31 28;" xml:space="preserve">
<style type="text/css">
	.st0{fill:none;}
	.st1{fill:#FFAE00;}
</style>
<path class="st0" d="M-25.9,22.7l-10,17.1c-2.1,3.6,0.5,8.1,4.7,8.1h20c4.2,0,6.8-4.5,4.7-8.1l-10-17.1
	C-18.7,19.1-23.8,19.1-25.9,22.7z"/>
<path class="st1" d="M30.3,20.6L19.7,2.5c-1.9-3.3-6.6-3.3-8.5,0L0.7,20.6C-1.2,23.9,1.1,28,4.9,28h21.1
	C29.9,28,32.2,23.9,30.3,20.6z M17.6,21.7c0,1.2-0.9,2.1-2.1,2.1c-1.2,0-2.1-0.9-2.1-2.1v0c0-1.2,0.9-2.1,2.1-2.1
	C16.7,19.5,17.6,20.4,17.6,21.7L17.6,21.7z M16.6,16.7c-0.1,0.7-0.5,1.1-1.1,1.1c-0.6,0-1.1-0.4-1.1-1.1l-1.1-9.4
	c-0.1-0.7,0.3-1.3,1-1.3h2.4c0.7,0,1.1,0.6,1,1.3L16.6,16.7z"/>
<path class="st1" d="M15.5,7"/>
</svg>
