<?xml version="1.0" encoding="utf-8"?>
<!-- Generator: Adobe Illustrator 22.0.1, SVG Export Plug-In . SVG Version: 6.00 Build 0)  -->
<svg version="1.1" id="Layer_1" xmlns="http://www.w3.org/2000/svg" xmlns:xlink="http://www.w3.org/1999/xlink" x="0px" y="0px"
	 width="50px" height="50px" viewBox="0 0 50 50" style="enable-background:new 0 0 50 50;" xml:space="preserve">
<style type="text/css">
	.st0{fill:#648FB2;}
</style>
<path class="st0" d="M49.6,22.3c-1-9.3-4.8-12.2-6.8-13.6c-2.1-1.4-7.4-0.2-9.3,0.2c-1.9,0.4-3.2,2.5-3.2,2.5l-0.6,0.4h0h-9.2h0
	l-0.6-0.4c0,0-1.3-2.1-3.2-2.5c-1.9-0.4-7.2-1.6-9.3-0.2C5.2,10.1,1.4,13,0.4,22.3c-1,9.3-0.8,18.8,6.1,19.6
	c6.8,0.8,10.1-7,11.5-9.4c0.8-1.5,1.3-1.4,1.3-1.4l5.7,0l5.7,0c0,0,0.5-0.1,1.3,1.4c1.4,2.5,4.6,10.3,11.5,9.4
	C50.3,41.1,50.6,31.6,49.6,22.3z M16.5,22.1c0,0.3-0.2,0.5-0.5,0.5h-2.6v2.6c0,0.3-0.2,0.5-0.5,0.5h-2.6c-0.3,0-0.5-0.2-0.5-0.5
	v-2.6H7.3c-0.3,0-0.5-0.2-0.5-0.5v-2.6C6.7,19.3,7,19,7.3,19h2.6v-2.6c0-0.3,0.2-0.5,0.5-0.5h2.6c0.3,0,0.5,0.2,0.5,0.5V19H16
	c0.3,0,0.5,0.2,0.5,0.5V22.1z M23.1,26.2h-1.6c-0.6,0-1.1-0.5-1.1-1.1c0-0.6,0.5-1.1,1.1-1.1h1.6c0.6,0,1.1,0.5,1.1,1.1
	C24.3,25.7,23.8,26.2,23.1,26.2z M28.3,26.2h-1.6c-0.6,0-1.1-0.5-1.1-1.1c0-0.6,0.5-1.1,1.1-1.1h1.6c0.6,0,1.1,0.5,1.1,1.1
	C29.5,25.7,29,26.2,28.3,26.2z M38.5,16c1,0,1.8,0.8,1.8,1.8c0,1-0.8,1.8-1.8,1.8c-1,0-1.8-0.8-1.8-1.8C36.8,16.8,37.6,16,38.5,16z
	 M35.5,22.5c-1,0-1.8-0.8-1.8-1.8c0-1,0.8-1.8,1.8-1.8c1,0,1.8,0.8,1.8,1.8C37.2,21.7,36.4,22.5,35.5,22.5z M38.5,25.5
	c-1,0-1.8-0.8-1.8-1.8c0-1,0.8-1.8,1.8-1.8c1,0,1.8,0.8,1.8,1.8C40.3,24.7,39.5,25.5,38.5,25.5z M41.5,22.5c-1,0-1.8-0.8-1.8-1.8
	c0-1,0.8-1.8,1.8-1.8c1,0,1.8,0.8,1.8,1.8C43.3,21.7,42.5,22.5,41.5,22.5z"/>
</svg>
