<?xml version="1.0" encoding="utf-8"?>
<!-- Generator: Adobe Illustrator 22.0.1, SVG Export Plug-In . SVG Version: 6.00 Build 0)  -->
<svg version="1.1" id="圖層_1" xmlns="http://www.w3.org/2000/svg" xmlns:xlink="http://www.w3.org/1999/xlink" x="0px" y="0px"
	 width="50px" height="50px" viewBox="0 0 50 50" style="enable-background:new 0 0 50 50;" xml:space="preserve">
<style type="text/css">
	.st0{fill:#888888;}
</style>
<path id="close-eye" class="st0" d="M27.9,29.6c-0.5,0-0.5,0.3-0.5,0.8v7.4c0,1.1-0.7,2-1.8,2.3c-1.2,0.3-2.5-0.5-2.7-1.7
	c0-0.2-0.1-0.4-0.1-0.5v-7.6c-0.8,0-6.6-1.8-6.6-1.8c-0.3,0-0.5-0.3-0.8,0l-5.3,5.3c-0.8,0.7-1.9,0.8-2.8,0.3
	c-0.9-0.6-1.2-1.8-0.8-2.8C6.8,31,6.8,30.8,7,30.5l4.6-4.6c0.1-0.1,0.2-0.3,0.3-0.5L11.7,25c-3.6-3.1-6-7.5-6.6-12.2
	c-0.3-1.3,0.5-2.5,1.8-2.8l0,0c1.3-0.3,2.3,0.5,2.5,2c1.3,8,8.4,13.8,16.5,13.5c7.3-0.5,13.3-6,14.5-13.2c0.3-1.5,1.3-2.3,2.5-2
	c1.3,0.3,2.2,1.5,2,2.8c-0.3,1.8-0.8,3.6-1.5,5.3c-1.3,2.9-3.2,5.4-5.6,7.4l5.1,5.1c0.9,0.8,1,2.3,0.1,3.2c-0.8,0.9-2.3,1-3.2,0.1
	c-0.1-0.1-6-6.2-6-6.2S28.4,29.6,27.9,29.6z"/>
</svg>
