<?xml version="1.0" encoding="utf-8"?>
<!-- Generator: Adobe Illustrator 26.0.3, SVG Export Plug-In . SVG Version: 6.00 Build 0)  -->
<svg version="1.1" id="圖層_1" xmlns="http://www.w3.org/2000/svg" xmlns:xlink="http://www.w3.org/1999/xlink" x="0px" y="0px"
	 width="50px" height="50px" viewBox="0 0 50 50" style="enable-background:new 0 0 50 50;" xml:space="preserve">
<style type="text/css">
	.st0{fill:#2782D7;}
</style>
<g>
	<path class="st0" d="M40.9,9.1C36.7,4.9,31,2.5,25,2.5S13.3,4.9,9.1,9.1S2.5,19,2.5,25s2.4,11.7,6.6,15.9c4.3,4.3,9.9,6.6,15.9,6.6
		s11.7-2.4,15.9-6.6C45,36.6,47.5,31,47.5,25S45.1,13.3,40.9,9.1z M25,45C14,45,5,36,5,25S14,5,25,5s20,9,20,20S36,45,25,45z"/>
	<g>
		<g>
			<g>
				<rect x="22.8" y="34" class="st0" width="4.5" height="4.5"/>
			</g>
		</g>
		<g>
			<g>
				<path class="st0" d="M33.8,18.4c-1.2-4.8-6-7.8-10.8-6.6c-4.1,1-7,4.6-6.9,8.8h4.5c0.2-2.5,2.4-4.3,4.9-4.1
					c2.5,0.2,4.3,2.4,4.1,4.9c-0.4,2.3-2.5,3.9-4.7,3.8c-1.1,0-2,0.9-2,2l0,0v4.7h4.5v-2.6C32,28,34.9,23.2,33.8,18.4z"/>
			</g>
		</g>
	</g>
</g>
</svg>
