<?xml version="1.0" encoding="utf-8"?>
<!-- Generator: Adobe Illustrator 22.0.1, SVG Export Plug-In . SVG Version: 6.00 Build 0)  -->
<svg version="1.1" id="Layer_1" xmlns="http://www.w3.org/2000/svg" xmlns:xlink="http://www.w3.org/1999/xlink" x="0px" y="0px"
	 width="50px" height="50px" viewBox="0 0 50 50" style="enable-background:new 0 0 50 50;" xml:space="preserve">
<style type="text/css">
	.st0{fill:#648FB2;}
</style>
<g>
	<path class="st0" d="M25,0C11.2,0,0,11.2,0,25c0,13.8,11.2,25,25,25c13.8,0,25-11.2,25-25C50,11.2,38.8,0,25,0z M25,35.3
		c-9.4,0-17-7.1-17-15.9c0-8.8,7.6-15.9,17-15.9c9.4,0,17,7.1,17,15.9C42,28.2,34.4,35.3,25,35.3z"/>
	<path class="st0" d="M29.7,18c0,0,3.8-1.5,3.8-5.5c0-6.8-7.6-6.6-8.5-6.6c-0.9,0-8.5-0.2-8.5,6.6c0,4,3.8,5.5,3.8,5.5
		s-4.7,1.4-4.7,6.3c0,5,3.8,8.1,9,8h0.8c5.2,0.1,9-3.1,9-8C34.4,19.4,29.7,18,29.7,18z M25.1,9.9c1.8,0,3.2,1.4,3.2,3.1
		s-1.4,3.1-3.2,3.1s-3.2-1.4-3.2-3.1S23.3,9.9,25.1,9.9z M25.1,28.4c-2.1,0-3.9-1.9-3.9-4.2s1.7-4.2,3.9-4.2s3.9,1.9,3.9,4.2
		S27.2,28.4,25.1,28.4z"/>
</g>
</svg>
