<?xml version="1.0" encoding="utf-8"?>
<!-- Generator: Adobe Illustrator 22.0.1, SVG Export Plug-In . SVG Version: 6.00 Build 0)  -->
<svg version="1.1" id="Layer_1" xmlns="http://www.w3.org/2000/svg" xmlns:xlink="http://www.w3.org/1999/xlink" x="0px" y="0px"
	 width="50px" height="50px" viewBox="0 0 50 50" style="enable-background:new 0 0 50 50;" xml:space="preserve">
<style type="text/css">
	.st0{fill:#648FB2;}
</style>
<g>
	<path class="st0" d="M4.7,17.8c0,0,11.6,4,15.3,5s8.6-1.9,8.6-1.9s9.2-8,11.8-10.8C43,7.2,39,5,39,5s-9.6-3.2-14.5-4.7
		s-9.3,1.9-9.3,1.9L3.8,12.5C0.9,16.3,4.7,17.8,4.7,17.8z M26.4,17.3c0.3,0.9-0.9,2.1-2.5,2.5c-1.7,0.5-3.2,0.1-3.5-0.8
		c-0.3-0.9,0.9-2.1,2.5-2.5C24.6,16,26.2,16.3,26.4,17.3z M25,10.6c0.3,0.9-0.9,2.1-2.5,2.5c-1.7,0.5-3.2,0.1-3.5-0.8
		c-0.3-0.9,0.9-2.1,2.5-2.5C23.2,9.3,24.7,9.7,25,10.6z M20,3.2c1.7-0.5,3.2-0.1,3.5,0.8C23.8,4.9,22.6,6,21,6.5
		c-1.7,0.5-3.2,0.1-3.5-0.8C17.2,4.7,18.4,3.6,20,3.2z"/>
	<path class="st0" d="M25.4,32c-1.2-5.3-6.9-7.9-6.9-7.9L4.6,19.6c-5.2-1-4.3,3.4-4.3,3.4s2.5,11.5,3.5,15.9s6.3,6.5,6.3,6.5
		s11.8,4,13.5,4.5c1.7,0.5,3.5-0.1,4.3-0.8c0.8-0.7,0.5-3.5,0.5-3.5S26.6,37.3,25.4,32z M4.9,26.8c-1-1.3-1.3-2.9-0.5-3.5
		c0.8-0.6,2.2,0,3.3,1.3c1,1.3,1.3,2.9,0.5,3.5S5.9,28.1,4.9,26.8z M10.9,41.4c-0.8,0.6-2.2,0-3.3-1.3c-1-1.3-1.3-2.9-0.5-3.5
		c0.8-0.6,2.2,0,3.3,1.3C11.4,39.3,11.6,40.8,10.9,41.4z M17.6,31.2c-1-1.3-1.3-2.9-0.5-3.5c0.8-0.6,2.2,0,3.3,1.3
		c1,1.3,1.3,2.9,0.5,3.5C20.1,33.1,18.6,32.5,17.6,31.2z M23.6,45.8c-0.8,0.6-2.2,0-3.3-1.3c-1-1.3-1.3-2.9-0.5-3.5
		c0.8-0.6,2.2,0,3.3,1.3C24.1,43.6,24.3,45.2,23.6,45.8z"/>
	<path class="st0" d="M49.6,27c-1.3-6-3-14-3-14s-2.1-3.9-5.3-1.2c-3.2,2.7-11.1,9.8-11.1,9.8s-4.1,4.4-3.1,9.1l3,15
		c0,0,1.6,4.1,4.3,2.3c2.8-1.8,12.5-10.8,12.5-10.8S50.8,33,49.6,27z M36.6,41.1c-0.6,1.6-1.8,2.6-2.7,2.2c-0.9-0.3-1.2-1.9-0.6-3.4
		c0.6-1.6,1.8-2.6,2.7-2.2C36.9,38,37.2,39.5,36.6,41.1z M43.7,18.8c-0.6,1.6-1.8,2.6-2.7,2.2c-0.9-0.3-1.2-1.9-0.6-3.4
		c0.6-1.6,1.8-2.6,2.7-2.2C44,15.7,44.3,17.3,43.7,18.8z"/>
</g>
</svg>
