<?xml version="1.0" encoding="utf-8"?>
<!-- Generator: Adobe Illustrator 22.0.1, SVG Export Plug-In . SVG Version: 6.00 Build 0)  -->
<svg version="1.1" id="Capa_1" xmlns="http://www.w3.org/2000/svg" xmlns:xlink="http://www.w3.org/1999/xlink" x="0px" y="0px"
	 width="50px" height="50px" viewBox="0 0 50 50" style="enable-background:new 0 0 50 50;" xml:space="preserve">
<style type="text/css">
	.st0{fill:#888888;}
</style>
<g>
	<path class="st0" d="M47.7,28.4c-1.9-3.7-4.8-7.2-8.5-9.9l4.2-4.2c0-0.1,0.1-0.2,0.1-0.2c0.1-0.2,0.2-0.3,0.3-0.5
		c0.4-0.9,0-2-0.7-2.5c-0.8-0.5-1.8-0.3-2.5,0.3l-4.9,4.9c-2.6-1.4-5.5-2.3-8.5-2.6V7c0,0,0-0.1,0-0.1c0-0.1-0.1-0.3-0.1-0.4
		c-0.1-0.5-0.4-0.9-0.8-1.2c-0.5-0.3-1.1-0.4-1.6-0.3c-1,0.3-1.6,1.1-1.6,2.1v6.5c-2.9,0.3-5.7,1.1-8.2,2.4c-2.1-2.2-4.8-4.9-4.8-5
		c-0.4-0.4-0.9-0.6-1.4-0.6c0,0,0,0-0.1,0c-0.6,0-1.1,0.3-1.4,0.7c-0.4,0.4-0.6,0.9-0.6,1.5c0,0.6,0.3,1.1,0.7,1.4l4.1,4.1
		c-3.9,2.8-7.1,6.5-9,10.3C2,29,2,29.6,2.3,30.1C6.3,37.9,15,45,25,45c11.3,0,19.6-8.8,22.7-14.9C48,29.6,48,29,47.7,28.4z M25,41.4
		c-8.1,0-14.9-5.4-19-12.2c4.1-6.7,10.9-12.2,19-12.2c8.2,0,15,5.4,19,12.2C39.9,36.1,33.1,41.4,25,41.4z"/>
	<path class="st0" d="M25,20.5c-4.8,0-8.8,3.9-8.8,8.8S20.2,38,25,38s8.8-3.9,8.8-8.8S29.8,20.5,25,20.5z M25,34.5
		c-2.9,0-5.2-2.3-5.2-5.2c0-2.9,2.3-5.2,5.2-5.2s5.2,2.3,5.2,5.2C30.2,32.1,27.9,34.5,25,34.5z"/>
</g>
</svg>
