<?xml version="1.0" encoding="utf-8"?>
<!-- Generator: Adobe Illustrator 22.0.1, SVG Export Plug-In . SVG Version: 6.00 Build 0)  -->
<svg version="1.1" id="Layer_1" xmlns="http://www.w3.org/2000/svg" xmlns:xlink="http://www.w3.org/1999/xlink" x="0px" y="0px"
	 width="50px" height="50px" viewBox="0 0 50 50" style="enable-background:new 0 0 50 50;" xml:space="preserve">
<style type="text/css">
	.st0{fill:#349075;}
</style>
<g>
	<path class="st0" d="M49.8,37.8c-0.4-0.3-1.7-1.5-2.4-0.8c-0.7,0.7-7.1,7.3-7.1,7.3l-4.2-3.7c0,0-0.5-0.3-1,0
		c-0.5,0.3-1.2,1.4-1.2,1.4s0.1,0.9,0.6,1.2c0.6,0.3,4.4,4.5,4.4,4.5s1.2,1.1,2.6,0c1.3-1.1,8.2-8.2,8.2-8.2S50.2,38.1,49.8,37.8z"
		/>
	<path class="st0" d="M30.6,27.2c1.8,0.5,3.9,2.1,3.9,2.1c2.2,0.3,2-1.6,2-1.6c-1-1-2.5-1.9-3.6-2.4c2.5-2.5,4-5.9,4-9.7
		C37,8,30.8,1.9,23.2,1.9S9.4,8,9.4,15.6c0,3.8,1.5,7.2,4,9.7C11,26.4,0.8,31.4,0,45.3c0,0,0,1.8,1.2,1.8s1.7-1.3,1.7-1.3
		S2,32.3,15.7,27.2c2.2,1.4,4.7,2.2,7.5,2.2C25.9,29.4,28.5,28.6,30.6,27.2z M23.2,4.6c6.1,0,11.1,5,11.1,11.1s-5,11.1-11.1,11.1
		s-11.1-5-11.1-11.1S17.1,4.6,23.2,4.6z"/>
</g>
</svg>
