<?xml version="1.0" encoding="utf-8"?>
<!-- Generator: Adobe Illustrator 22.0.1, SVG Export Plug-In . SVG Version: 6.00 Build 0)  -->
<svg version="1.1" id="圖層_1" xmlns="http://www.w3.org/2000/svg" xmlns:xlink="http://www.w3.org/1999/xlink" x="0px" y="0px"
	 width="52px" height="104px" viewBox="0 0 52 104" style="enable-background:new 0 0 52 104;" xml:space="preserve">
<style type="text/css">
	.st0{fill:#0C5D91;}
</style>
<g>
	<g>
		<g>
			<path d="M7.1,36.5c2,2.9,5.4,6.9,9.6,9.8c2.2,1.5,4.2,2.6,7.2,3c2.9,0.4,5.2-0.1,7.6-1.8c0,0,2.2-1.6,2.8-2.2
				c0.2-0.1,0.5-0.4,0.5-0.4c0.3-0.3,0.4-0.5,0.5-0.8c0.1-0.9-0.8-2.4-2.5-3.9c-2-1.8-3.8-2.8-4.9-2.8c0,0,0,0-0.1,0
				c-0.4,0-0.7,0.1-1.2,0.4c-0.1,0.1-1.2,0.8-1.7,1.3l-0.7,0.6c-0.7,0.7-1.6,1.6-2.8,1.7c-2.1,0.2-4-1.3-5.2-2.4
				c-2.2-2-4.1-4.4-5.6-7c-0.6-1-1.8-3.2-1.1-5.4c0.4-1.1,1.3-1.8,2.1-2.3L12,24c0.5-0.3,1-0.8,1.3-1c0.7-0.5,1.4-1.2,1.5-2
				c0.1-1.1-0.5-2.8-1.7-4.9c-0.6-1-2-3.3-3.2-3.5c-0.4-0.1-0.8,0.1-1.3,0.5C8.1,13.4,7,14.2,6.1,15l-0.5,0.4
				c-2.3,2.3-3.5,5-3.5,8.2C2.2,28.8,4.6,32.9,7.1,36.5z"/>
			<path d="M5.5,14.3L5.5,14.3L5.5,14.3z"/>
		</g>
		<path d="M24.6,22.2c-0.3,0.4-0.7,0.8-1.2,1.2s-1.1,0.9-1.8,1.5c-0.8,0.6-1.5,1.2-2,1.7s-1,1-1.2,1.4c-0.6,0.9-0.9,2.1-0.9,3.4h11
			v-2.7h-7c0.2-0.2,0.5-0.5,0.9-0.8s0.8-0.8,1.4-1.2c0.9-0.8,1.7-1.4,2.3-2c0.6-0.6,1.1-1.1,1.4-1.6s0.6-1,0.7-1.5
			c0.2-0.5,0.2-1.1,0.2-1.7c0-0.7-0.1-1.3-0.3-1.9s-0.6-1.1-1-1.5s-1-0.7-1.6-1c-0.6-0.2-1.4-0.4-2.2-0.4c-0.8,0-1.5,0.1-2.1,0.4
			c-0.6,0.3-1.2,0.6-1.7,1.1s-0.8,1-1.1,1.7c-0.3,0.7-0.5,1.4-0.5,2.2h3c0-0.5,0.1-0.9,0.3-1.2c0.1-0.4,0.3-0.7,0.5-0.9
			c0.2-0.2,0.4-0.4,0.7-0.5c0.3-0.1,0.6-0.2,0.9-0.2c0.7,0,1.3,0.2,1.7,0.6c0.4,0.4,0.6,0.9,0.6,1.6c0,0.4-0.1,0.8-0.2,1.2
			C25.1,21.4,24.9,21.8,24.6,22.2L24.6,22.2z"/>
		<path d="M39.4,31.5v-3.6h2v-2.7h-2v-10h-2.3L30,25.6v2.3h6.4v3.6H39.4z M33.2,25.2l3.2-4.8v4.8H33.2z"/>
		<path d="M29,2.6c-6.7,0-12.6,3.1-16.4,8c0.7,0.5,1.3,1.2,1.8,1.8C17.7,7.9,23,5,29.1,5c10.2,0,18.4,8.2,18.4,18.4
			c0,7.4-4.4,13.8-10.7,16.7c0.5,0.7,1,1.5,1.3,2.2c7-3.4,11.8-10.5,11.8-18.8C49.8,11.9,40.5,2.6,29,2.6z"/>
	</g>
	<g>
		<g>
			<path class="st0" d="M7.1,88.5c2,2.9,5.4,6.9,9.6,9.8c2.2,1.5,4.2,2.6,7.2,3c2.9,0.4,5.2-0.1,7.6-1.8c0,0,2.2-1.6,2.8-2.2
				c0.2-0.1,0.5-0.4,0.5-0.4c0.3-0.3,0.4-0.5,0.5-0.8c0.1-0.9-0.8-2.4-2.5-3.9c-2-1.8-3.8-2.8-4.9-2.8c0,0,0,0-0.1,0
				c-0.4,0-0.7,0.1-1.2,0.4c-0.1,0.1-1.2,0.8-1.7,1.3l-0.7,0.6c-0.7,0.7-1.6,1.6-2.8,1.7c-2.1,0.2-4-1.3-5.2-2.4
				c-2.2-2-4.1-4.4-5.6-7c-0.6-1-1.8-3.2-1.1-5.4c0.4-1.1,1.3-1.8,2.1-2.3L12,76c0.5-0.3,1-0.8,1.3-1c0.7-0.5,1.4-1.2,1.5-2
				c0.1-1.1-0.5-2.8-1.7-4.9c-0.6-1-2-3.3-3.2-3.5c-0.4-0.1-0.8,0.1-1.3,0.5C8.1,65.4,7,66.2,6.1,67l-0.5,0.4
				c-2.3,2.3-3.5,5-3.5,8.2C2.2,80.8,4.6,84.9,7.1,88.5z"/>
			<path class="st0" d="M5.5,66.3L5.5,66.3L5.5,66.3z"/>
		</g>
		<path class="st0" d="M24.6,74.2c-0.3,0.4-0.7,0.8-1.2,1.2c-0.5,0.4-1.1,0.9-1.8,1.5c-0.8,0.6-1.5,1.2-2,1.7s-1,1-1.2,1.4
			c-0.6,0.9-0.9,2.1-0.9,3.4h11v-2.7h-7c0.2-0.2,0.5-0.5,0.9-0.8s0.8-0.8,1.4-1.2c0.9-0.8,1.7-1.4,2.3-2c0.6-0.6,1.1-1.1,1.4-1.6
			s0.6-1,0.7-1.5c0.2-0.5,0.2-1.1,0.2-1.7c0-0.7-0.1-1.3-0.3-1.9c-0.2-0.6-0.6-1.1-1-1.5s-1-0.7-1.6-1c-0.6-0.2-1.4-0.4-2.2-0.4
			c-0.8,0-1.5,0.1-2.1,0.4c-0.6,0.3-1.2,0.6-1.7,1.1s-0.8,1-1.1,1.7c-0.3,0.7-0.5,1.4-0.5,2.2h3c0-0.5,0.1-0.9,0.3-1.2
			c0.1-0.4,0.3-0.7,0.5-0.9c0.2-0.2,0.4-0.4,0.7-0.5c0.3-0.1,0.6-0.2,0.9-0.2c0.7,0,1.3,0.2,1.7,0.6c0.4,0.4,0.6,0.9,0.6,1.6
			c0,0.4-0.1,0.8-0.2,1.2C25.1,73.4,24.9,73.8,24.6,74.2L24.6,74.2z"/>
		<path class="st0" d="M39.4,83.5v-3.6h2v-2.7h-2v-10h-2.3L30,77.6v2.3h6.4v3.6H39.4z M33.2,77.2l3.2-4.8v4.8H33.2z"/>
		<path class="st0" d="M29,54.6c-6.7,0-12.6,3.1-16.4,8c0.7,0.5,1.3,1.2,1.8,1.8C17.7,59.9,23,57,29.1,57c10.2,0,18.4,8.2,18.4,18.4
			c0,7.4-4.4,13.8-10.7,16.7c0.5,0.7,1,1.5,1.3,2.2c7-3.4,11.8-10.5,11.8-18.8C49.8,63.9,40.5,54.6,29,54.6z"/>
	</g>
</g>
</svg>
