<?xml version="1.0" encoding="utf-8"?>
<!-- Generator: Adobe Illustrator 22.0.1, SVG Export Plug-In . SVG Version: 6.00 Build 0)  -->
<svg version="1.1" id="Capa_1" xmlns="http://www.w3.org/2000/svg" xmlns:xlink="http://www.w3.org/1999/xlink" x="0px" y="0px"
	 width="50px" height="50px" viewBox="0 0 50 50" style="enable-background:new 0 0 50 50;" xml:space="preserve">
<style type="text/css">
	.st0{fill:#4558B4;}
</style>
<g>
	<g>
		<g>
			<path class="st0" d="M10.3,20.5c5.6,0,10.3-4.6,10.3-10.3C20.5,4.6,15.9,0,10.3,0S0,4.6,0,10.3C0,15.9,4.6,20.5,10.3,20.5z
				 M16.1,5.9c0.9,1.2,1.5,2.7,1.5,4.4s-0.5,3.2-1.5,4.4c-0.9-1.3-1.5-2.8-1.5-4.4S15.2,7.1,16.1,5.9z M6.6,3.9c1.1-0.6,2.3-1,3.7-1
				s2.6,0.4,3.7,1c-1.4,1.8-2.2,4-2.2,6.3s0.8,4.5,2.2,6.3c-1.1,0.6-2.3,1-3.7,1s-2.6-0.4-3.7-1c1.4-1.8,2.2-4,2.2-6.3
				S8,5.7,6.6,3.9z M4.4,5.9c0.9,1.3,1.5,2.8,1.5,4.4s-0.5,3.1-1.5,4.4c-0.9-1.2-1.5-2.7-1.5-4.4S3.5,7.1,4.4,5.9z M47.9,2.1
				L47.9,2.1c-2.9-2.9-7.5-2.9-10.4,0C28.6,11,24.9,15.8,21.3,20.4c-3.4,4.4-6.9,8.9-15.1,17.1c-1.6-0.8-3.7-0.5-5,0.9
				c-1.7,1.7-1.7,4.5,0,6.2l4.1,4.1c1.7,1.7,4.5,1.7,6.2,0c1.4-1.4,1.6-3.4,0.9-5c8.2-8.1,12.7-11.7,17.1-15.1
				c4.6-3.6,9.4-7.3,18.2-16.2l0,0C50.7,9.6,50.7,5,47.9,2.1L47.9,2.1z M9.6,46.6c-0.6,0.6-1.5,0.6-2.1,0l-4.1-4.1
				c-0.6-0.6-0.6-1.5,0-2.1c0.6-0.6,1.5-0.6,2.1,0l4.1,4.1C10.1,45.2,10.1,46.1,9.6,46.6z M10.6,41.5l-2.1-2.1
				c3.4-3.4,5.9-6.2,8-8.5l2.6,2.6C16.8,35.5,14,38.1,10.6,41.5L10.6,41.5z M45.8,10.4L45.8,10.4c-8.7,8.7-13.4,12.4-18,15.9
				c-2,1.6-4,3.1-6.4,5.2l-2.9-2.9c2-2.4,3.6-4.4,5.2-6.4c3.5-4.5,7.2-9.2,15.9-18l0,0c1.7-1.7,4.5-1.7,6.2,0l0,0
				C47.5,5.9,47.5,8.7,45.8,10.4z"/>
		</g>
	</g>
</g>
</svg>
