<?xml version="1.0" encoding="utf-8"?>
<!-- Generator: Adobe Illustrator 22.0.1, SVG Export Plug-In . SVG Version: 6.00 Build 0)  -->
<svg version="1.1" id="圖層_1" xmlns="http://www.w3.org/2000/svg" xmlns:xlink="http://www.w3.org/1999/xlink" x="0px" y="0px"
	 width="55px" height="55px" viewBox="0 0 55 55" style="enable-background:new 0 0 55 55;" xml:space="preserve">
<style type="text/css">
	.st0{fill:#FF3B30;}
</style>
<g>
	<g>
		<path class="st0" d="M27.3,29.6c0.1,0,0.1,0,0.2,0c0,0,0,0,0.1,0c0,0,0.1,0,0.1,0c3.3-0.1,6-1.2,8-3.5c4.4-4.9,3.7-13.4,3.6-14.2
			C39,5.9,36.1,3,33.7,1.6C32,0.6,29.9,0,27.6,0h-0.1c0,0,0,0,0,0h-0.1c-1.3,0-3.7,0.2-6.1,1.6c-2.4,1.4-5.3,4.3-5.6,10.4
			c-0.1,0.8-0.8,9.3,3.6,14.2C21.3,28.4,24,29.6,27.3,29.6z M18.7,12.2C18.7,12.2,18.8,12.2,18.7,12.2c0.4-8.3,6.2-9.1,8.7-9.1h0
			c0,0,0.1,0,0.1,0c3.1,0.1,8.3,1.3,8.7,9c0,0,0,0.1,0,0.1c0,0.1,0.8,7.8-2.8,11.9c-1.4,1.6-3.3,2.4-5.9,2.4c0,0,0,0-0.1,0l0,0
			c0,0,0,0-0.1,0c-2.5,0-4.4-0.8-5.9-2.4C18,20.1,18.7,12.3,18.7,12.2z"/>
		<path class="st0" d="M50.9,43.7C50.9,43.7,50.9,43.7,50.9,43.7c0-0.1,0-0.2,0-0.3c-0.1-2.3-0.2-7.5-5.2-9.2c0,0-0.1,0-0.1,0
			c-5.1-1.3-9.4-4.3-9.5-4.3c-0.7-0.5-1.7-0.3-2.1,0.4c-0.5,0.7-0.3,1.7,0.4,2.1c0.2,0.1,4.7,3.3,10.4,4.7c2.7,0.9,2.9,3.8,3,6.4
			c0,0.1,0,0.2,0,0.3c0,1-0.1,2.6-0.2,3.5c-1.8,1-9.1,4.7-20.1,4.7c-11,0-18.2-3.6-20.1-4.7c-0.2-0.9-0.3-2.5-0.2-3.5
			c0-0.1,0-0.2,0-0.3c0.1-2.6,0.4-5.4,3-6.4c5.7-1.5,10.2-4.6,10.4-4.7c0.7-0.5,0.9-1.4,0.4-2.1c-0.5-0.7-1.4-0.9-2.1-0.4
			c0,0-4.3,3-9.5,4.3c0,0-0.1,0-0.1,0c-4.9,1.7-5.1,7-5.2,9.2c0,0.1,0,0.2,0,0.3c0,0,0,0,0,0c0,0.6,0,3.6,0.6,5.2
			c0.1,0.3,0.3,0.5,0.6,0.7c0.3,0.2,8.5,5.4,22.2,5.4s21.9-5.2,22.2-5.4c0.3-0.2,0.5-0.4,0.6-0.7C50.9,47.3,50.9,44.3,50.9,43.7z"/>
	</g>
</g>
</svg>
