<?xml version="1.0" encoding="utf-8"?>
<!-- Generator: Adobe Illustrator 24.3.0, SVG Export Plug-In . SVG Version: 6.00 Build 0)  -->
<svg version="1.1" id="圖層_1" xmlns="http://www.w3.org/2000/svg" xmlns:xlink="http://www.w3.org/1999/xlink" x="0px" y="0px"
	 viewBox="0 0 52 104" style="enable-background:new 0 0 52 104;" xml:space="preserve">
<style type="text/css">
	.st0{fill:#0C5D91;}
</style>
<path d="M36.6,28.2c3-2.9,4.6-6.7,4.6-10.9C41.2,9,34.4,2.2,26,2.2S10.8,9,10.8,17.4c0,4.1,1.6,8,4.6,10.9c-8,4-13.1,12.3-13.1,21.2
	v0.2h47.3v-0.2C49.7,40.5,44.6,32.2,36.6,28.2z M26,5c6.8,0,12.4,5.6,12.4,12.4c0,3.5-1.4,6.7-4,9.1L33.8,27l0,0l-0.2,0.1l-0.2,0.2
	l-0.8,0.5c-2,1.3-4.3,2-6.7,2s-4.7-0.7-6.7-2l-0.8-0.5l0,0l-0.2-0.2l0-0.1l-0.6-0.6c-2.6-2.4-4-5.6-4-9.1C13.6,10.5,19.2,5,26,5z
	 M17.9,30.2c2.4,1.5,5.2,2.3,8.1,2.3s5.7-0.8,8.1-2.3c6.9,2.9,11.7,9.3,12.6,16.6H5.3C6.2,39.5,11,33.1,17.9,30.2z"/>
<g>
	<path class="st0" d="M37.8,80.9c-3,3.1-7.2,5-11.8,5c-4.6,0-8.8-1.9-11.8-5C6.9,85.1,2.3,93,2.3,101.4v0.2h47.3v-0.2
		C49.7,93,45.1,85.1,37.8,80.9z"/>
	<path class="st0" d="M26,83.1c7.6,0,13.7-6.3,13.7-13.8S33.6,55.6,26,55.6s-13.7,6.3-13.7,13.8S18.4,83.1,26,83.1z"/>
</g>
</svg>
