<?xml version="1.0" encoding="utf-8"?>
<!-- Generator: Adobe Illustrator 22.0.1, SVG Export Plug-In . SVG Version: 6.00 Build 0)  -->
<svg version="1.1" id="Layer_1" xmlns="http://www.w3.org/2000/svg" xmlns:xlink="http://www.w3.org/1999/xlink" x="0px" y="0px"
	 width="50px" height="50px" viewBox="0 0 50 50" style="enable-background:new 0 0 50 50;" xml:space="preserve">
<style type="text/css">
	.st0{fill:#648FB2;}
</style>
<path class="st0" d="M48.1,21.3c-0.7-3.6-7.6-6.7-7.6-6.7s-1.8-0.8-1.1-1.8s5.5-4.7,5.5-4.7s1.6-1.5-1.1-2c-2.7-0.5-9.1,0.5-9.1,0.5
	s-4.9-3.4-9.2-4.3c-4.3-0.9-8-1.1-9.6-1.4C14.4,0.6,5.2-0.7,3.4,0.5S1.9,2.2,1.9,2.2s-1.4,3.6,6,10.3c0,0,1.6,0.9,2.6,1
	c1,0.1,2,0.1,2.7,0.3c0.7,0.2,2.8,1.1,2.8,1.1l-1.5,1.1c0,0,0,1,1,1.4c1,0.4,8.7,3.5,8.7,3.5s-2.6,4-2.6,6.1s0.4,2.7,0.4,2.7
	s1,1,4.3-2.6c3.4-3.6,3.5-1.5,3.5-1.5s6.2,9-6.2,13.7c0,0-5.4-3.2-7.9-3.6c-2.6-0.4-7.5-0.5-8.5,0.9c-1,1.4,3.1,1.7,3.1,1.7
	s5.5,1.7,7,3.7c1.5,2.1,1.5,2.7-0.3,6.2c-1.8,3.5,2.7,0.9,2.7,0.9s3.1-2.3,4.7-5.6c0,0,18.1-3.6,17.5-22l3.9,2.1
	C45.7,23.4,48.8,24.9,48.1,21.3z M41.1,19.4c-3.7-1.8-2.8,0.8-2.8,0.8c5.5,17.1-14.8,22.1-14.8,22.1c-1.5,2.6-4.7,5.4-4.7,5.4
	c2.6-5.5-0.4-6.7-2.1-8c-1.7-1.3-6.2-2.8-6.2-2.8c3.1-1.8,13.1,3.8,13.1,3.8c6.8-1.8,9.4-6.7,9-11.5c-0.5-4.8-2.9-5.9-2.9-5.9
	S27.9,23,26.2,25c-1.6,2-3.4,2.8-3.4,2.8c0.3-3.4,2.2-5.9,2.9-6.7c0.7-0.8,0.4-0.7-0.5-1.5c-0.8-0.9-8.2-3.4-8.2-3.4
	c0.8-1.4,6.5-0.7,7.9-1.2c1.5-0.5,0.1-1.2-3.4-2.5c-3.6-1.2-7.4-1.1-8.9-0.5c-1.5,0.6-2.4,0.1-3.6-0.5C7.8,10.8,4.3,6.7,3.9,5
	c-0.4-1.6,8.3,0.7,8.3,0.7s1.9,1.2,7.1,2.4s9.9,3,9.9,3s6.6,5.1,11.5,6.6s6,4.6,6,4.6S44.8,21.2,41.1,19.4z"/>
</svg>
