<?xml version="1.0" encoding="utf-8"?>
<!-- Generator: Adobe Illustrator 22.0.1, SVG Export Plug-In . SVG Version: 6.00 Build 0)  -->
<svg version="1.1" id="Layer_1" xmlns="http://www.w3.org/2000/svg" xmlns:xlink="http://www.w3.org/1999/xlink" x="0px" y="0px"
	 width="50px" height="50px" viewBox="0 0 50 50" style="enable-background:new 0 0 50 50;" xml:space="preserve">
<style type="text/css">
	.st0{fill:#648FB2;}
</style>
<path class="st0" d="M25,0C11.2,0,0,11.2,0,25s11.2,25,25,25c13.8,0,25-11.2,25-25S38.8,0,25,0z M25.9,9.1l7-5.6
	C39.4,5.6,43.1,11,43.1,11l-2.7,7.6l-7.9,3.5l-6.6-5.3V9.1z M17,3.5l7,5.6v7.7l-6.6,5.3l-7.9-3.5L6.8,11C6.8,11,10.5,5.6,17,3.5z
	 M6.1,38.1c0,0-3.7-5.6-4.2-11.9l7.4-5l7.4,2.7l2.2,8.3l-4.7,5.5L6.1,38.1z M31.4,46.9c-6,1.7-12.4,0-12.4,0l-2.7-8.2l4.3-4.7H29
	l4.7,4.7L31.4,46.9z M35.4,37.8l-4.7-5.5l2.2-8.3l7.4-2.7l7.4,5c-0.5,6.2-4.2,11.9-4.2,11.9L35.4,37.8z"/>
</svg>
