<?xml version="1.0" encoding="utf-8"?>
<!-- Generator: Adobe Illustrator 26.0.3, SVG Export Plug-In . SVG Version: 6.00 Build 0)  -->
<svg version="1.1" id="圖層_1" xmlns="http://www.w3.org/2000/svg" xmlns:xlink="http://www.w3.org/1999/xlink" x="0px" y="0px"
	 width="62px" height="240px" viewBox="0 0 62 240" style="enable-background:new 0 0 62 240;" xml:space="preserve">
<style type="text/css">
	.st0{fill:#FFFFFF;}
</style>
<g>
	<g>
		<path class="st0" d="M9.2,17.4v-11h7.4v1.3h-6v3.4h5.2v1.3h-5.2v5C10.6,17.4,9.2,17.4,9.2,17.4z"/>
		<path class="st0" d="M18.4,8V6.4h1.4V8H18.4z M18.4,17.4v-8h1.4v8H18.4z"/>
		<path class="st0" d="M21.3,13.4c0-1.5,0.4-2.6,1.2-3.3C23.2,9.6,24,9.3,25,9.3c1.1,0,2,0.4,2.7,1.1c0.7,0.7,1,1.7,1,3
			c0,1-0.2,1.8-0.5,2.4c-0.3,0.6-0.8,1-1.3,1.4c-0.6,0.3-1.2,0.5-1.9,0.5c-1.1,0-2-0.4-2.7-1.1C21.6,15.8,21.3,14.8,21.3,13.4z
			 M22.7,13.4c0,1,0.2,1.8,0.7,2.3c0.4,0.5,1,0.8,1.7,0.8s1.2-0.3,1.7-0.8c0.4-0.5,0.7-1.3,0.7-2.3s-0.2-1.7-0.7-2.2
			c-0.4-0.5-1-0.8-1.7-0.8s-1.2,0.3-1.7,0.8S22.7,12.4,22.7,13.4z"/>
		<path class="st0" d="M30.3,17.4v-8h1.2v1.1c0.6-0.9,1.4-1.3,2.5-1.3c0.5,0,0.9,0.1,1.3,0.3s0.7,0.4,0.9,0.7s0.3,0.6,0.4,1
			c0,0.3,0.1,0.7,0.1,1.3v4.9h-1.3v-4.8c0-0.5-0.1-1-0.2-1.2c-0.1-0.3-0.3-0.5-0.6-0.7s-0.6-0.2-0.9-0.2c-0.6,0-1.1,0.2-1.5,0.5
			c-0.4,0.4-0.6,1.1-0.6,2.1v4.4h-1.3C30.3,17.5,30.3,17.4,30.3,17.4z"/>
		<path class="st0" d="M44.1,16.4c-0.5,0.4-1,0.7-1.4,0.9c-0.5,0.2-1,0.3-1.5,0.3c-0.9,0-1.5-0.2-2-0.6s-0.7-1-0.7-1.6
			c0-0.4,0.1-0.7,0.3-1.1c0.2-0.3,0.4-0.6,0.7-0.8s0.6-0.3,1-0.4c0.3-0.1,0.7-0.1,1.2-0.2c1.1-0.1,1.9-0.3,2.4-0.5
			c0-0.2,0-0.3,0-0.4c0-0.5-0.1-0.9-0.4-1.2c-0.3-0.3-0.9-0.5-1.5-0.5s-1.1,0.1-1.4,0.3c-0.3,0.2-0.5,0.6-0.7,1.2l-1.3-0.2
			c0.1-0.6,0.3-1,0.6-1.4c0.3-0.3,0.7-0.6,1.2-0.8s1.1-0.3,1.8-0.3s1.2,0.1,1.7,0.2c0.4,0.2,0.7,0.4,0.9,0.6
			c0.2,0.2,0.3,0.5,0.4,0.9c0,0.2,0.1,0.6,0.1,1.2v1.8c0,1.3,0,2,0.1,2.4s0.2,0.7,0.3,1h-1.4C44.2,17.1,44.1,16.8,44.1,16.4z
			 M44,13.4c-0.5,0.2-1.2,0.4-2.2,0.5c-0.6,0.1-0.9,0.2-1.2,0.3c-0.2,0.1-0.4,0.2-0.5,0.4s-0.2,0.4-0.2,0.6c0,0.4,0.1,0.7,0.4,0.9
			c0.3,0.2,0.7,0.4,1.2,0.4s1-0.1,1.4-0.3c0.4-0.2,0.7-0.5,0.9-0.9c0.1-0.3,0.2-0.8,0.2-1.4C44,13.9,44,13.4,44,13.4z"/>
	</g>
	<g>
		<path class="st0" d="M9.4,40.9v-11h8v1.3h-6.5v3.4H17v1.3h-6.1v3.7h6.8v1.3H9.4z"/>
		<path class="st0" d="M19.4,40.9v-8h1.2V34c0.2-0.4,0.6-0.7,1-0.9s0.9-0.4,1.4-0.4c0.6,0,1.1,0.1,1.5,0.4c0.4,0.2,0.6,0.6,0.8,1
			c0.6-0.9,1.5-1.4,2.5-1.4c0.8,0,1.4,0.2,1.8,0.7s0.6,1.1,0.6,2v5.5h-1.3v-5c0-0.5,0-0.9-0.1-1.2c-0.1-0.2-0.2-0.4-0.5-0.6
			s-0.5-0.2-0.8-0.2c-0.6,0-1,0.2-1.4,0.6c-0.4,0.4-0.6,1-0.6,1.8v4.6h-1.4v-5.2c0-0.6-0.1-1.1-0.3-1.4c-0.2-0.3-0.6-0.5-1.1-0.5
			c-0.4,0-0.7,0.1-1.1,0.3c-0.3,0.2-0.6,0.5-0.7,0.9s-0.2,0.9-0.2,1.7v4.1h-1.3V40.9z"/>
		<path class="st0" d="M32.2,31.4v-1.6h1.4v1.6H32.2z M32.2,40.9v-8h1.4v8H32.2z"/>
		<path class="st0" d="M35.6,40.9v-11H37v11H35.6z"/>
		<path class="st0" d="M39,43.9l-0.2-1.3c0.3,0.1,0.6,0.1,0.8,0.1c0.3,0,0.5,0,0.7-0.1s0.3-0.2,0.4-0.4c0.1-0.1,0.2-0.5,0.4-1
			c0-0.1,0.1-0.2,0.1-0.3l-3-8h1.5l1.7,4.6c0.2,0.6,0.4,1.2,0.6,1.8c0.2-0.6,0.3-1.2,0.6-1.8l1.7-4.6h1.3l-3,8.1
			c-0.3,0.9-0.6,1.5-0.8,1.8c-0.2,0.4-0.5,0.8-0.8,1s-0.7,0.3-1.1,0.3C39.6,44.1,39.3,44.1,39,43.9z"/>
	</g>
	<g>
		<path class="st0" d="M10.9,64.9L8,53.9h1.5l1.7,7.2c0.2,0.8,0.3,1.5,0.5,2.3c0.3-1.2,0.4-1.9,0.5-2l2.1-7.4H16l1.6,5.6
			c0.4,1.4,0.7,2.7,0.9,3.9c0.1-0.7,0.3-1.5,0.5-2.4l1.7-7.1h1.5l-3,11h-1.4l-2.3-8.4c-0.2-0.7-0.3-1.1-0.3-1.3
			c-0.1,0.5-0.2,0.9-0.3,1.3L12.6,65L10.9,64.9L10.9,64.9z"/>
		<path class="st0" d="M28.8,62.3l1.4,0.2c-0.2,0.8-0.6,1.4-1.2,1.9s-1.4,0.7-2.3,0.7c-1.2,0-2.1-0.4-2.8-1.1c-0.7-0.7-1-1.7-1-3
			s0.3-2.4,1-3.1c0.7-0.7,1.6-1.1,2.7-1.1s1.9,0.4,2.6,1.1c0.7,0.7,1,1.7,1,3.1c0,0.1,0,0.2,0,0.4h-5.9c0,0.9,0.3,1.5,0.7,2
			c0.4,0.5,1,0.7,1.7,0.7c0.5,0,0.9-0.1,1.3-0.4C28.3,63.3,28.6,62.9,28.8,62.3z M24.4,60.1h4.4c-0.1-0.7-0.2-1.2-0.5-1.5
			c-0.4-0.5-1-0.8-1.7-0.8c-0.6,0-1.1,0.2-1.6,0.6C24.7,58.9,24.4,59.4,24.4,60.1z"/>
		<path class="st0" d="M31.9,64.9v-8h1.2V58c0.6-0.9,1.4-1.3,2.5-1.3c0.5,0,0.9,0.1,1.3,0.3c0.4,0.2,0.7,0.4,0.9,0.7s0.3,0.6,0.4,1
			c0,0.3,0.1,0.7,0.1,1.3v4.9H37V60c0-0.5-0.1-1-0.2-1.2c-0.1-0.3-0.3-0.5-0.6-0.7s-0.6-0.2-0.9-0.2c-0.6,0-1.1,0.2-1.5,0.5
			c-0.4,0.4-0.6,1.1-0.6,2.1v4.4C33.2,64.9,31.9,64.9,31.9,64.9z"/>
		<path class="st0" d="M40.4,67.9l-0.1-1.3c0.3,0.1,0.6,0.1,0.8,0.1c0.3,0,0.5,0,0.7-0.1s0.3-0.2,0.4-0.4c0.1-0.1,0.2-0.5,0.4-1
			c0-0.1,0.1-0.2,0.1-0.3l-3-8h1.5l1.7,4.6c0.2,0.6,0.4,1.2,0.6,1.8c0.2-0.6,0.3-1.2,0.6-1.8l1.7-4.6H47L44,65
			c-0.3,0.9-0.6,1.5-0.8,1.8c-0.2,0.4-0.5,0.8-0.8,1s-0.7,0.3-1.1,0.3C41,68.1,40.7,68.1,40.4,67.9z"/>
	</g>
</g>
</svg>
