<?xml version="1.0" encoding="utf-8"?>
<!-- Generator: Adobe Illustrator 26.0.3, SVG Export Plug-In . SVG Version: 6.00 Build 0)  -->
<svg version="1.1" id="分離模式" xmlns="http://www.w3.org/2000/svg" xmlns:xlink="http://www.w3.org/1999/xlink" x="0px"
	 y="0px" width="58px" height="20px" viewBox="0 0 58 20" style="enable-background:new 0 0 58 20;" xml:space="preserve">
<style type="text/css">
	.st0{fill:#FF4848;}
	.st1{fill:#231815;}
</style>
<g>
	<path class="st0" d="M14.9,4l-1.2,3c-0.3,0.9-1.3,1.4-2.2,1.2c-1-0.2-2.4-0.3-3.4,0.1c-1.8,0.9-2,3.8-0.2,4.3
		c1.3,0.4,3.6-0.2,4.8-0.6c0.9-0.2,1.8,0.1,2.2,0.9l0.9,2.5c0.6,1,0.4,1.7-0.6,2.4c-2.2,1.3-6.9,3.2-11.2,0.3
		c-6.7-4.3-4.1-15.9,3-17c3.4-0.5,5.5-0.2,6.8,0.2C14.8,1.7,15.3,2.9,14.9,4z"/>
	<path class="st0" d="M23.9,1.8c-0.3-0.4-0.7-0.7-1.1-0.9c-0.5-0.3-1.1-0.4-1.6-0.4c-0.9,0-1.6,0.3-2.2,0.9
		c-0.5,0.6-0.8,1.2-0.8,1.9c-0.1,0.7,0.1,1.4,0.5,2.1c0.4,0.6,1.1,1.1,1.8,1.3c0.2,0.1,0.5,0.1,0.7,0.1c0.1,0,0.3,0,0.4,0
		c0.4,0,0.7-0.1,1.1-0.3c0.4-0.2,0.7-0.4,0.9-0.6C24.6,4.9,24.8,3.1,23.9,1.8z"/>
	<path class="st0" d="M24.3,8.3c-0.1-0.4-0.5-0.8-0.9-0.9c-0.4-0.1-0.8-0.2-1.3-0.2c-0.5,0-1,0-1.6,0.1c-0.3,0.1-0.6,0.2-0.9,0.3
		c-0.4,0.1-0.7,0.4-0.9,0.8c-0.1,0.3-0.2,0.6-0.3,1c0,0.2-0.1,0.4-0.1,0.7c0,0.2,0,0.4-0.1,0.6c0,0,0,0,0,0.1c0,0.2,0,0.5,0,0.8
		c0,0.3,0,0.6,0,0.9v1.8c0,0.6,0,1.3,0.1,1.9l0,0.6c0,0.4,0.1,0.8,0.1,1c0,0.4,0.1,0.8,0.3,1.2c0,0,0.1,0.1,0.1,0.1
		c0.3,0.3,0.7,0.5,1.2,0.5h1.6c0,0,0,0,0.1,0c0.2,0,0.4,0,0.5-0.1c0.2,0,0.4,0,0.6-0.1c0.3-0.1,0.6-0.2,0.9-0.4
		c0.3-0.3,0.4-0.7,0.4-0.8c0.1-0.3,0.1-0.6,0.1-0.9l0-0.2c0-0.3,0.1-0.6,0.1-0.9c0-0.3,0-0.6,0.1-0.9c0.1-0.4,0.1-0.8,0.1-1.2V10
		C24.5,9.4,24.5,8.9,24.3,8.3z"/>
	<path class="st0" d="M14.9,4l-1.2,3c-0.3,0.9-1.3,1.4-2.2,1.2c-1-0.2-2.4-0.3-3.4,0.1c-1.8,0.9-2,3.8-0.2,4.3
		c1.3,0.4,3.6-0.2,4.8-0.6c0.9-0.2,1.8,0.1,2.2,0.9l0.9,2.5c0.6,1,0.4,1.7-0.6,2.4c-2.2,1.3-6.9,3.2-11.2,0.3
		c-6.7-4.3-4.1-15.9,3-17c3.4-0.5,5.5-0.2,6.8,0.2C14.8,1.7,15.3,2.9,14.9,4z"/>
	<g>
		<path class="st1" d="M27.5,8.8h0.3c0.5,0,0.9,0.4,0.9,0.9v4.9c0,0.7,0.1,1.2,0.1,1.5c0.1,0.5,0.3,0.8,0.7,1c0.4,0.2,1,0.3,2,0.3
			h1.2c0.5,0,0.9,0.4,0.9,0.9l0,0c0,0.5-0.4,0.9-0.9,0.9h-1.4c-1.1,0-1.9-0.1-2.4-0.2c-1.1-0.3-1.9-1-2.2-2.2
			c-0.1-0.4-0.2-1.2-0.2-2.2V9.7C26.6,9.2,27,8.8,27.5,8.8z"/>
		<path class="st1" d="M35,18.1V9.7c0-0.5,0.4-0.9,0.9-0.9h0.3c0.5,0,0.9,0.4,0.9,0.9v8.4c0,0.5-0.4,0.9-0.9,0.9h-0.4
			C35.4,19.1,35,18.7,35,18.1z"/>
		<path class="st1" d="M48.6,10.1l-3.8,8.7c-0.1,0.2-0.3,0.3-0.5,0.3h-1.5c-0.2,0-0.4-0.1-0.5-0.3l-3.7-8.7
			c-0.3-0.6,0.2-1.3,0.8-1.3H40c0.4,0,0.7,0.2,0.9,0.6l2.3,5.8c0.2,0.5,0.8,0.5,1,0l2.3-5.8C46.7,9,47,8.8,47.4,8.8h0.4
			C48.5,8.8,48.9,9.5,48.6,10.1z"/>
		<path class="st1" d="M58,9.7L58,9.7c0,0.5-0.4,0.9-0.9,0.9h-1.9c-0.7,0-1.3,0.1-1.6,0.2c-0.3,0.1-0.6,0.3-0.8,0.6
			c-0.2,0.2-0.3,0.4-0.3,0.6s-0.1,0.6-0.1,1h4.9c0.5,0,0.9,0.4,0.9,0.9l0,0c0,0.5-0.4,0.9-0.9,0.9h-4.9c0.1,0.9,0.3,1.5,0.8,1.8
			c0.4,0.3,1.2,0.5,2.2,0.5h1.8c0.5,0,0.9,0.4,0.9,0.9l0,0c0,0.5-0.4,0.9-0.9,0.9h-1.9c-0.8,0-1.5,0-2-0.1c-0.9-0.2-1.7-0.6-2.2-1.2
			c-0.8-0.9-1.2-2.2-1.2-3.8c0-1.8,0.6-3.2,1.7-4.2c0.4-0.3,0.8-0.6,1.2-0.7c0.4-0.1,1-0.2,1.7-0.2h2.8C57.6,8.8,58,9.2,58,9.7z"/>
	</g>
</g>
</svg>
